<svg xmlns="http://www.w3.org/2000/svg" xmlns:xlink="http://www.w3.org/1999/xlink" width="169.963" height="197.718" viewBox="0 0 169.963 197.718">
  <g opacity=".2">
    <defs>
      <path id="a" d="M21.245 10.443h127.472v98.36H21.245z"/>
    </defs>
    <clipPath id="b">
      <use xlink:href="#a" overflow="visible"/>
    </clipPath>
    <path clip-path="url(#b)" fill="#231F20" d="M148.717 108.803H125.11V74.18c0-22.128-18.003-40.133-40.13-40.133-22.13 0-40.13 18.005-40.13 40.132v34.623H21.245V74.18c0-35.147 28.594-63.736 63.736-63.736 35.147 0 63.736 28.59 63.736 63.735v34.623z"/>
  </g>
  <path fill="#FFA942" d="M148.717 99.36H125.11V64.737c0-22.127-18.003-40.13-40.13-40.13-22.13 0-40.13 18.003-40.13 40.13V99.36H21.245V64.737C21.245 29.59 49.84 1 84.98 1c35.147 0 63.736 28.59 63.736 63.736V99.36z"/>
  <path opacity=".5" fill="#DA8131" d="M84.98 0C49.84 0 21.246 28.59 21.246 63.736v14C21.245 42.59 49.84 14 84.98 14c35.147 0 63.736 28.59 63.736 63.736v-14C148.716 28.59 120.126 0 84.98 0z"/>
  <path fill="#DA8131" d="M84.98 103.294c-10.43 0-18.884 8.456-18.884 18.885 0 6.97 3.817 12.99 9.442 16.266v12.06c0 5.22 4.224 9.442 9.442 9.442s9.442-4.222 9.442-9.442v-12.06c5.625-3.275 9.442-9.297 9.442-16.267.002-10.43-8.453-18.886-18.883-18.886"/>
  <g opacity=".2">
    <defs>
      <path id="c" d="M0 79.688h169.963v118.03H0z"/>
    </defs>
    <clipPath id="d">
      <use xlink:href="#c" overflow="visible"/>
    </clipPath>
    <path opacity=".5" clip-path="url(#d)" fill="#231F20" d="M155.8 79.688H14.163C6.34 79.688 0 86.033 0 93.852v89.702c0 7.824 6.34 14.164 14.164 14.164H155.8c7.823 0 14.163-6.34 14.163-14.164V93.852c0-7.82-6.34-14.164-14.164-14.164m-61.376 68.198v12.062c0 5.215-4.224 9.442-9.442 9.442s-9.442-4.228-9.442-9.442v-12.062c-5.625-3.273-9.442-9.288-9.442-16.265 0-10.428 8.455-18.884 18.885-18.884s18.885 8.456 18.885 18.885c-.002 6.978-3.82 12.992-9.444 16.266"/>
  </g>
  <path fill="#FFCA58" d="M155.8 70.244H14.163C6.34 70.244 0 76.59 0 84.408v89.703c0 7.825 6.34 14.165 14.164 14.165H155.8c7.823 0 14.163-6.34 14.163-14.164V84.41c0-7.818-6.34-14.164-14.164-14.164m-61.376 68.2v12.06c0 5.216-4.224 9.443-9.442 9.443s-9.442-4.228-9.442-9.442v-12.06c-5.625-3.275-9.442-9.29-9.442-16.267 0-10.43 8.455-18.885 18.885-18.885s18.885 8.456 18.885 18.885c-.002 6.976-3.82 12.992-9.444 16.267"/>
  <path fill="#FFA942" d="M155.8 70.244h-32.314v118.03H155.8c7.823 0 14.163-6.34 14.163-14.163V84.41c0-7.818-6.34-14.164-14.164-14.164z"/>
  <path opacity=".6" fill="#DA8131" d="M155.8 70.244h-7.314v118.03h7.313c7.823 0 14.163-6.34 14.163-14.163V84.41c0-7.818-6.34-14.164-14.164-14.164z"/>
  <path fill="none" stroke="#FFF" stroke-width="7" stroke-linecap="round" stroke-miterlimit="10" d="M16.985 86.877v60M16.985 87.877v60M16.985 162.877v7"/>
</svg>
