<svg xmlns="http://www.w3.org/2000/svg" width="1000" height="704.3" xmlns:xlink="http://www.w3.org/1999/xlink" viewBox="0 0 1000 704.3">
  <path fill="#08BFFF" d="M.3.3h1000v387H.3V.3z"/>
  <circle cx="866.94" cy="157.52" r="57.27" fill="#FFCE80" opacity=".25"/>
  <circle cx="866.94" cy="157.52" r="67.85" fill="#FFCE80" opacity=".25"/>
  <circle cx="866.94" cy="157.52" r="48.12" fill="#FFCE80" opacity=".25"/>
  <circle cx="866.94" cy="157.52" r="38.98" fill="#FFB533"/>
  <circle cx="835.22" cy="193.28" r="27.39" fill="#F2F2F2"/>
  <path fill="#DDD" d="M844.07 167.3c6.18 5.03 10.13 12.7 10.13 21.27 0 15.13-12.27 27.4-27.4 27.4-3.03 0-5.96-.52-8.7-1.43 4.72 3.83 10.73 6.13 17.27 6.13 15.13 0 27.4-12.26 27.4-27.4 0-12.08-7.84-22.32-18.7-25.96z"/>
  <circle cx="811.47" cy="206.33" r="14.34" fill="#F2F2F2"/>
  <path fill="#DDD" d="M815.8 192.74c3.23 2.62 5.3 6.63 5.3 11.13 0 7.9-6.42 14.33-14.33 14.33-1.6 0-3.12-.26-4.56-.74 2.48 2 5.62 3.2 9.05 3.2 7.9 0 14.33-6.4 14.33-14.33 0-6.33-4.1-11.7-9.78-13.6z"/>
  <path fill="#18597A" d="M757.4 72.3h-17.1v-9.78c-5 0-9.44 3.78-9.7 9.78h-3.1c-2.92 0-5.2 3.33-5.2 6.26v.22c0 2.93 2.28 5.52 5.2 5.52h29.9l-10.02-6 10-6z"/>
  <circle cx="726.45" cy="77.52" r="1.38" fill="#FFF"/>
  <path fill="#DB4916" d="M722.3 78.78v-.22c0-.68.1-1.33.33-1.92l-6.33 1.64 6.07 1.55c-.07-.34-.07-.7-.07-1.05z"/>
  <circle cx="161.5" cy="124.42" r="18.94" fill="#F2F2F2"/>
  <path fill="#DDD" d="M167.22 106.46c4.27 3.47 7 8.77 7 14.7 0 10.46-8.47 18.94-18.93 18.94-2.12 0-4.14-.35-6.03-.98 3.26 2.65 7.4 4.24 11.93 4.24 10.46 0 18.94-8.48 18.94-18.94 0-8.36-5.4-15.45-12.92-17.96z"/>
  <circle cx="125.94" cy="109.73" r="32.08" fill="#F2F2F2"/>
  <path fill="#DDD" d="M136.78 79.3c7.24 5.9 11.87 14.86 11.87 24.9 0 17.73-14.37 32.1-32.1 32.1-3.55 0-6.97-.6-10.18-1.67 5.52 4.5 12.56 7.18 20.22 7.18 17.7 0 32.07-14.36 32.07-32.07 0-14.16-9.17-26.16-21.9-30.42z"/>
  <circle cx="96.17" cy="119.39" r="23.97" fill="#F2F2F2"/>
  <path fill="#DDD" d="M103.4 96.67c5.42 4.4 8.87 11.1 8.87 18.6 0 13.24-10.73 23.97-23.96 23.97-2.65 0-5.2-.44-7.6-1.24 4.12 3.35 9.37 5.36 15.1 5.36 13.23 0 23.96-10.73 23.96-23.97 0-10.58-6.85-19.55-16.35-22.73z"/>
  <path fill="#71DB00" d="M286.5 343.65V302.3"/>
  <path fill="#FF4949" d="M326.5 302.3H340v41h-13.5v-41z"/>
  <path fill="#FE9B44" d="M313 302.3h13.5v41.35H313V302.3z"/>
  <path fill="#FFE825" d="M299.5 302.3H313v41h-13.5v-41z"/>
  <path fill="#71DB00" d="M286 302.3h13.5v41H286v-41z"/>
  <path fill="#4A99F2" d="M272.5 302.3H286v41.35h-13.5V302.3z"/>
  <path fill="#A74BF5" d="M259 302.3h13.5v41H259v-41z"/>
  <path fill="#02457A" d="M1000 318.65h-.23c-6.4 0-12.04 3.2-15.43 8.1-3.4-4.9-9.03-8.1-15.44-8.1-6.4 0-12.05 3.2-15.44 8.1-3.4-4.9-9.03-8.1-15.44-8.1-6.4 0-12.05 3.2-15.43 8.1-3.4-4.9-9.04-8.1-15.45-8.1-6.4 0-12.05 3.2-15.44 8.1-3.38-4.9-9.02-8.1-15.43-8.1-6.4 0-12.05 3.2-15.44 8.1-3.4-4.9-9.03-8.1-15.43-8.1s-12.05 3.2-15.44 8.1c-3.4-4.9-9.03-8.1-15.44-8.1-6.4 0-12.04 3.2-15.44 8.1-3.4-4.9-9.03-8.1-15.44-8.1-6.4 0-12.04 3.2-15.43 8.1-3.4-4.9-9.02-8.1-15.43-8.1-6.4 0-12.05 3.2-15.44 8.1-3.4-4.9-9.03-8.1-15.44-8.1-6.42 0-12.06 3.2-15.45 8.1-3.4-4.9-9.03-8.1-15.43-8.1-5.86 0-11.08 2.7-14.52 6.9-3.45-4.2-8.66-6.9-14.52-6.9-6.4 0-12.05 3.2-15.44 8.1-3.4-4.9-9.03-8.1-15.44-8.1-6.4 0-12.04 3.2-15.44 8.1-3.4-4.9-9.03-8.1-15.44-8.1-6.4 0-12.04 3.2-15.43 8.1-3.4-4.9-9.04-8.1-15.45-8.1-6.4 0-12.05 3.2-15.44 8.1-3.38-4.9-9.02-8.1-15.43-8.1-6.4 0-12.04 3.2-15.44 8.1-3.4-4.9-9.03-8.1-15.43-8.1s-12.05 3.2-15.44 8.1c-3.4-4.9-9.03-8.1-15.44-8.1-6.4 0-12.05 3.2-15.44 8.1-3.4-4.9-9.03-8.1-15.44-8.1-6.4 0-12.05 3.2-15.43 8.1-3.4-4.9-9.02-8.1-15.43-8.1-6.4 0-12.05 3.2-15.44 8.1-3.4-4.9-9.03-8.1-15.44-8.1-6.4 0-12.05 3.2-15.45 8.1-3.4-4.9-9.02-8.1-15.43-8.1-5.86 0-11.08 2.7-14.52 6.9-3.44-4.2-8.66-6.9-14.52-6.9-6.4 0-12.04 3.2-15.44 8.1-3.4-4.9-9.03-8.1-15.44-8.1-6.4 0-12.04 3.2-15.43 8.1-3.4-4.9-9.03-8.1-15.44-8.1-6.4 0-12.05 3.2-15.44 8.1-3.4-4.9-9.04-8.1-15.45-8.1-6.4 0-12.04 3.2-15.43 8.1-3.4-4.9-9.03-8.1-15.44-8.1-6.4 0-12.05 3.2-15.44 8.1-3.4-4.9-9.03-8.1-15.44-8.1-6.4 0-12.04 3.2-15.43 8.1-3.4-4.9-9.03-8.1-15.44-8.1-6.4 0-12.05 3.2-15.44 8.1-3.4-4.9-9.04-8.1-15.44-8.1s-12.05 3.2-15.44 8.1c-3.4-4.9-9.03-8.1-15.44-8.1-6.4 0-12.04 3.2-15.44 8.1-3.4-4.9-9.03-8.1-15.43-8.1s-12.04 3.2-15.43 8.1c-3.4-4.9-9.03-8.1-15.44-8.1-6.4 0-12.04 3.2-15.43 8.1l-.05-.06v287.88H1000V318.65z"/>
  <path fill="#007BBC" d="M985.57 329.6c-6.4 0-12.06 3.2-15.45 8.1-3.4-4.9-9.04-8.1-15.45-8.1-6.4 0-12.05 3.2-15.45 8.1-3.4-4.9-9.03-8.1-15.44-8.1-6.4 0-12.06 3.2-15.45 8.1-3.4-4.9-9.04-8.1-15.45-8.1-6.4 0-12.05 3.2-15.45 8.1-3.4-4.9-9.04-8.1-15.45-8.1-6.4 0-12.05 3.2-15.44 8.1-3.4-4.9-9.04-8.1-15.46-8.1-6.4 0-12.05 3.2-15.44 8.1-3.4-4.9-9.04-8.1-15.45-8.1-6.43 0-12.07 3.2-15.46 8.1-3.4-4.9-9.04-8.1-15.45-8.1-6.42 0-12.07 3.2-15.46 8.1-3.4-4.9-9.04-8.1-15.45-8.1-6.42 0-12.06 3.2-15.45 8.1-3.4-4.9-9.04-8.1-15.45-8.1-6.4 0-12.06 3.2-15.45 8.1-3.4-4.9-9.04-8.1-15.45-8.1-5.87 0-11.08 2.7-14.53 6.9-3.44-4.2-8.66-6.9-14.53-6.9-6.4 0-12.05 3.2-15.44 8.1-3.4-4.9-9.04-8.1-15.45-8.1-6.4 0-12.06 3.2-15.45 8.1-3.4-4.9-9.04-8.1-15.45-8.1-6.4 0-12.06 3.2-15.45 8.1-3.4-4.9-9.03-8.1-15.45-8.1-6.4 0-12.05 3.2-15.45 8.1-3.4-4.9-9.03-8.1-15.44-8.1-6.42 0-12.06 3.2-15.45 8.1-3.4-4.9-9.03-8.1-15.44-8.1-6.4 0-12.06 3.2-15.45 8.1-3.4-4.9-9.03-8.1-15.44-8.1s-12.05 3.2-15.45 8.1c-3.38-4.9-9.02-8.1-15.43-8.1-6.42 0-12.06 3.2-15.45 8.1-3.4-4.9-9.04-8.1-15.45-8.1-6.4 0-12.06 3.2-15.45 8.1-3.4-4.9-9.04-8.1-15.45-8.1-6.4 0-12.06 3.2-15.45 8.1-3.4-4.9-9.03-8.1-15.45-8.1-5.86 0-11.08 2.7-14.52 6.9-3.45-4.2-8.67-6.9-14.53-6.9-6.42 0-12.06 3.2-15.45 8.1-3.4-4.9-9.04-8.1-15.45-8.1-6.4 0-12.06 3.2-15.45 8.1-3.4-4.9-9.04-8.1-15.45-8.1-6.4 0-12.05 3.2-15.45 8.1-3.4-4.9-9.04-8.1-15.45-8.1-6.4 0-12.05 3.2-15.45 8.1-3.4-4.9-9.04-8.1-15.45-8.1-6.4 0-12.05 3.2-15.45 8.1-3.4-4.9-9.03-8.1-15.45-8.1s-12.05 3.2-15.45 8.1c-3.4-4.9-9.03-8.1-15.45-8.1-6.4 0-12.05 3.2-15.45 8.1-3.4-4.9-9.03-8.1-15.45-8.1-6.4 0-12.05 3.2-15.45 8.1-3.4-4.9-9.03-8.1-15.45-8.1-6.4 0-12.05 3.2-15.45 8.1-3.4-4.9-9.03-8.1-15.45-8.1-6.4 0-12.05 3.2-15.45 8.1-3.4-4.9-9.03-8.1-15.44-8.1h-.5v276.14h1000.1V336.5c-3.46-4.2-8.7-6.9-14.56-6.9z"/>
  <path fill="#001040" d="M890.2 387.77c2.12-4.58 6.76-7.77 12.14-7.77 5.4 0 10.02 3.2 12.16 7.77h-24.3z" opacity=".5"/>
  <path fill="#00B3FF" d="M866.56 387.77c2.14-4.58 6.77-7.77 12.16-7.77 5.4 0 10.02 3.2 12.15 7.77h-24.3z"/>
  <path fill="#001040" d="M408.2 508.77c2.12-4.6 6.76-7.77 12.14-7.77 5.4 0 10.02 3.19 12.16 7.77h-24.3z" opacity=".5"/>
  <path fill="#00B3FF" d="M384.56 508.77c2.14-4.6 6.77-7.77 12.16-7.77 5.4 0 10.02 3.19 12.15 7.77h-24.3z"/>
  <path fill="#001040" d="M182.8 409.05c1.47-3.14 4.66-5.34 8.36-5.34 3.7 0 6.9 2.2 8.36 5.35H182.8z" opacity=".5"/>
  <path fill="#00B3FF" d="M166.56 409.05c1.47-3.14 4.65-5.34 8.36-5.34 3.7 0 6.9 2.2 8.36 5.35h-16.72z"/>
  <g>
    <path fill="#001040" d="M690.86 423.46c1.1-2.38 3.52-4.04 6.33-4.04 2.8 0 5.2 1.66 6.3 4.04h-12.64z" opacity=".5"/>
    <path fill="#00B3FF" d="M678.56 423.46c1.1-2.38 3.53-4.04 6.33-4.04 2.8 0 5.2 1.66 6.32 4.04h-12.65z"/>
  </g>
  <g>
    <path fill="none" stroke="#00B3FF" stroke-width="2" stroke-miterlimit="10" d="M81.38 468.16l3.76-2.08c2.07-1.14 5.7-1.05 8.1.2l3 1.56c2.37 1.25 6.28 1.25 8.67 0l3-1.56c2.38-1.25 6.3-1.25 8.68 0l2.98 1.56c2.4 1.25 6.32 1.3 8.73.1l3.44-1.74c2.42-1.2 6.36-1.2 8.77 0l3.47 1.73c2.4 1.2 6.23 1.18 8.5-.05l4.1-2.24"/>
  </g>
  <g>
    <path fill="none" stroke="#00B3FF" stroke-width="3" stroke-miterlimit="10" d="M766.38 482.16l3.76-2.08c2.07-1.14 5.7-1.05 8.1.2l2.98 1.56c2.4 1.25 6.3 1.25 8.7 0l2.97-1.56c2.38-1.25 6.3-1.25 8.68 0l2.98 1.56c2.4 1.25 6.3 1.3 8.73.1l3.45-1.74c2.4-1.2 6.35-1.2 8.77 0l3.45 1.73c2.4 1.2 6.23 1.18 8.5-.05l4.1-2.24"/>
  </g>
  <g>
    <path fill="none" stroke="#00B3FF" stroke-width="2" stroke-miterlimit="10" d="M333.38 448.16l3.36-1.85c1.85-1 5.1-.93 7.24.2l2.66 1.4c2.14 1.1 5.63 1.1 7.77 0l2.67-1.4c2.14-1.13 5.63-1.13 7.76 0l2.67 1.4c2.13 1.1 5.64 1.14 7.8.06l3.08-1.54c2.16-1.08 5.7-1.08 7.84 0l3.1 1.54c2.14 1.08 5.56 1.06 7.57-.04l3.66-2"/>
  </g>
  <g>
    <path fill="#F4D398" d="M1000.3 521.3h-172c-8.25 0-15 6.75-15 15v3c0 8.25-6.75 15-15 15h-151c-8.25 0-15 6.75-15 15v2c0 8.25-6.75 15-15 15h-204c-8.25 0-15-6.75-15-15v-2c0-8.25-6.75-15-15-15h-151c-8.25 0-15-6.75-15-15v-3c0-8.25-6.75-15-15-15L0 521.32V704.3h1000.3v-183z"/>
    <path fill="none" stroke="#A87A47" stroke-width="1.38" stroke-miterlimit="10" d="M613.38 632.3l5.17-2.84 8.02 4.2 8.02-4.2 8 4.2 8.42-4.2 8.4 4.2 5.64-3.08" opacity=".5"/>
    <path fill="none" stroke="#F9DFB4" stroke-width="2" stroke-miterlimit="10" d="M890.38 582.3l5.17-2.84 8.02 4.2 8.02-4.2 8 4.2 8.42-4.2 8.4 4.2 5.64-3.08"/>
    <path fill="none" stroke="#A87A47" stroke-width="1.2" stroke-miterlimit="10" d="M214.38 627.22l4.52-2.5 7.02 3.68 7.02-3.68 7.02 3.68 7.36-3.68 7.35 3.68 4.93-2.7" opacity=".5"/>
    <path fill="none" stroke="#F9DFB4" stroke-width="2" stroke-miterlimit="10" d="M332.38 667.22l4.52-2.5 7.02 3.68 7.02-3.68 7.02 3.68 7.36-3.68 7.35 3.68 4.94-2.7"/>
    <path fill="#771515" d="M799.06 621.75c1.52-1.43 4-1.43 5.52 0l2.8 2.62c1.5 1.43 4.45 2.65 6.53 2.72l11.82.37c2.1.06 2.37 1.06.63 2.2l-5.9 3.9c-1.74 1.15-2.27 3.54-1.16 5.3l6.98 11.2c1.1 1.8.4 2.6-1.53 1.85l-19.4-7.55c-1.94-.76-5.12-.76-7.06 0l-19.4 7.55c-1.95.76-2.64-.06-1.53-1.84l6.98-11.2c1.1-1.77.58-4.15-1.15-5.3l-5.9-3.9c-1.75-1.15-1.46-2.15.62-2.2l11.8-.4c2.1-.06 5.04-1.28 6.56-2.7l2.78-2.64z" opacity=".2"/>
    <path fill="#F97878" d="M799 618.96c1.54-1.46 4.1-1.46 5.64 0l2.85 2.7c1.55 1.45 4.56 2.7 6.7 2.77l12.08.4c2.13.05 2.42 1.08.64 2.25l-6.04 4c-1.78 1.17-2.32 3.6-1.2 5.42l7.16 11.46c1.13 1.82.42 2.66-1.56 1.9l-19.86-7.74c-1.98-.77-5.24-.77-7.23 0l-19.86 7.73c-1.98.77-2.7-.07-1.56-1.88l7.14-11.47c1.13-1.8.6-4.25-1.18-5.42l-6.04-4c-1.78-1.17-1.5-2.2.64-2.26l12.1-.4c2.12-.05 5.13-1.3 6.68-2.77l2.87-2.7z"/>
    <path fill="#C93636" d="M802 631.98c-3.64 0-25.57 17.65-25.22 17.94.36.3 17.6-9.5 24.7-9.5 7.12 0 24.62 9.95 25.08 9.36.45-.58-20.9-17.8-24.55-17.8zm25.7-6.27c-1.36.5-7.67 2.3-24.46 4.46 1.35.35 9.35 1.56 14.52 2.14.97-1.9 9.93-6.1 9.93-6.6zm-51.6 0c1.35.5 7.66 2.3 24.45 4.46-1.36.35-9.36 1.56-14.52 2.14-.98-1.9-9.93-6.1-9.93-6.6zm25.95 4.2s5.97-4.34 5.6-5.36c-.4-1.02-6.37-7.13-6.1-5.6" opacity=".3"/>
  </g>
  <g>
    <path fill="#FF4949" d="M473.4 704.3h-13.5l.05-3.44.06-4.4c.05-1.8.05-3.8.18-6.18l.35-7.9c.13-2.9.44-6.1.7-9.56.54-6.92 1.45-14.92 2.84-23.92 1.5-9 3.33-19 6.34-29.9 2.97-10.86 6.87-22.6 12.25-34.84 5.4-12.2 12.2-24.95 20.9-37.4 8.66-12.44 19.05-24.66 30.97-35.8 5.93-5.58 12.22-10.96 18.8-16 6.56-5.06 13.4-9.9 20.43-14.4 7.02-4.52 14.25-8.82 21.6-12.85 7.78-4.1 11.15-6.16 16.9-9.9 10.52-7 20.56-15.36 29.78-24.92 9.16-9.62 17.46-20.46 24.47-32.32 14-23.73 22.72-51.57 23.97-80.58.63-14.52-.48-29.2-3.3-43.53-3.02-14.3-7.7-28.3-14.13-41.52-12.92-26.36-32.54-49.56-56.23-66.23-5.83-4.28-12.05-7.94-18.3-11.45l-4.78-2.44-2.37-1.22-2.44-1.1-4.85-2.2c-1.63-.7-3.3-1.3-4.94-1.96-3.25-1.4-6.63-2.42-9.95-3.57-1.65-.62-3.35-1.03-5.04-1.52l-5.04-1.44-5.1-1.17c-1.7-.4-3.38-.83-5.1-1.1-3.42-.57-6.8-1.3-10.23-1.63-13.65-1.8-27.38-2-40.6-.74-13.2 1.27-25.93 4.1-37.9 8.06-23.95 7.94-44.73 20.67-61.2 35.34-16.53 14.7-28.7 31.2-37.4 46.83-4.24 7.88-7.66 15.53-10.43 22.75-2.6 7.3-4.77 14.06-6.18 20.33l-1.1 4.56c-.3 1.5-.53 2.95-.8 4.35l-.76 4.08c-.23 1.32-.35 2.6-.52 3.85l-.48 3.57-.23 1.68-.13 1.62-.47 5.75c-.2 1.72-.17 3.25-.22 4.57l-.1 3.3-.1 2.72-13.5-.08.1-2.9.12-3.58c.06-1.42.04-3.06.23-4.9l.5-6.2.15-1.75.25-1.8.52-3.86c.2-1.33.32-2.72.56-4.14l.82-4.4c.3-1.52.55-3.1.87-4.7l1.17-4.9c1.5-6.75 3.84-14.06 6.65-21.9 2.98-7.8 6.67-16.05 11.24-24.54 9.35-16.84 22.47-34.62 40.27-50.42 17.72-15.8 40.1-29.52 65.92-38.07 12.9-4.26 26.6-7.3 40.82-8.68 14.23-1.35 28.98-1.14 43.68.8 3.7.36 7.35 1.14 11.03 1.77 1.85.27 3.66.73 5.5 1.15l5.48 1.26 5.45 1.56c1.8.52 3.65.98 5.44 1.63 3.57 1.23 7.2 2.35 10.72 3.84 1.77.7 3.56 1.37 5.32 2.12l5.24 2.37 2.63 1.18 2.57 1.33 5.15 2.63c6.72 3.78 13.42 7.73 19.72 12.34 25.5 17.96 46.62 42.9 60.54 71.3 6.9 14.24 11.97 29.34 15.2 44.75 3.06 15.45 4.25 31.25 3.57 46.86-1.35 31.22-10.75 61.26-25.82 86.81-7.56 12.8-16.5 24.46-26.35 34.8-9.92 10.3-20.73 19.3-32.06 26.84-6 3.93-10.45 6.58-17.87 10.5-7.1 3.9-14.05 8.03-20.8 12.36-6.74 4.3-13.24 8.93-19.48 13.74-6.26 4.78-12.2 9.88-17.8 15.15-11.26 10.5-21 21.97-29.14 33.64-8.14 11.7-14.54 23.65-19.62 35.15-5.05 11.5-8.74 22.6-11.55 32.93-2.86 10.3-4.6 19.87-6.05 28.47-1.3 8.6-2.2 16.3-2.72 22.95-.24 3.32-.54 6.4-.66 9.22l-.35 7.65c-.12 2.3-.12 4.3-.15 6.02l-.07 4.13-.05 3.33z"/>
    <path fill="#FE9B44" d="M486.9 704.3h-13.5l.05-3.3.06-4.26c.04-1.74.04-3.68.17-5.97l.35-7.62c.12-2.8.42-5.88.65-9.2.53-6.66 1.4-14.33 2.73-22.94 1.44-8.6 3.18-18.14 6.05-28.46 2.8-10.32 6.5-21.42 11.56-32.94 5.08-11.5 11.5-23.47 19.63-35.15 8.14-11.67 17.88-23.14 29.13-33.65 5.6-5.27 11.55-10.37 17.8-15.15 6.24-4.8 12.75-9.43 19.5-13.74 6.73-4.32 13.68-8.47 20.78-12.36 7.42-3.9 11.88-6.56 17.87-10.5 11.35-7.52 22.16-16.52 32.08-26.82 9.86-10.35 18.8-22.02 26.35-34.8 15.07-25.55 24.47-55.6 25.82-86.8.68-15.6-.52-31.4-3.57-46.85-3.23-15.42-8.3-30.52-15.2-44.75-13.93-28.4-35.05-53.35-60.55-71.3-6.3-4.62-13-8.57-19.72-12.34l-5.14-2.63-2.56-1.32-2.63-1.18-5.23-2.38c-1.76-.75-3.56-1.4-5.32-2.12-3.52-1.5-7.15-2.6-10.74-3.84-1.78-.65-3.62-1.1-5.43-1.63l-5.44-1.54-5.48-1.26c-1.83-.42-3.65-.9-5.5-1.17-3.68-.63-7.33-1.4-11.02-1.77-14.7-1.94-29.45-2.14-43.68-.8-14.23 1.37-27.94 4.43-40.83 8.7-25.83 8.54-48.22 22.26-65.94 38.06-17.8 15.8-30.9 33.57-40.27 50.4-4.58 8.5-8.28 16.74-11.26 24.53-2.8 7.85-5.13 15.16-6.65 21.9l-1.18 4.92c-.33 1.6-.6 3.17-.87 4.7l-.82 4.4c-.24 1.4-.38 2.8-.57 4.14l-.52 3.83-.24 1.8-.14 1.76c-.2 2.26-.36 4.33-.5 6.18-.2 1.85-.2 3.5-.25 4.9l-.1 3.58-.1 2.9-13.5-.08.1-3.12.12-3.82c.06-1.5.05-3.27.26-5.25l.54-6.64.16-1.87.26-1.95.55-4.12c.2-1.43.34-2.92.6-4.44l.87-4.73c.3-1.63.6-3.3.94-5.02.42-1.7.83-3.47 1.26-5.28 1.64-7.23 4.12-15.07 7.14-23.48 3.2-8.36 7.15-17.2 12.06-26.3 10.02-18.04 24.07-37.08 43.14-54 18.98-16.93 42.96-31.63 70.64-40.8 13.83-4.57 28.53-7.84 43.77-9.3 15.25-1.46 31.02-1.24 46.78.83 3.96.4 7.87 1.23 11.8 1.9 2 .3 3.94.8 5.9 1.26l5.9 1.34 5.83 1.65c1.95.56 3.92 1.05 5.83 1.75 3.84 1.32 7.74 2.53 11.5 4.12 1.9.76 3.83 1.47 5.7 2.28l5.63 2.54 2.8 1.26 2.76 1.4 5.52 2.83c7.2 4.03 14.38 8.28 21.13 13.2 27.3 19.25 49.94 45.94 64.85 76.4 7.4 15.25 12.85 31.44 16.3 47.97 3.3 16.56 4.56 33.47 3.83 50.17-1.44 33.42-11.53 65.67-27.7 93.04-8.08 13.7-17.64 26.2-28.2 37.27-10.63 11.03-22.2 20.67-34.35 28.73-6.24 4.12-11.78 7.38-18.84 11.08-6.87 3.77-13.53 7.75-19.98 11.9-6.46 4.1-12.64 8.5-18.56 13.07-5.93 4.54-11.53 9.35-16.8 14.3-10.6 9.9-19.7 20.62-27.3 31.53-7.6 10.9-13.6 22.1-18.35 32.88-9.5 21.67-14 41.7-16.63 58.1-1.26 8.2-2.1 15.56-2.6 21.95-.24 3.18-.52 6.14-.64 8.85l-.33 7.37c-.13 2.2-.12 4.14-.16 5.8 0 1.7-.03 2.85-.05 4l-.05 3.18z"/>
    <path fill="#FFE825" d="M500.4 704.3h-13.5l.05-3.2.06-4.1c.04-1.67.04-3.55.16-5.75l.33-7.34c.1-2.7.4-5.64.63-8.83.5-6.4 1.35-13.74 2.6-21.96 2.63-16.37 7.15-36.4 16.64-58.07 4.76-10.8 10.74-21.96 18.35-32.88 7.6-10.9 16.7-21.63 27.3-31.52 5.27-4.96 10.86-9.77 16.8-14.3 5.9-4.57 12.1-8.96 18.56-13.1 6.45-4.13 13.1-8.1 19.98-11.87 7.06-3.7 12.6-6.97 18.84-11.08 12.14-8.07 23.72-17.7 34.34-28.74 10.56-11.08 20.13-23.58 28.22-37.27 16.16-27.37 26.24-59.62 27.68-93.04.73-16.7-.54-33.6-3.82-50.17-3.45-16.53-8.9-32.72-16.3-47.97-14.92-30.46-37.54-57.16-64.85-76.4-6.75-4.93-13.92-9.17-21.13-13.22l-5.52-2.82-2.75-1.4-2.82-1.28-5.6-2.54c-1.9-.8-3.82-1.5-5.7-2.28-3.78-1.6-7.68-2.8-11.52-4.12-1.9-.7-3.88-1.2-5.83-1.76l-5.83-1.65-5.9-1.35c-1.95-.45-3.9-.94-5.88-1.25-3.96-.68-7.87-1.5-11.83-1.9-15.76-2.08-31.52-2.3-46.76-.84-15.23 1.45-29.93 4.72-43.76 9.3-27.7 9.16-51.67 23.86-70.65 40.78-19.07 16.93-33.12 35.97-43.14 54-4.9 9.1-8.86 17.95-12.06 26.3-3.02 8.4-5.5 16.25-7.14 23.5l-1.25 5.25c-.34 1.72-.62 3.4-.93 5.02-.3 1.63-.6 3.2-.87 4.72-.26 1.53-.4 3.02-.6 4.44l-.57 4.14-.26 1.94-.15 1.87-.55 6.63c-.2 1.98-.2 3.74-.25 5.25l-.12 3.82-.1 3.12-13.5-.08.1-3.33.13-4.07c.06-1.62.05-3.5.27-5.6l.58-7.08.17-2c.1-.66.18-1.35.27-2.06l.6-4.4c.2-1.52.37-3.1.65-4.73l.92-5.04c.32-1.74.62-3.53 1-5.36l1.33-5.62c1.76-7.73 4.4-16.1 7.63-25.07 3.4-8.92 7.62-18.35 12.86-28.05 10.7-19.26 25.68-39.56 46-57.6 20.23-18.05 45.8-33.73 75.36-43.52 14.76-4.88 30.45-8.37 46.7-9.93 16.26-1.54 33.04-1.32 49.85.9 4.23.44 8.4 1.3 12.6 2.03 2.12.33 4.2.85 6.3 1.33l6.28 1.46 6.23 1.76c2.08.6 4.18 1.13 6.22 1.87 4.1 1.4 8.26 2.7 12.3 4.4 2 .8 4.06 1.56 6.07 2.42l6 2.7 3 1.37 2.93 1.5 5.9 3c7.7 4.3 15.33 8.84 22.53 14.1 29.13 20.52 53.25 48.97 69.16 81.47 7.9 16.28 13.7 33.56 17.4 51.2 3.5 17.67 4.85 35.7 4.07 53.5-1.52 35.6-12.28 70.06-29.52 99.26-8.64 14.6-18.84 27.93-30.1 39.74-11.32 11.77-23.67 22.04-36.62 30.65-6.48 4.3-13.1 8.17-19.8 11.67-6.64 3.62-13.02 7.44-19.18 11.4-6.17 3.92-12.03 8.1-17.62 12.4-5.6 4.3-10.86 8.82-15.8 13.46-9.93 9.27-18.38 19.24-25.46 29.38-7.08 10.15-12.64 20.54-17.1 30.62-8.84 20.23-13.15 39.15-15.64 54.75-1.2 7.84-2 14.87-2.5 21-.2 3.06-.48 5.9-.6 8.5l-.3 7.08c-.13 2.12-.12 4-.15 5.6l-.06 3.83-.05 3.1z"/>
    <path fill="#71DB00" d="M513.9 704.3h-13.5l.05-3.07.06-3.95c.04-1.6.03-3.43.16-5.54.1-2.12.2-4.46.3-7.06.12-2.6.4-5.42.62-8.5.5-6.12 1.3-13.13 2.5-20.96 2.48-15.6 6.78-34.52 15.64-54.75 4.45-10.08 10-20.47 17.08-30.62 7.08-10.14 15.53-20.1 25.45-29.38 4.94-4.65 10.2-9.17 15.8-13.45 5.6-4.3 11.46-8.48 17.63-12.42 6.15-3.95 12.55-7.77 19.17-11.4 6.7-3.5 13.32-7.37 19.8-11.67 12.96-8.6 25.3-18.88 36.63-30.64 11.26-11.83 21.46-25.16 30.1-39.76 17.24-29.2 28-63.64 29.53-99.27.8-17.8-.56-35.8-4.07-53.5-3.68-17.63-9.48-34.9-17.4-51.18-15.9-32.5-40.03-60.96-69.15-81.5-7.2-5.24-14.84-9.78-22.54-14.08l-5.9-3.02-2.92-1.5-3-1.36-6-2.7c-2-.87-4.06-1.63-6.08-2.44-4.03-1.7-8.2-3-12.3-4.4-2.03-.74-4.13-1.27-6.2-1.87l-6.23-1.76-6.28-1.45c-2.1-.48-4.17-1-6.28-1.33-4.2-.74-8.4-1.6-12.6-2.05-16.82-2.2-33.6-2.44-49.86-.9-16.25 1.57-31.95 5.05-46.7 9.94-29.56 9.77-55.13 25.46-75.37 43.5-20.3 18.05-35.3 38.35-45.98 57.6-5.24 9.7-9.46 19.14-12.87 28.05-3.23 8.98-5.86 17.35-7.62 25.07l-1.33 5.62c-.38 1.84-.68 3.63-1 5.36-.33 1.73-.64 3.4-.93 5.04-.28 1.62-.45 3.2-.66 4.73l-.58 4.4-.27 2.07-.17 2-.58 7.06c-.22 2.12-.2 4-.27 5.6l-.13 4.08-.1 3.32-13.5-.1.1-3.5.14-4.33c.07-1.72.06-3.7.3-5.95l.6-7.5.18-2.12.3-2.2.6-4.68c.24-1.62.42-3.3.72-5.03.3-1.74.64-3.52.98-5.36.35-1.84.67-3.75 1.07-5.7l1.4-5.97c1.87-8.2 4.67-17.1 8.1-26.65 3.63-9.48 8.1-19.5 13.7-29.8 11.34-20.48 27.26-42.03 48.84-61.2 10.77-9.58 22.9-18.54 36.32-26.4 13.4-7.87 28.08-14.64 43.77-19.84 15.7-5.2 32.37-8.9 49.64-10.55 17.27-1.65 35.06-1.4 52.94.94 4.5.48 8.93 1.38 13.4 2.16 2.25.36 4.46.9 6.68 1.42l6.68 1.54c2.2.6 4.4 1.24 6.62 1.86 2.2.64 4.44 1.2 6.6 2 4.37 1.48 8.78 2.88 13.07 4.67 2.15.86 4.33 1.67 6.47 2.6l6.37 2.86 3.18 1.44 3.12 1.6 6.25 3.2c8.2 4.57 16.3 9.4 23.95 14.97 30.94 21.82 56.56 52.02 73.47 86.57 8.4 17.3 14.58 35.67 18.5 54.42 3.72 18.78 5.16 37.92 4.33 56.8-1.64 37.83-13.07 74.48-31.4 105.5-9.17 15.52-20 29.68-31.97 42.23-12.03 12.5-25.15 23.4-38.9 32.55-1.7 1.17-3.48 2.23-5.2 3.34-1.7 1.1-3.52 2.18-5.33 3.23l-2.7 1.6-.7.4-.62.33-1.26.68c-1.66.9-3.37 1.8-4.97 2.68-6.38 3.5-12.5 7.15-18.35 10.92-5.88 3.74-11.42 7.7-16.7 11.75-5.27 4.05-10.2 8.28-14.8 12.62-9.26 8.64-17.07 17.87-23.6 27.24-6.55 9.38-11.7 19-15.83 28.37-8.23 18.8-12.3 36.6-14.67 51.42-1.14 7.43-1.9 14.13-2.37 20-.2 2.93-.48 5.64-.6 8.14-.1 2.5-.2 4.76-.3 6.8-.1 2.03-.1 3.84-.13 5.4l-.06 3.67-.05 2.95v-.02z"/>
    <path fill="#4A99F2" d="M527.4 704.3h-13.5l.05-2.95.06-3.8c.03-1.56.03-3.3.15-5.33.1-2.04.2-4.28.3-6.78.1-2.5.4-5.2.6-8.13.45-5.85 1.23-12.54 2.36-19.97 2.37-14.82 6.45-32.63 14.7-51.42 4.12-9.35 9.26-18.97 15.8-28.35 6.55-9.37 14.35-18.6 23.6-27.24 4.62-4.32 9.54-8.55 14.82-12.6 5.27-4.06 10.8-8 16.7-11.75 5.85-3.77 11.97-7.43 18.35-10.92 1.6-.9 3.3-1.78 4.97-2.68l1.25-.68.62-.33.68-.4 2.7-1.6c1.83-1.06 3.65-2.13 5.35-3.23 1.72-1.1 3.48-2.17 5.2-3.33 13.75-9.15 26.86-20.06 38.9-32.56C693 457.67 703.84 443.5 713 428c18.34-31.03 29.78-67.68 31.4-105.5.84-18.9-.6-38.03-4.33-56.82-3.9-18.75-10.08-37.12-18.5-54.42-16.9-34.55-42.52-64.75-73.45-86.56-7.65-5.57-15.77-10.4-23.96-14.97l-6.25-3.2-3.1-1.6-3.2-1.45-6.37-2.87c-2.14-.9-4.3-1.72-6.47-2.58-4.28-1.8-8.7-3.2-13.06-4.67-2.17-.8-4.4-1.36-6.6-2l-6.63-1.87-6.68-1.54c-2.23-.5-4.44-1.06-6.68-1.4-4.48-.8-8.92-1.7-13.4-2.17-17.88-2.36-35.67-2.6-52.94-.95-17.27 1.66-33.95 5.36-49.64 10.55-15.7 5.2-30.36 11.97-43.77 19.84-13.4 7.87-25.55 16.83-36.32 26.4-21.58 19.18-37.5 40.74-48.85 61.2-5.58 10.3-10.07 20.34-13.68 29.8-3.44 9.55-6.23 18.45-8.1 26.66-.5 2.05-.96 4.04-1.42 5.98-.4 1.95-.72 3.85-1.07 5.7l-.98 5.35c-.3 1.72-.48 3.4-.7 5.02l-.62 4.67-.3 2.2-.17 2.1-.62 7.52c-.23 2.24-.22 4.23-.3 5.95l-.13 4.32-.1 3.5-13.5-.07.1-3.73.15-4.57c.08-1.8.08-3.92.3-6.3l.67-7.94.2-2.25.3-2.33.65-4.95c.24-1.7.44-3.5.74-5.33l1.05-5.67c.37-1.95.72-3.97 1.14-6.03l1.48-6.33c2-8.68 4.94-18.12 8.6-28.22 3.82-10.04 8.57-20.66 14.48-31.58 12-21.67 28.88-44.5 51.72-64.78 11.4-10.14 24.25-19.62 38.45-27.95 14.2-8.33 29.74-15.5 46.36-21 16.6-5.5 34.28-9.42 52.56-11.18 18.28-1.76 37.1-1.5 56.02 1 4.74.5 9.45 1.44 14.2 2.28 2.37.38 4.7.96 7.06 1.5l7.07 1.63 7.03 2c2.34.67 4.7 1.28 7 2.1 4.62 1.57 9.3 3.06 13.84 4.95 2.28.9 4.58 1.78 6.85 2.75l6.74 3.04 3.38 1.54 3.3 1.68 6.63 3.4c8.68 4.83 17.26 9.95 25.36 15.85 32.75 23.1 59.88 55.06 77.78 91.65 8.9 18.32 15.46 37.78 19.6 57.64 3.95 19.9 5.47 40.16 4.58 60.13-1.72 40.04-13.84 78.9-33.24 111.73-9.72 16.43-21.2 31.42-33.86 44.7-12.72 13.23-26.6 24.78-41.18 34.46-1.8 1.24-3.67 2.36-5.5 3.54-.93.58-1.78 1.15-2.78 1.74l-2.95 1.74-2.95 1.73-.74.43-.62.33-1.26.68c-1.64.9-3.4 1.8-4.93 2.66-6.15 3.36-11.98 6.86-17.55 10.44-5.58 3.56-10.8 7.3-15.75 11.1-4.96 3.78-9.54 7.73-13.82 11.75-8.6 8.02-15.74 16.5-21.76 25.1-6.02 8.62-10.74 17.45-14.56 26.1-7.6 17.37-11.47 34.07-13.7 48.1-1.07 7.04-1.8 13.4-2.25 19.02-.2 2.8-.47 5.38-.58 7.78l-.3 6.52c-.1 1.95-.1 3.7-.12 5.2l-.06 3.52-.05 2.8z"/>
    <path fill="#A74BF5" d="M540.9 704.3h-13.5l.05-2.83c0-1.02.03-2.15.05-3.65.03-1.5.02-3.18.14-5.12l.3-6.5c.1-2.4.35-4.95.55-7.76.43-5.6 1.17-11.97 2.24-19 2.23-14.04 6.1-30.74 13.7-48.1 3.82-8.65 8.54-17.48 14.55-26.1 6-8.6 13.17-17.08 21.76-25.1 4.28-4.02 8.86-7.97 13.82-11.75 4.94-3.82 10.16-7.55 15.75-11.1 5.56-3.58 11.4-7.08 17.54-10.45 1.55-.85 3.3-1.77 4.94-2.65l1.27-.68.62-.33.73-.44 2.94-1.73 2.95-1.74c1-.6 1.86-1.17 2.8-1.75 1.82-1.17 3.68-2.3 5.5-3.53 14.56-9.68 28.45-21.23 41.17-34.46 12.66-13.3 24.13-28.27 33.85-44.7 19.4-32.84 31.52-71.7 33.24-111.73.88-19.98-.64-40.24-4.6-60.14-4.14-19.87-10.68-39.33-19.6-57.65-17.9-36.6-45-68.55-77.76-91.65-8.1-5.9-16.7-11.02-25.36-15.84l-6.62-3.4-3.3-1.7-3.4-1.52-6.73-3.05c-2.27-.98-4.57-1.84-6.86-2.75-4.54-1.9-9.2-3.38-13.83-4.95-2.3-.83-4.66-1.44-7-2.12l-7.02-1.97-7.07-1.63c-2.36-.54-4.7-1.12-7.08-1.5-4.73-.83-9.43-1.78-14.18-2.3-18.95-2.48-37.76-2.73-56.03-1-18.28 1.77-35.96 5.68-52.57 11.18-16.62 5.52-32.17 12.68-46.36 21-14.2 8.34-27.05 17.83-38.45 27.97-22.86 20.3-39.72 43.1-51.74 64.78-5.9 10.92-10.65 21.54-14.48 31.58-3.65 10.1-6.6 19.53-8.6 28.22l-1.48 6.34c-.43 2.06-.77 4.08-1.14 6.03l-1.04 5.67c-.3 1.83-.5 3.6-.75 5.32l-.65 4.95-.3 2.34-.2 2.24-.65 7.95c-.24 2.38-.24 4.48-.3 6.3l-.16 4.57-.1 3.73-13.5-.1.1-3.92.16-4.8c.08-1.93.1-4.15.33-6.65l.68-8.4.2-2.36.33-2.47.7-5.22c.25-1.8.46-3.68.8-5.6l1.08-6c.4-2.06.76-4.2 1.2-6.37l1.58-6.68c2.1-9.18 5.2-19.14 9.07-29.8 4.04-10.6 9.06-21.83 15.3-33.35 6.35-11.45 13.95-23.18 23-34.73 9.05-11.56 19.55-22.94 31.6-33.64 12-10.7 25.58-20.7 40.57-29.5 14.98-8.8 31.4-16.37 48.95-22.2 17.54-5.8 36.2-9.92 55.5-11.78 19.3-1.84 39.13-1.58 59.1 1.05 5.02.55 10 1.54 15 2.42 2.5.4 4.97 1 7.46 1.58l7.47 1.73c2.47.7 4.94 1.4 7.4 2.08 2.48.73 4.97 1.38 7.4 2.25 4.9 1.65 9.82 3.23 14.6 5.22 2.42.96 4.86 1.88 7.25 2.9l7.12 3.22 3.56 1.6 3.5 1.8 7 3.57c9.15 5.1 18.2 10.5 26.76 16.73 34.56 24.4 63.2 58.1 82.08 96.73 9.4 19.33 16.32 39.9 20.68 60.86 4.2 21 5.8 42.38 4.86 63.45-.5 10.54-1.6 21.03-3.38 31.37-1.78 10.34-4.18 20.52-7.18 30.46-6 19.87-14.3 38.78-24.55 56.12-10.26 17.35-22.36 33.17-35.73 47.18-13.43 13.97-28.08 26.16-43.46 36.37-1.9 1.3-3.88 2.5-5.8 3.74-1 .6-1.9 1.2-2.97 1.83l-3.17 1.88-3.2 1.87-.8.46-.6.34-1.26.67-2.5 1.33c-.8.44-1.72.9-2.4 1.3-5.9 3.24-11.46 6.57-16.74 9.96-5.3 3.37-10.2 6.88-14.8 10.43-4.65 3.54-8.9 7.2-12.83 10.9-7.93 7.4-14.44 15.15-19.93 22.98-5.48 7.85-9.77 15.9-13.28 23.84-7 15.92-10.62 31.5-12.73 44.76-1.02 6.65-1.72 12.7-2.14 18.03-.18 2.68-.44 5.13-.53 7.43l-.28 6.24c-.1 1.86-.1 3.54-.13 4.98l-.06 3.37-.05 2.7z"/>
  </g>
  <g>
    <path fill="#840000" d="M568.3 315.3l109 27v-80l-109-27"/>
    <circle cx="515" cy="316.3" r="139" fill="#580E77"/>
    <circle cx="515" cy="316.3" r="139" fill="none" stroke="#FFF" stroke-width="5" stroke-miterlimit="10"/>
    <path d="M565.6 274.6c58.67 50.2 37.6 136.62 29.07 150.67 27.53-20.05 47.65-50.35 54.1-86.52 13.22-74.32-36.3-145.3-110.63-158.53C481 170.05 425.8 197 397.34 243.8c29.04-21.14 109.58-19.42 168.26 30.8z" opacity=".2"/>
    <defs>
      <ellipse id="a" cx="516" cy="324.3" rx="133.3" ry="129"/>
    </defs>
    <clipPath id="b">
      <use xlink:href="#a" overflow="visible"/>
    </clipPath>
    <path fill="none" stroke="#000" stroke-width="78.89" stroke-miterlimit="10" d="M666.75 326.42c-143.05 0-148.22 69-293.52 69" opacity=".25" clip-path="url(#b)"/>
  </g>
  <g>
    <path fill="#828948" d="M426.54 296.95s3.95 4.86-1.47 5.9c-5.4 1-16.5-24.46-14.13-33.45 4.65-.88 14-8.73 14-8.73l1.6 36.28z"/>
    <path fill="#FFE315" d="M497.8 218.75l-27.44 6.15c-30.37 8.48-27.56 27.92-58.83 44.77 2.42 2.14 15.68 19.17 14.37 32.3l20.9-9.3c4.12 7.74 6.66 34.14 8.32 45.3 5.26-.77 145.16-43.12 145.16-43.12s-22.98-48.55-33.95-61.27c-8.93-10.37-21.88-11.3-38.34-16.02l-30.2 1.2z"/>
    <defs>
      <path id="c" d="M528.4 257.16l13.8-3.07 1.8 8.13-13.8 3.07z"/>
    </defs>
    <clipPath id="d">
      <use xlink:href="#c" overflow="visible"/>
    </clipPath>
    <g clip-path="url(#d)">
      <circle cx="536.92" cy="262.85" r="6.79" fill="#EA4A24"/>
      <circle cx="536.92" cy="262.86" r="5.39" fill="#F5A51C"/>
      <circle cx="536.92" cy="262.85" r="3.98" fill="#30A449"/>
      <circle cx="536.92" cy="262.85" r="2.58" fill="#62C8E0"/>
    </g>
    <path fill="#494C13" d="M497.8 218.75l-27.44 6.15c95.14 2.75 80.14 5.75 122.93 81.94-5.8-21.2-16-60.54-26.97-73.27-8.93-10.36-21.88-11.3-38.34-16l-30.2 1.18z" opacity=".1"/>
    <path fill="#444710" d="M498.1 219.36l-27.42 6.15c-30.37 8.5-27.56 27.93-58.84 44.78 2.5 1.4 8.9 8.27 11.5 16.82 0 0 53.16-79.45 104.97-68.93l-30.2 1.2z" opacity=".1"/>
    <path fill="none" stroke="#DC4C1A" stroke-width="85" stroke-miterlimit="10" d="M677.44 307.13c-154.14 0-159.7 74.34-316.27 74.34"/>
    <g>
      <g fill="#840000">
        <path d="M404.28 373.44l-.17-1.63c-.02-.24.1-.38.35-.4l4.6-.48c.27-.03.4.1.43.34l1.2 11.6c.06.77.26 1.28.58 1.54.32.26.8.35 1.43.3l1.16-.13c1-.1 1.6.62 1.75 2.15.1.9.04 1.5-.17 1.84-.2.34-.57.53-1.1.6l-3.94.38c-1.24.13-2.23.03-2.96-.3-.73-.3-1.27-1-1.6-2.05-.5.5-1.12.9-1.83 1.2-.7.3-1.46.5-2.26.58-.98.1-1.94.06-2.86-.13-.92-.2-1.76-.53-2.5-1.04-.74-.5-1.35-1.2-1.84-2.1-.48-.9-.8-2-.93-3.34-.14-1.52-.05-2.8.28-3.83.34-1.05.84-1.9 1.5-2.57s1.44-1.16 2.33-1.5c.9-.33 1.84-.54 2.8-.64l3.78-.38zm-8.16-3.9c-.25 0-.4-.1-.42-.35l-.38-3.72c-.02-.25.1-.4.34-.42l3.8-.4c.24 0 .38.1.4.36l.38 3.7c.02.26-.1.4-.34.42l-3.78.4zm6.1 14.77c.95-.1 1.68-.44 2.2-1.04.5-.6.7-1.48.6-2.64l-.28-2.6-3.02.3c-.96.1-1.7.4-2.24.92-.53.5-.74 1.37-.6 2.58.1 1.04.46 1.73 1.08 2.1.62.34 1.37.48 2.25.4zm-.28-15.37c-.25.03-.4-.08-.4-.34l-.4-3.7c-.02-.27.1-.4.35-.43l3.8-.4c.25 0 .4.1.42.35l.38 3.7c.02.26-.1.4-.34.42l-3.82.4z"/>
        <path d="M417.32 372.76c-.04-.25.07-.4.32-.44l4.54-.74c.25-.04.4.07.43.3l1.46 8.87c.15.6.5 1.06 1.05 1.35.56.28 1.27.36 2.14.2l.87-.13c.5-.1.9.03 1.22.34.3.32.52.87.65 1.67.25 1.53-.13 2.37-1.13 2.54-.94.16-1.8.18-2.52.07-.74-.1-1.4-.52-2.02-1.25-.27.87-.78 1.48-1.53 1.83-.75.35-1.82.65-3.2.87l-3.86.63c-.5.08-.88 0-1.2-.3-.3-.26-.5-.82-.65-1.67-.14-.85-.1-1.47.06-1.86.2-.4.55-.63 1.07-.7l2.33-.4c.8-.12 1.27-.43 1.4-.93.12-.5.1-1.32-.1-2.44l-1.27-7.8zm1.42 23.5c-.25.04-.4-.06-.44-.3l-.6-3.7c-.04-.24.06-.4.3-.43l3.76-.6c.25-.05.4.05.44.3l.6 3.68c.04.26-.06.4-.3.45l-3.76.6zm5.77-.94c-.24.03-.38-.07-.42-.32l-.6-3.68c-.05-.25.06-.4.3-.43l3.8-.63c.25-.04.4.06.44.3l.6 3.7c.04.24-.06.38-.3.43l-3.8.62z"/>
        <path d="M436.56 368.02c1.27-.3 2.44-.4 3.5-.35 1.1.05 2.05.26 2.9.62.83.36 1.53.9 2.1 1.6.56.7.96 1.57 1.2 2.6.26 1.17.23 2.28-.1 3.32-.33 1.05-.86 1.97-1.56 2.76l.6-.18.6-.14 3.8-.87c.5-.12.9-.05 1.2.2.33.25.6.8.8 1.68.18.84.2 1.45.04 1.84-.16.4-.5.64-1.02.76l-5.52 1.27c-.9.2-1.73.36-2.54.46-.8.12-1.62.04-2.44-.25-.7.64-1.53 1.1-2.44 1.38-.9.3-1.72.52-2.44.68l-5.37 1.24c-.52.12-.94.03-1.25-.26-.3-.3-.57-.86-.76-1.7-.2-.8-.2-1.38-.04-1.77.16-.38.5-.63 1.02-.75l5.04-1.15c-.97-.38-1.83-.97-2.57-1.77-.73-.8-1.24-1.8-1.5-2.95-.24-1.04-.26-2-.06-2.88.2-.87.6-1.66 1.2-2.35.6-.7 1.36-1.3 2.3-1.82.96-.52 2.06-.92 3.32-1.2zm-2.94-2.6c-.24.05-.4-.04-.45-.3l-.83-3.62c-.06-.25.04-.4.28-.46l4.6-1.05c.24-.07.4.03.45.27l.84 3.64c.07.25-.03.4-.28.46l-4.6 1.06zm3.78 6.27c-.8.17-1.43.58-1.92 1.2-.5.65-.62 1.5-.37 2.6.27 1.13.78 1.97 1.53 2.5.75.56 1.58.94 2.48 1.14.74-.58 1.32-1.27 1.75-2.1.44-.8.52-1.8.27-2.93-.25-1.07-.74-1.8-1.47-2.14-.73-.36-1.48-.44-2.25-.27z"/>
        <path d="M451.27 365.3c-.07-.25.02-.4.26-.48l4.4-1.3c.25-.08.4 0 .48.25l2.56 8.6c.23.6.63 1 1.2 1.2s1.3.2 2.16-.05l.84-.25c.48-.14.9-.08 1.24.2.35.26.63.78.86 1.55.44 1.5.17 2.37-.8 2.66-.93.27-1.76.4-2.5.38-.75 0-1.47-.34-2.16-.98-.16.9-.6 1.56-1.3 2-.7.45-1.7.87-3.05 1.27l-3.75 1.1c-.5.16-.9.1-1.23-.12-.33-.23-.62-.77-.87-1.6-.24-.82-.3-1.43-.17-1.84.13-.42.45-.7.96-.85l2.26-.67c.77-.23 1.2-.6 1.26-1.1.06-.52-.07-1.32-.4-2.4l-2.25-7.6zm4.35 23.13c-.24.07-.4-.02-.47-.26l-1.06-3.57c-.1-.24 0-.4.24-.47l3.65-1.08c.23-.07.38 0 .46.25l1.06 3.58c.07.24-.02.4-.26.47l-3.64 1.08zm5.62-1.66c-.25.07-.4-.02-.48-.26l-1.06-3.56c-.07-.25 0-.4.26-.48l3.68-1.1c.24-.05.4.03.48.27l1.05 3.58c.08.25 0 .4-.25.48l-3.7 1.1zm1.67-25.2c-.08-.24 0-.4.24-.5l4.3-1.6c.25-.08.4 0 .5.24l.4 1.07c.9-.88 1.95-1.73 3.1-2.54 1.16-.82 2.44-1.5 3.85-2 2.88-1.08 5.34-1.2 7.35-.37 2 .82 3.56 2.72 4.65 5.7l.16.42c.05.15.1.28.1.4.26.56.7.92 1.3 1.1.6.16 1.3.1 2.15-.2l.8-.3c.47-.18.9-.15 1.25.1.36.24.68.75.96 1.5.54 1.46.33 2.36-.62 2.7-1.02.4-1.96.57-2.8.54-.87-.02-1.68-.4-2.45-1.14-.2 1.1-.72 1.97-1.6 2.63-.88.67-2.13 1.3-3.77 1.9l-6.9 2.55c-.34.13-.72.27-1.12.4-.4.14-.78.24-1.16.32-.37.1-.72.14-1.04.15-.3 0-.57-.06-.76-.2-.28.47-.67.85-1.16 1.14-.5.27-1.13.56-1.92.85l-3.17 1.18c-.48.18-.9.16-1.24-.05-.35-.2-.68-.73-1-1.56-.32-.9-.43-1.54-.32-1.9.1-.34.44-.6.96-.8l1.43-.53c.35-.14.6-.32.75-.54.14-.23.2-.5.2-.78-.02-.3-.08-.64-.2-1.02-.1-.4-.26-.82-.42-1.27l-2.8-7.57zm13.02-.68c-1.2.43-2.3 1.03-3.33 1.8-1.04.75-1.95 1.5-2.73 2.25l1.48 4c.1.26.18.5.25.73l.2.68 7.05-2.6c.9-.33 1.6-.6 2.14-.87.53-.26.92-.54 1.16-.85.23-.3.34-.68.3-1.12-.05-.44-.2-1.02-.46-1.73-.24-.65-.52-1.2-.85-1.64-.33-.44-.73-.77-1.2-1-.47-.2-1.03-.3-1.7-.24-.65.05-1.43.24-2.33.58z"/>
        <path d="M493.67 366.94c-.47.2-.85.26-1.15.2-.3-.08-.56-.36-.76-.85-.12-.3-.22-.62-.3-1-.1-.37-.14-.73-.16-1.08-.03-.35 0-.66.1-.95.1-.28.26-.48.52-.58l1.23-.52c.58-.24.95-.56 1.1-.94s.1-.92-.2-1.62l-7.2-17.43c-.1-.24-.02-.4.2-.5l4.3-1.78c.23-.1.4-.03.5.2l7.9 19.12c.63 1.52.77 2.77.43 3.75-.33.97-1.24 1.76-2.72 2.37l-3.8 1.57zm16.86-7.46c.1.23.03.4-.2.5l-4.24 1.8c-.24.1-.4.02-.5-.2l-9.8-23.1c-.1-.25-.03-.4.2-.5l4.24-1.8c.22-.1.4-.04.5.2l9.8 23.1zm7.02-25.8c-.24.1-.4.03-.5-.2l-1.43-3.45c-.1-.23-.02-.4.2-.5l3.53-1.45c.23-.1.4-.03.5.2l1.42 3.45c.1.23.02.4-.2.5l-3.52 1.45zm8.93 1.4l-.63-1.5c-.1-.24-.02-.4.2-.5l4.3-1.78c.23-.1.4-.02.5.2l4.45 10.8c.3.7.63 1.13 1 1.3.4.15.88.1 1.46-.14l1.1-.45c.93-.38 1.7.15 2.28 1.57.35.82.46 1.43.36 1.8-.1.4-.4.7-.9.9l-3.65 1.5c-1.14.48-2.12.67-2.9.57-.8-.1-1.5-.6-2.14-1.52-.33.64-.8 1.2-1.4 1.7-.58.48-1.25.88-2 1.2-.92.37-1.84.6-2.78.7-.94.07-1.84-.02-2.7-.3-.84-.28-1.63-.77-2.35-1.5-.73-.7-1.34-1.68-1.86-2.93-.57-1.4-.84-2.66-.82-3.76.03-1.1.26-2.05.7-2.88.44-.83 1.04-1.53 1.8-2.1.77-.58 1.6-1.05 2.5-1.42l3.5-1.45v-.02zm-3.52-3.64c-.24.1-.4.03-.5-.2l-1.43-3.45c-.1-.24-.02-.4.2-.5l3.56-1.48c.22-.1.4-.02.5.2l1.4 3.45c.1.24.04.4-.2.5l-3.54 1.47zm4.66 14.65c.9-.38 1.5-.92 1.8-1.64.33-.72.27-1.62-.18-2.7l-1-2.43-2.8 1.17c-.9.37-1.53.87-1.9 1.52-.36.64-.3 1.53.15 2.65.4.96.93 1.52 1.64 1.68s1.46.08 2.28-.26z"/>
        <path d="M539.34 326.52c-.24.1-.4.02-.5-.22l-1.28-3.5c-.1-.24 0-.4.23-.5l3.55-1.3c.24-.1.4-.02.5.22l1.28 3.5c.1.24 0 .4-.22.5l-3.56 1.3zm5.56 1.35c1.22-.45 2.36-.7 3.44-.8 1.07-.1 2.05 0 2.93.25.88.26 1.65.7 2.3 1.32.64.63 1.15 1.44 1.52 2.44.4 1.12.5 2.22.32 3.3-.2 1.1-.6 2.07-1.2 2.94l.58-.26.6-.22 3.63-1.34c.48-.18.9-.16 1.23.05.36.2.68.73 1 1.56.28.82.38 1.43.27 1.83-.1.4-.4.7-.9.9l-5.32 1.95c-.84.32-1.67.58-2.46.8-.8.2-1.6.22-2.45.04-.64.72-1.38 1.28-2.24 1.68-.87.4-1.65.73-2.34 1l-5.17 1.9c-.5.18-.92.15-1.27-.1s-.67-.78-.97-1.6c-.27-.75-.36-1.33-.25-1.73.1-.4.4-.7.9-.9l4.86-1.78c-1-.26-1.93-.73-2.77-1.44-.84-.7-1.47-1.6-1.88-2.73-.37-1-.5-1.94-.42-2.84.1-.9.38-1.74.88-2.5.5-.77 1.2-1.47 2.07-2.1.88-.64 1.92-1.18 3.13-1.63zm-.07-3.38c-.24.08-.4 0-.5-.23l-1.28-3.5c-.1-.23 0-.4.23-.5l3.6-1.32c.24-.1.4 0 .5.23l1.28 3.5c.1.23.02.4-.22.48l-3.6 1.33zm1.38 6.9c-.75.28-1.34.77-1.74 1.46s-.42 1.56-.03 2.6c.4 1.1 1.02 1.86 1.82 2.3.82.45 1.68.72 2.6.8.65-.66 1.14-1.43 1.47-2.3.33-.86.3-1.84-.1-2.93-.4-1.05-.98-1.7-1.75-1.96-.77-.25-1.52-.24-2.26.03z"/>
        <path d="M560.43 340c-.48.14-.87.18-1.17.1s-.52-.4-.7-.9c-.08-.3-.15-.64-.22-1.02-.05-.38-.08-.74-.07-1.1 0-.34.07-.65.18-.93.1-.27.3-.45.56-.54l1.3-.4c.6-.2 1-.48 1.17-.84.2-.37.17-.92-.06-1.64l-2.76-8.57c-.08-.24 0-.4.24-.48l4.42-1.43c.24-.07.4 0 .48.25l3.32 10.3c.5 1.57.56 2.82.15 3.77-.42.95-1.38 1.66-2.9 2.16l-3.9 1.26h-.02zm5.2 6.46c-.24.08-.4 0-.47-.25l-1.15-3.53c-.07-.24 0-.4.25-.48l4.5-1.46c.23-.08.4 0 .47.24l1.15 3.55c.07.24 0 .4-.25.48l-4.5 1.46zm.03-34.85c-.07-.23.02-.4.26-.46l4.42-1.27c.24-.07.4 0 .47.26l5.24 18.1c.2.74.5 1.2.86 1.4.36.2.85.22 1.45.04l1-.28c.47-.15.9-.08 1.24.2.33.28.62.84.86 1.67.26.87.3 1.48.15 1.8-.14.35-.47.6-1 .74l-3.6 1.05c-1.53.44-2.74.4-3.6-.17-.88-.55-1.54-1.62-2-3.2l-5.74-19.87z"/>
        <path d="M602.5 328.7c-.96.2-1.8.2-2.47-.04-.7-.23-1.25-.6-1.7-1.13-.18.84-.6 1.48-1.24 1.9-.66.43-1.6.77-2.8 1.04l-1.45.3c-.97.22-1.8.2-2.5 0-.7-.24-1.27-.6-1.72-1.14-.18.87-.58 1.5-1.22 1.92-.63.4-1.58.75-2.84 1.02l-4.46.97c-.5.1-.9.04-1.2-.2-.32-.22-.56-.74-.74-1.56-.2-.87-.2-1.5-.05-1.94.16-.42.5-.7 1.02-.8l2.5-.54c.7-.15 1.13-.43 1.25-.84.12-.4.08-1.08-.13-2.05l-1.2-5.56c-.07-.25.03-.4.28-.46l4.54-.98c.24-.05.4.05.44.3l1.32 6.1c.18.78.54 1.26 1.1 1.43.55.16 1.12.18 1.72.05.47-.1.84-.23 1.1-.4.27-.15.44-.35.52-.57.08-.22.1-.5.07-.84-.04-.35-.1-.76-.22-1.26l-1.17-5.46c-.06-.25.04-.4.3-.45l4.52-1c.25-.05.4.05.45.3l1.32 6.05c.18.85.55 1.34 1.12 1.5.56.14 1.16.15 1.8 0 .48-.1.83-.22 1.05-.38.22-.15.37-.34.45-.58.08-.25.1-.54.05-.88-.05-.34-.13-.75-.23-1.25l-1.76-8.1c-.05-.25.06-.4.3-.45l4.53-.98c.25-.06.4.04.45.3l1.9 8.76c.2.6.56 1.04 1.12 1.3.56.25 1.27.28 2.14.1l.86-.2c.5-.1.9 0 1.23.3.32.28.57.82.74 1.62.33 1.5 0 2.37-1 2.58-.94.2-1.78.27-2.52.2s-1.44-.45-2.07-1.15c-.2.8-.6 1.4-1.2 1.8-.62.4-1.36.7-2.23.9l-2.04.44z"/>
        <path d="M623.88 325.57c-1.33.17-2.58.16-3.74-.04-1.17-.2-2.18-.67-3.04-1.43-.22.5-.54.9-.96 1.23-.4.34-.85.6-1.33.8-.46.2-.93.36-1.4.46-.48.1-.9.16-1.28.2-.5.07-.9-.04-1.2-.34-.3-.3-.48-.85-.6-1.68-.1-.86-.07-1.48.1-1.86.2-.38.56-.6 1.12-.68l1.1-.14c.57-.07 1.06-.38 1.46-.92.4-.53.55-1.46.44-2.77l-.1-.75c-.32-2.5.14-4.53 1.4-6.06 1.26-1.54 3.23-2.48 5.9-2.82 2.53-.32 4.65.13 6.34 1.35 1.7 1.23 2.72 3.28 3.1 6.14 0 .18.03.35.04.5 0 .18.02.34.04.5.15.8.47 1.4.95 1.73.5.33 1.05.46 1.7.37l1.1-.14c.5-.06.9.06 1.2.38.3.33.5.9.6 1.7.2 1.53-.2 2.37-1.22 2.5-.45.06-.92.1-1.4.12-.48.02-.96 0-1.43-.1s-.93-.27-1.37-.5c-.43-.24-.84-.6-1.2-1.06-.64 1-1.5 1.76-2.6 2.28-1.1.5-2.33.85-3.7 1.03zm-1.57-12.22c-2.05.26-2.92 1.66-2.6 4.2.2 1.44.58 2.4 1.16 2.9.6.5 1.4.7 2.43.55 1.05-.13 1.8-.52 2.22-1.14.43-.63.56-1.67.37-3.1-.34-2.54-1.53-3.68-3.6-3.4z"/>
        <path d="M635.24 324c-.5.03-.9-.03-1.16-.18-.27-.16-.42-.5-.47-1.03 0-.32 0-.66.03-1.04.03-.4.1-.75.18-1.1.1-.32.22-.6.4-.86.17-.24.4-.37.67-.4l1.33-.1c.63-.05 1.08-.23 1.35-.55.26-.3.37-.85.3-1.6l-1.52-18.8c-.02-.26.1-.4.35-.4l4.63-.4c.26 0 .4.1.42.36l1.67 20.63c.12 1.64-.12 2.87-.74 3.7-.62.82-1.73 1.3-3.32 1.43l-4.1.33zm18.25-1.66c0 .25-.1.38-.37.4l-4.6.25c-.24 0-.38-.12-.4-.37l-1.36-25.06c0-.25.1-.4.36-.4l4.6-.25c.25 0 .4.1.4.36l1.36 25.06z"/>
      </g>
      <g fill="#FFBF00">
        <path d="M404.72 370.02l-.16-1.6c-.02-.26.08-.4.33-.42l4.55-.46c.25-.03.38.08.4.33l1.18 11.45c.07.75.27 1.25.58 1.5.33.27.8.36 1.42.3l1.15-.12c1-.1 1.57.6 1.73 2.12.1.87.03 1.48-.18 1.8-.2.35-.56.54-1.1.6l-3.87.4c-1.22.1-2.2.02-2.9-.3-.73-.3-1.26-1-1.6-2.04-.5.5-1.1.9-1.8 1.2-.7.3-1.44.5-2.23.57-.97.1-1.9.05-2.82-.13-.9-.2-1.73-.53-2.46-1.03s-1.34-1.2-1.82-2.1c-.48-.87-.78-1.97-.92-3.28-.15-1.5-.06-2.76.27-3.78.34-1.03.83-1.87 1.48-2.53.65-.64 1.42-1.13 2.3-1.46.9-.33 1.8-.54 2.75-.64l3.72-.38zm-8.04-3.86c-.25.03-.4-.08-.4-.33l-.4-3.66c0-.25.1-.38.35-.4l3.73-.4c.25 0 .4.1.4.35l.38 3.65c.02.25-.08.4-.33.4l-3.72.4zm6 14.58c.95-.1 1.68-.44 2.2-1.03.5-.58.68-1.45.57-2.6l-.27-2.57-2.98.3c-.94.1-1.68.4-2.2.9-.53.52-.74 1.36-.6 2.56.1 1 .45 1.7 1.06 2.05.6.34 1.36.48 2.23.4zm-.26-15.16c-.25.02-.38-.1-.4-.34l-.38-3.65c-.02-.26.08-.4.33-.42l3.77-.4c.25 0 .4.1.4.35l.4 3.65c0 .25-.1.4-.35.4l-3.78.4z"/>
        <path d="M417.55 369.35c-.04-.24.07-.4.32-.43l4.47-.73c.25-.05.4.06.44.3l1.42 8.74c.15.6.5 1.05 1.04 1.33s1.24.35 2.1.2l.86-.13c.5-.08.9.03 1.2.33.3.3.5.86.64 1.65.24 1.5-.13 2.34-1.12 2.5-.93.15-1.77.17-2.5.06-.72-.1-1.38-.52-1.98-1.23-.26.85-.77 1.45-1.5 1.8-.75.36-1.8.64-3.15.86l-3.83.63c-.5.08-.9 0-1.18-.28-.3-.27-.53-.82-.66-1.65-.14-.85-.12-1.45.06-1.84.18-.38.52-.62 1.04-.7l2.3-.38c.8-.13 1.24-.43 1.37-.92.13-.5.1-1.3-.08-2.4l-1.26-7.7zm1.4 23.18c-.25.04-.4-.06-.44-.3l-.6-3.64c-.03-.26.08-.4.33-.44l3.7-.6c.24-.05.4.06.43.3l.6 3.63c.03.24-.07.38-.32.42l-3.7.6zm5.7-.93c-.25.04-.4-.06-.44-.3l-.58-3.64c-.04-.25.06-.4.3-.43l3.74-.6c.25-.05.4.05.43.3l.6 3.63c.03.24-.07.4-.32.43l-3.74.6z"/>
        <path d="M436.5 364.7c1.25-.3 2.4-.4 3.47-.36 1.06.05 2 .25 2.83.62.83.36 1.52.9 2.08 1.58s.95 1.55 1.2 2.57c.25 1.16.2 2.25-.12 3.28-.32 1.04-.83 1.95-1.53 2.72.2-.07.4-.13.6-.17l.6-.14 3.73-.87c.5-.1.9-.04 1.2.2.32.26.57.8.77 1.66.2.82.2 1.42.05 1.8-.16.4-.5.63-1 .75l-5.45 1.25c-.87.2-1.7.35-2.5.46-.8.1-1.6.02-2.4-.26-.7.62-1.52 1.07-2.4 1.35-.9.28-1.7.5-2.4.67l-5.3 1.22c-.53.1-.94.03-1.25-.26-.3-.3-.56-.85-.75-1.68-.17-.77-.18-1.35-.02-1.74.16-.38.5-.63 1-.75l4.98-1.13c-.96-.37-1.8-.95-2.54-1.75-.73-.8-1.23-1.76-1.5-2.9-.22-1.02-.24-1.97-.04-2.84.2-.86.6-1.64 1.18-2.32.58-.7 1.35-1.28 2.28-1.8.92-.5 2-.9 3.25-1.17zm-2.9-2.58c-.23.05-.38-.04-.44-.28l-.82-3.6c-.05-.23.04-.38.3-.44l4.52-1.03c.24-.06.4.04.45.28l.82 3.58c.06.24-.04.4-.28.45l-4.53 1.04zm3.74 6.2c-.78.17-1.4.56-1.9 1.2-.48.6-.6 1.46-.36 2.53.26 1.12.76 1.95 1.5 2.5.73.52 1.55.9 2.44 1.1.72-.57 1.3-1.27 1.72-2.07.43-.8.52-1.76.26-2.9-.24-1.06-.72-1.77-1.44-2.12-.73-.34-1.47-.43-2.22-.25z"/>
        <path d="M451 362c-.07-.24 0-.4.25-.47l4.35-1.28c.24-.07.4 0 .47.25l2.5 8.5c.24.57.64.97 1.2 1.18.57.2 1.28.2 2.12-.06l.8-.25c.5-.14.9-.08 1.24.2.34.26.63.77.85 1.54.43 1.47.16 2.34-.8 2.63-.9.27-1.73.4-2.47.37-.73-.02-1.44-.34-2.12-.97-.15.88-.57 1.54-1.26 1.97-.7.44-1.7.86-3.02 1.25l-3.7 1.1c-.48.14-.9.1-1.2-.14-.34-.22-.63-.74-.87-1.55-.23-.8-.3-1.42-.17-1.83.14-.4.45-.68.95-.82l2.23-.66c.77-.23 1.18-.6 1.24-1.1.06-.5-.07-1.28-.4-2.36L451 362zm4.3 22.82c-.25.07-.4-.02-.48-.25l-1.04-3.53c-.07-.24 0-.4.25-.46l3.6-1.07c.24-.06.4.03.46.27l1.03 3.52c.07.23 0 .4-.25.46l-3.6 1.06zm5.52-1.64c-.24.07-.4 0-.46-.25l-1.05-3.52c-.06-.23.03-.4.27-.46l3.63-1.07c.24-.07.4 0 .46.25l1.05 3.52c.08.24 0 .4-.25.47l-3.63 1.08zm1.65-24.85c-.1-.23-.02-.4.22-.48l4.25-1.57c.23-.1.4 0 .48.22l.4 1.06c.9-.86 1.92-1.7 3.06-2.5 1.13-.82 2.4-1.48 3.78-2 2.86-1.04 5.28-1.16 7.26-.35 1.98.83 3.5 2.7 4.6 5.63l.14.43c.06.14.1.27.1.4.27.54.7.9 1.28 1.06.6.17 1.3.1 2.13-.2l.76-.28c.47-.18.88-.15 1.24.1.35.24.67.74.94 1.5.53 1.42.32 2.3-.6 2.65-1.02.36-1.95.54-2.8.5-.84 0-1.64-.38-2.4-1.12-.18 1.08-.7 1.95-1.57 2.6-.86.65-2.1 1.28-3.73 1.88l-6.8 2.5-1.1.4c-.4.12-.77.23-1.14.3-.37.1-.7.14-1.03.15-.3.02-.56-.05-.75-.2-.28.5-.66.86-1.15 1.13-.48.27-1.1.55-1.9.84l-3.12 1.15c-.47.18-.88.16-1.22-.05-.34-.2-.67-.72-.97-1.54-.33-.9-.44-1.5-.32-1.86.1-.34.42-.6.93-.8l1.4-.52c.37-.14.62-.3.75-.54.15-.2.2-.47.2-.76-.02-.3-.08-.62-.2-1-.1-.4-.25-.8-.4-1.25l-2.76-7.47zm12.82-.65c-1.18.43-2.28 1.02-3.3 1.77-1 .75-1.9 1.5-2.67 2.23l1.46 3.93.23.74.2.67 6.96-2.55c.85-.32 1.56-.6 2.1-.86.53-.26.9-.53 1.15-.83.23-.3.33-.67.3-1.1-.05-.44-.2-1-.46-1.72-.25-.63-.53-1.17-.85-1.6s-.7-.78-1.18-1c-.47-.2-1.02-.28-1.67-.23-.65.05-1.42.24-2.3.57v-.02z"/>
        <path d="M492.83 363.63c-.46.2-.84.25-1.14.2-.3-.08-.55-.36-.75-.84-.12-.3-.22-.62-.3-1-.1-.35-.15-.7-.16-1.06-.03-.34 0-.65.1-.93.08-.27.25-.46.5-.57l1.22-.5c.57-.24.94-.55 1.1-.92s.1-.9-.2-1.6l-7.1-17.18c-.1-.24-.03-.4.2-.5l4.23-1.74c.23-.1.4-.03.5.2l7.78 18.85c.62 1.5.77 2.73.44 3.7-.34.96-1.23 1.74-2.7 2.34l-3.73 1.55zm16.63-7.36c.1.23.03.4-.2.5l-4.18 1.76c-.23.1-.4.03-.5-.2l-9.65-22.78c-.1-.23-.02-.4.2-.5l4.18-1.76c.24-.1.4-.05.5.18l9.66 22.8zm6.92-25.44c-.23.1-.4.02-.5-.2l-1.4-3.4c-.1-.23-.02-.4.2-.5l3.48-1.43c.23-.1.4-.02.48.2l1.4 3.4c.1.23.03.4-.2.5l-3.46 1.43zm8.8 1.38l-.6-1.48c-.1-.23-.03-.4.2-.5l4.23-1.73c.24-.1.4-.04.5.2l4.4 10.63c.28.7.6 1.12.98 1.27.38.16.86.12 1.44-.12l1.07-.45c.92-.38 1.67.13 2.25 1.54.34.8.45 1.4.35 1.8-.1.37-.4.66-.87.86l-3.6 1.5c-1.14.45-2.1.64-2.88.55-.78-.1-1.48-.6-2.1-1.5-.34.62-.8 1.17-1.38 1.66-.6.48-1.25.88-2 1.18-.88.38-1.8.6-2.72.7-.93.08-1.82-.02-2.66-.3-.85-.26-1.63-.76-2.34-1.46-.7-.7-1.32-1.67-1.82-2.9-.58-1.38-.85-2.62-.82-3.7.02-1.08.26-2.02.7-2.84.42-.8 1-1.5 1.77-2.07.74-.57 1.55-1.04 2.43-1.4l3.46-1.44zm-3.47-3.58c-.2.1-.38.03-.48-.2l-1.4-3.4c-.1-.23-.02-.4.2-.5l3.5-1.43c.24-.1.4-.04.5.2l1.4 3.38c.1.23.03.4-.2.5l-3.5 1.44zm4.6 14.45c.9-.36 1.5-.9 1.8-1.6.3-.72.25-1.6-.2-2.67l-.97-2.4-2.77 1.15c-.88.37-1.5.86-1.86 1.5-.35.64-.3 1.5.15 2.62.4.94.93 1.5 1.62 1.66.7.16 1.44.08 2.24-.26z"/>
        <path d="M537.87 323.77c-.23.1-.4.02-.48-.22l-1.28-3.45c-.1-.23-.02-.4.22-.48l3.52-1.3c.23-.1.4 0 .48.22l1.27 3.45c.1.22.02.38-.22.47l-3.5 1.3zm5.5 1.33c1.18-.44 2.3-.7 3.37-.8 1.06-.07 2.02 0 2.9.26s1.6.7 2.25 1.3c.64.62 1.14 1.42 1.5 2.4.4 1.1.52 2.2.33 3.27-.2 1.06-.58 2.03-1.17 2.9.18-.1.36-.2.56-.26l.58-.22 3.6-1.32c.46-.18.87-.16 1.2.05.35.2.67.72.98 1.54.3.8.4 1.4.28 1.8-.1.4-.4.68-.9.86l-5.24 1.94c-.84.3-1.65.57-2.43.78-.78.2-1.6.22-2.42.05-.62.7-1.36 1.26-2.2 1.66-.87.4-1.63.73-2.3.98l-5.12 1.88c-.5.18-.9.15-1.25-.1-.33-.24-.65-.76-.95-1.56-.28-.75-.36-1.32-.26-1.72.1-.4.4-.7.9-.87l4.77-1.76c-1-.25-1.9-.72-2.73-1.4-.83-.7-1.45-1.6-1.86-2.7-.36-.98-.5-1.92-.4-2.8.07-.9.36-1.7.86-2.46s1.17-1.45 2.03-2.07c.86-.62 1.9-1.15 3.1-1.6zm-.08-3.33c-.25.1-.4 0-.5-.22l-1.27-3.45c-.08-.23 0-.4.23-.48l3.55-1.3c.24-.1.4-.03.5.2l1.26 3.46c.1.23.02.4-.22.48l-3.55 1.3zm1.35 6.8c-.75.3-1.33.77-1.73 1.45-.4.68-.4 1.54-.03 2.57.4 1.07 1 1.83 1.8 2.26.8.44 1.64.7 2.56.8.63-.67 1.1-1.43 1.44-2.28.32-.85.28-1.82-.1-2.9-.4-1.03-.97-1.67-1.72-1.92-.76-.25-1.5-.25-2.24.02z"/>
        <path d="M558.66 337.05c-.48.15-.86.2-1.15.1-.28-.1-.5-.4-.67-.9-.1-.27-.16-.6-.22-.98-.05-.37-.07-.73-.06-1.08 0-.35.06-.66.17-.93.12-.27.3-.45.57-.54l1.25-.4c.6-.2.98-.47 1.17-.83.18-.36.15-.9-.08-1.6l-2.73-8.47c-.08-.24 0-.4.23-.47l4.36-1.4c.22-.08.38 0 .46.24l3.28 10.17c.5 1.54.55 2.78.14 3.7-.4.95-1.36 1.66-2.86 2.14l-3.85 1.25zm5.14 6.38c-.24.08-.4 0-.48-.24l-1.13-3.5c-.08-.25 0-.4.24-.48l4.42-1.43c.23-.08.4 0 .47.23l1.13 3.5c.08.24 0 .4-.24.47l-4.42 1.43zm.04-34.37c-.06-.24.02-.4.26-.46l4.36-1.26c.23-.07.4.02.46.26l5.16 17.86c.2.72.5 1.18.85 1.38.35.2.83.2 1.43.03l.98-.28c.48-.15.9-.08 1.23.2.34.28.63.83.86 1.65.25.86.3 1.46.15 1.8-.16.32-.5.56-1 .7l-3.55 1.03c-1.52.44-2.7.4-3.57-.16-.85-.54-1.5-1.6-1.96-3.16l-5.66-19.6z"/>
        <path d="M600.2 325.9c-.96.2-1.78.2-2.45-.03-.67-.23-1.23-.6-1.68-1.1-.18.82-.58 1.44-1.23 1.86-.64.42-1.55.76-2.75 1.02l-1.44.3c-.95.22-1.77.2-2.46 0-.7-.24-1.25-.6-1.7-1.12-.17.85-.57 1.48-1.2 1.9-.63.4-1.56.73-2.8 1l-4.4.95c-.5.1-.9.05-1.2-.18-.3-.23-.54-.75-.72-1.55-.2-.86-.2-1.5-.05-1.9.15-.43.5-.7 1-.8l2.46-.53c.7-.16 1.1-.43 1.23-.83s.07-1.08-.13-2.03l-1.2-5.5c-.05-.24.05-.4.3-.44l4.46-.97c.25-.06.4.04.45.28l1.3 6c.18.8.54 1.27 1.08 1.43.55.17 1.12.18 1.7.06.47-.1.83-.23 1.1-.4.25-.15.42-.34.5-.56.08-.22.1-.5.07-.84-.04-.34-.1-.75-.2-1.24l-1.18-5.4c-.06-.24.04-.4.28-.45l4.48-.96c.24-.07.4.03.44.27l1.3 5.98c.18.83.55 1.32 1.1 1.46.56.16 1.15.17 1.8.03.45-.1.8-.23 1.02-.38.2-.15.36-.34.44-.57.07-.24.1-.52.04-.86-.05-.33-.12-.74-.23-1.23l-1.72-8c-.06-.24.04-.4.28-.45l4.48-.97c.25-.05.4.05.45.3l1.87 8.64c.18.6.55 1.03 1.1 1.28s1.26.28 2.1.1l.86-.2c.5-.1.9 0 1.2.3.33.28.57.8.74 1.6.32 1.48 0 2.33-.98 2.55-.93.2-1.76.26-2.5.2-.72-.08-1.4-.46-2.04-1.14-.2.8-.58 1.38-1.2 1.78-.6.4-1.32.7-2.18.88l-2 .43z"/>
        <path d="M621.25 322.82c-1.32.17-2.55.16-3.7-.03-1.14-.2-2.14-.68-3-1.42-.2.48-.52.9-.93 1.22-.4.33-.85.6-1.32.8-.46.2-.93.33-1.4.43-.46.1-.88.17-1.25.22-.5.06-.9-.05-1.18-.34s-.48-.83-.6-1.65c-.1-.85-.07-1.45.1-1.83.2-.38.55-.6 1.1-.67l1.07-.14c.57-.06 1.06-.36 1.45-.9.4-.52.54-1.44.42-2.73l-.1-.75c-.3-2.48.15-4.47 1.4-5.98 1.23-1.5 3.17-2.43 5.8-2.77 2.5-.32 4.6.13 6.26 1.34 1.67 1.22 2.7 3.23 3.05 6.06l.04.5c0 .17.02.33.04.47.17.82.48 1.4.95 1.72.47.33 1.03.45 1.67.37l1.08-.14c.5-.06.9.06 1.2.38.28.3.48.87.58 1.66.2 1.5-.2 2.33-1.2 2.46-.44.06-.9.1-1.38.12-.48.02-.94 0-1.4-.1-.48-.1-.92-.26-1.36-.5-.44-.23-.83-.57-1.2-1.03-.62 1-1.48 1.73-2.56 2.24-1.08.5-2.3.85-3.63 1.02zm-1.55-12.05c-2.04.27-2.9 1.65-2.57 4.15.2 1.42.56 2.37 1.15 2.86.58.5 1.37.68 2.4.55 1.03-.14 1.76-.52 2.2-1.14.4-.63.54-1.65.35-3.06-.32-2.5-1.5-3.62-3.53-3.36z"/>
        <path d="M632.47 321.27c-.5.04-.88-.02-1.14-.17-.26-.16-.42-.5-.46-1.02-.02-.3-.02-.64 0-1.02s.1-.73.2-1.07c.08-.34.2-.63.38-.86.17-.24.4-.37.66-.4l1.32-.1c.62-.05 1.07-.23 1.33-.54.26-.3.36-.84.3-1.6l-1.5-18.53c-.02-.25.1-.38.35-.4l4.56-.37c.25-.02.4.1.4.34l1.65 20.33c.14 1.62-.1 2.84-.7 3.65-.62.82-1.7 1.3-3.28 1.42l-4.04.32zm18-1.63c.02.25-.1.38-.35.4l-4.53.24c-.26.02-.4-.1-.4-.35l-1.36-24.7c0-.26.1-.4.35-.4l4.52-.25c.25-.02.38.1.4.35l1.35 24.7z"/>
      </g>
    </g>
    <g>
      <path fill="none" stroke="#000" stroke-width="3.56" stroke-miterlimit="10" d="M162.3 498.58s62.26 203.36 62.26 204.72"/>
      <path fill="#DC4C1A" d="M304.13 515.17l-24.85 22.93-119.15-45.3"/>
      <path fill="#FFF" d="M279.28 538.1l-50.48 23.42-68.67-68.72"/>
      <path fill="#DC4C1A" d="M52.47 588l33.26 6.12 74.4-101.32"/>
      <path fill="#FFF" d="M85.73 593.23l55.18-7.16 19.25-93.24"/>
      <path fill="#DC4C1A" d="M228.77 561.98l-87.14 24.77 18.5-93.95"/>
      <path d="M160.6 493.3s67.52 23.08 79.1 62.5l36.9-17.7 25.75-22.93L160.6 493.3z" opacity=".1"/>
    </g>
  </g>
  <g opacity=".7">
    <path fill="#DBA142" d="M479.16 240.18l1.5.8 5.54-5.74-1.5-.8M514.38 230.5l-1.1 1.16 7.44 4.03 1.1-1.16M500.7 244.2l2.33-.3-1.36-7.05-2.34.3M518.22 219.03l.23 1.17 8.58-1.13-.23-1.17M469.07 225.52l.23 1.17 7.8-1.04-.22-1.17M472.65 233.8l.97 1.17 7.14-3.73-.96-1.17M509.72 234.64l-1.6.76 4.86 5.88 1.58-.76M490.8 243.92l1.8.28 2.2-6.86-1.8-.3M518.32 224.44l-.43 1.37 8.23 1.56.44-1.37"/>
    <path fill="none" stroke="#DBA142" stroke-width="1.37" stroke-miterlimit="10" d="M525.84 218.96c2.38 12.3-8.57 23-24.24 25.08-15.67 2.07-29.07-5.4-31.44-17.7"/>
    <path fill="none" stroke="#DBA142" stroke-width="1.37" stroke-miterlimit="10" d="M518.52 219.03c1.77 9.13-6.43 16.85-18.07 18.38-11.64 1.55-21.6-3.7-23.36-12.83"/>
    <path fill="#FFF" d="M518.4 218.44c1.78 9.14-6.42 16.85-18.06 18.4-11.64 1.53-21.6-3.72-23.36-12.85"/>
  </g>
  <g>
    <path fill="#DDA37C" d="M446.05 193.14c-4.06.54-7.86-2.84-8.5-7.56-.6-4.7 2.17-8.97 6.23-9.5"/>
    <path d="M538 177.2c3.65 27.34-13.5 52.17-38.93 55.55-25.44 3.4-48.5-16.1-52.12-43.43l-2.3-17.2c-3.64-27.34 13.52-52.17 38.95-55.55 25.44-3.38 48.5 16.1 52.12 43.43l2.3 17.2z" opacity=".1"/>
    <path fill="#FBD099" d="M541.23 173c3.63 27.34-15.33 52.42-42.66 56.05-27.33 3.64-52.18-15.6-55.82-42.93l-2.3-17.22c-3.63-27.33 15.33-52.4 42.66-56.04 27.34-3.63 52.2 15.6 55.83 42.94l2.3 17.2z"/>
    <path fill="#F2C38F" d="M484.13 112.73c-1 .13-2.07.32-3.04.5 21.4 5.24 37.8 22.25 40.73 44.25l2.44 18.38c2.93 22-8.47 42.7-27.75 53.36 1-.07 2.02-.17 3.02-.3 27.33-3.63 46.06-28.67 42.42-56l-2.3-17.22c-3.62-27.33-28.2-46.6-55.53-42.97z"/>
    <path fill="#DDA37C" d="M548.07 170.88c-.56-4.3-4.34-7.4-7.4-7.6l-1-7.58c-3.63-27.33-28.2-46.6-55.54-42.97-1.08.14-2.26.35-3.3.56 26-1.78 48.7 17.04 52.18 43.3l2.3 17.2c3.5 26.25-13.5 50.35-39.05 55.45 1.07-.08 2.2-.18 3.3-.32 24.84-3.3 42.56-24.3 42.84-48.64 3.74-.84 6.27-4.92 5.68-9.42z"/>
    <path fill="#99492C" d="M509.8 197.15c1.08 8.23-4.7 15.8-12.95 16.9-8.23 1.1-15.8-4.7-16.9-12.94"/>
    <path fill="#FFF" d="M509.75 196.9c.17 1.26.2 2.7 0 3.47l-29 3.86c-.3-.7-.66-2.14-.84-3.5"/>
    <circle cx="515" cy="171.89" r="7.13" fill="#FFF"/>
    <path d="M514.43 167.67c-.35.05-.7.14-1.02.26.24.28.4.62.45 1 .15 1.07-.6 2.05-1.68 2.2-.48.06-.95-.06-1.33-.3-.14.53-.2 1.1-.1 1.68.3 2.36 2.47 4.02 4.83 3.7 2.35-.3 4-2.47 3.7-4.83-.3-2.36-2.48-4.02-4.84-3.7z"/>
    <circle cx="468.06" cy="178.14" r="7.13" fill="#FFF"/>
    <path d="M467.5 173.9c-.36.06-.7.15-1.02.28.23.27.4.6.44 1 .14 1.06-.6 2.05-1.68 2.2-.5.06-.96-.06-1.34-.3-.14.52-.18 1.1-.1 1.67.3 2.36 2.47 4 4.83 3.7 2.36-.3 4.02-2.48 3.7-4.83-.3-2.37-2.47-4.02-4.83-3.7z"/>
    <path fill="#6B3815" d="M530.45 137.34l3.05 22.92c5.1-1.34 8.35-5.2 7.8-9.26l-1.97-14.84-8.88 1.18zM451.3 169.37c-4.8 4.48-13.5 3.07-15.58-5.02-13.35-42.2 9.67-47.12 9.67-47.12l-3.44-1.63c4.42-3.18 9.6-2.96 14.26-.75 19.05 8.16 8 42.9-4.92 54.52z"/>
    <path fill="#4F260B" d="M458.65 117.6l-2.24 7.95c10.1 22.13-2.44 41.25-2.44 41.25 7.52-8.1 20.5-34.1 4.7-49.2z"/>
    <path fill="#6B3815" d="M490.07 150.56l3.7 4.58c-46.02-7.9-40.08-40.05-37.6-45.32 2.5-5.28 7.4-10.48 13.66-14.12l-.43 3.74c15.62-7.93 36.27-4.94 48.1 1.7 4.02 2.24 7.93 4.67 11.9 7 6.73 3.92 14.2 5.25 22.53 5.12-3.05 6.27-11.85 12.28-11.85 12.28l9.7 2.76s-19.27 25.47-59.7 22.27z"/>
    <path fill="#4F260B" d="M526.33 114.46s13.45 5.26 25.4-.78c0 0-2.92 5.38-11.46 12.1 0 0-9.4-3.04-13.94-11.32zm-44.5 19.8s20.04 18.56 43.88 11.2c0 0-19.7 8.05-35.87 4.92 0 0-7.37-8.16-8-16.12z"/>
    <g opacity=".3">
      <path fill="#4F260B" d="M465.27 143.2c-2.35 10.33-7.9 20.65-13.87 26.08.27-.18.53-.36.78-.56 5.95-4.55 11.64-13.1 14.24-21.36 5.15 4.14 13.2 7.73 25.5 9.7l-2.5-2.78c-11.13-2.46-18.86-6.46-24.15-11.1zm75.33-17.7l-.15.14c.18.05.44.13.75.2l.16-.32h-.76zm-14.9 19.96s-18.37 7.5-34.2 5.2l-1.43-.1 2.4 3c29.37 1.03 44-12.42 47.47-16.17-3.86 2.82-8.88 5.84-15.08 8.3.3-.1.56-.15.85-.24z"/>
    </g>
    <g>
      <path d="M539.04 157.87c-10.62-1.2-28.4 1.04-38.3 5.55-3.32 1.53-5.84 3.15-10.17 3.75-4.33.55-7.18-.36-10.8-.95-10.72-1.78-28.47.72-38.4 4.65.05 1.7.2 3.6 1.15 5.12.7 1.1 1.88 1.34 2.64 1.9 1.27.96 3.56 5.3 4.08 6.56.97 2.36 1.86 4.84 3.25 7 .67 1.02 1.46 1.97 2.52 2.6 2.7 1.68 7.16 2.22 10.82 2.02 13.26-.76 17.7-5.8 20.35-14.42 1.1-3.55 1.68-7.98 4.58-8.64.2-.05.38-.08.56-.1.2-.03.38-.05.57-.05 3-.12 4.72 4 6.7 7.14 4.8 7.63 10.42 11.34 23.42 8.6 3.58-.76 7.74-2.44 9.92-4.76.85-.9 1.37-2.02 1.75-3.2.77-2.43.98-5.06 1.3-7.6.18-1.34 1.25-6.13 2.23-7.38.6-.75 1.67-1.3 2.05-2.55.5-1.68.16-3.56-.24-5.23zm-55.48 19.55c.12 4.87-2.92 11.9-7.1 14.03-5.4 2.77-17.73 3.56-21.13-.18-2.75-3-7.18-15.43-3.7-19.25.83-.9 2.18-1.05 3.48-1.38 5.15-1.3 10.88-1.6 15.4-1.6 5.74.02 12.86.38 13.06 8.38zm47.33 3.8c-2.32 4.5-14.42 6.96-20.37 5.7-4.57-.98-9.35-6.96-10.5-11.7-1.9-7.77 4.88-9.98 10.4-11.48 4.37-1.2 9.98-2.4 15.28-2.5 1.35 0 2.7-.24 3.74.43 4.34 2.78 3.32 15.92 1.45 19.55z" opacity=".25"/>
      <path d="M538.74 155.65c-10.6-1.2-28.4 1.03-38.28 5.55-3.34 1.52-5.85 3.15-10.18 3.75-4.33.55-7.18-.36-10.8-.96-10.72-1.78-28.47.72-38.4 4.64.05 1.72.2 3.62 1.14 5.13.7 1.1 1.88 1.35 2.65 1.92 1.27.94 3.56 5.3 4.07 6.54.97 2.36 1.86 4.84 3.26 7 .67 1.02 1.47 1.96 2.52 2.6 2.7 1.68 7.16 2.22 10.83 2.02 13.25-.76 17.7-5.8 20.35-14.42 1.1-3.56 1.68-7.98 4.6-8.65.18-.05.37-.08.55-.1.18-.03.37-.05.57-.06 2.97-.1 4.7 4 6.7 7.15 4.8 7.6 10.4 11.33 23.4 8.58 3.6-.75 7.74-2.44 9.92-4.76.85-.9 1.37-2.02 1.75-3.2.78-2.43 1-5.06 1.3-7.6.18-1.34 1.25-6.13 2.23-7.38.6-.75 1.67-1.3 2.05-2.55.5-1.7.16-3.58-.24-5.25zm-55.48 19.54c.13 4.87-2.92 11.9-7.08 14.03-5.4 2.77-17.74 3.56-21.14-.18-2.75-3-7.18-15.43-3.7-19.25.83-.9 2.17-1.05 3.48-1.38 5.13-1.3 10.87-1.6 15.4-1.6 5.72.02 12.84.37 13.04 8.38zm47.34 3.8c-2.3 4.5-14.42 6.96-20.36 5.7-4.58-.98-9.35-6.96-10.5-11.7-1.9-7.77 4.87-9.97 10.4-11.48 4.36-1.2 9.98-2.4 15.28-2.5 1.34-.02 2.68-.24 3.72.43 4.35 2.78 3.33 15.92 1.46 19.55z"/>
      <path fill-opacity=".95" stroke="#000" stroke-width="1.49" stroke-miterlimit="10" d="M530.6 179c-2.3 4.5-14.42 6.96-20.36 5.7-4.58-.98-9.35-6.96-10.5-11.7-1.9-7.77 4.87-9.97 10.4-11.48 4.36-1.2 9.98-2.4 15.28-2.5 1.34-.02 2.68-.24 3.72.43 4.35 2.78 3.33 15.92 1.46 19.55zm-47.34-3.8c.13 4.87-2.92 11.9-7.08 14.03-5.4 2.77-17.74 3.56-21.14-.18-2.75-3-7.18-15.43-3.7-19.25.83-.9 2.17-1.05 3.48-1.38 5.13-1.3 10.87-1.6 15.4-1.6 5.72.02 12.84.37 13.04 8.38z" stroke-linejoin="round"/>
      <defs>
        <path id="e" d="M528.26 160.58c-1.02-.62-2.32-.4-3.63-.37-5.16.12-10.64 1.28-14.9 2.42-4.47 1.2-9.87 2.15-10.43 7.5l-16.3 2.16c-1.92-5-7.4-4.53-12.02-4.5-4.4 0-10 .32-15 1.56-1.28.32-2.6.45-3.4 1.3-3.4 3.6.84 15.16 3.5 17.95 3.3 3.46 15.3 2.52 20.57-.1 3.22-1.6 5.82-5.6 6.62-10.22l17.35-2.3c2 4.25 5.55 7.42 9.07 8.12 5.77 1.15 17.6-1.15 19.87-5.36 1.83-3.4 2.9-15.6-1.3-18.17z"/>
      </defs>
      <clipPath id="f">
        <use xlink:href="#e" overflow="visible"/>
      </clipPath>
      <path fill="#FFFFC7" d="M452.26 193.53l9.4 3.48 15.37-38.4-9.38-3.47m34.96 31.7l9.4 3.48 15.4-38.4-9.4-3.47" opacity=".3" clip-path="url(#f)"/>
    </g>
  </g>
  <g>
    <path fill="#FDB62E" d="M312.3 263l4.84 88.3 24.83-1.2-4.86-88.3"/>
    <path fill="#B02100" d="M312.3 262.1l.48 9.62 25.1 2.37-.64-13.2m-20.77 75.16l.34 6.92 25.1 2.37-.5-10.5" opacity=".2"/>
    <path fill="#FFAF24" d="M353.8 170.62l.3 6.28 32.3-1.57c1.64 33.7-16.73 51.42-29.52 58.63l.37 7.52s38.94-12.7 36-72.78l-39.46 1.93z"/>
    <path fill="#B02100" d="M370.1 223.56c-4.42 4.67-9.1 8.08-13.22 10.4l.37 7.52s5.3-1.73 11.84-6.92c.8-3.53 1.16-7.2 1-11zm-16.3-52.94l.3 6.28 13.7-.67-.32-6.28-13.68.67z" opacity=".2"/>
    <path fill="#FFAF24" d="M286.52 173.9l.3 6.28-32.28 1.58c1.64 33.7 21.65 49.55 35.07 55.48l.38 7.52s-40-8.84-42.92-68.93l39.46-1.93z"/>
    <path fill="#B02100" d="M275.46 228.17c4.84 4.23 9.84 7.16 14.15 9.07l.38 7.52s-5.44-1.2-12.46-5.74c-1.15-3.43-1.87-7.06-2.06-10.85zm11.06-54.27l.3 6.28-13.68.67-.3-6.28 13.68-.67z" opacity=".2"/>
    <path fill="#FFAF24" d="M278.64 164.4l3.1 63.32c1.08 22.5 20.2 39.83 42.7 38.74l.63-.03c22.5-1.1 39.84-20.22 38.73-42.7l-3.08-63.33-82.08 4z"/>
    <path fill="#FFE69E" d="M297.87 226.93l-3.1-63.32-16.13.8 3.08 63.32c1.1 22.5 20.22 39.84 42.7 38.74l.65-.03c2.65-.13 5.23-.52 7.72-1.13-18.97-2.7-33.96-18.53-34.93-38.37z" opacity=".3"/>
    <path fill="#B02100" d="M357.13 160.57l2.13 43.6c1.1 22.48-16.25 41.6-38.74 42.7l-.64.03c-16.53.8-31.24-8.36-38.3-22.2l.14 3.02c1.1 22.5 20.22 39.83 42.7 38.74l.65-.03c22.48-1.1 39.84-20.22 38.73-42.7l-3.08-63.33-3.6.17z" opacity=".1"/>
    <path fill="#B02100" d="M279.28 168.86l81.88.5-.75-15.25-81.65 4" opacity=".07"/>
    <path fill="#FFAF24" d="M369.5 160.87l-99.56 4.86-.52-10.77 99.56-4.85.52 10.77zm-1.4 218.08l-72.65 3.55-1.7-34.98 72.64-3.55 1.7 34.98z"/>
    <path fill="#B02100" d="M368.1 378.94l-4.47.22-1.7-34.98 4.48-.22 1.7 34.98z" opacity=".1"/>
    <path fill="#FFAF24" d="M382.64 382.3h-.15c-.76-2.8-3.36-4.8-6.37-4.64l-88.8 4.32c-3 .15-5.4 2.4-5.88 5.24h-.16l.23 4.94 101.36-4.94-.25-4.93z"/>
    <path fill="#FFE69E" d="M311.85 381.7l-16.4.8-1.7-35 16.4-.8 1.7 35z" opacity=".4"/>
    <path fill="#B02100" d="M382.88 387.22l-.2-4.5-3.14.16 3.05-.14c-.6-3.02-3.3-5.23-6.47-5.08l-5.4.26c3.18-.15 5.9 2.06 6.48 5.08h.1l.2 4.48 5.38-.26z" opacity=".1"/>
    <path fill="#FFF" d="M356.93 371.42l-52.02 2.53-.95-19.73 52.02-2.53.96 19.72z"/>
    <path fill="#FFE69E" d="M302.84 386.62l-.27-5.38-15.24.74c-3.16.16-5.66 2.63-5.95 5.7h-.07l.23 4.48 21.53-1.05-.22-4.48z" opacity=".4"/>
    <path fill="none" stroke="#FFF3E1" stroke-width="3" stroke-miterlimit="10" d="M287.6 190l2.8 40.87s.2 14.32 7.17 17.32m-10.78-65.33l-.33-4.46" stroke-linecap="round"/>
    <defs>
      <path id="g" d="M426.25 303.92c1.8-13.9-10.74-31.4-13.26-33.75 7.02-3.54 12.4-7.18 16.8-10.8l-5.27-175.2-279.87 8.45 13.4 444.8 279.88-8.44-6.83-226.6-4.85 1.54z"/>
    </defs>
    <clipPath id="h">
      <use xlink:href="#g" overflow="visible"/>
    </clipPath>
    <g clip-path="url(#h)">
      <path fill="#FBD099" d="M344.5 325.8c-11.5 2.48-21.24-5.53-20.7-18.52.55-13.46 11.73-25.08 23.8-25.48 45.72-1.52 66.18 6.92 86.1-20.28 4.46-6.1 7.36-8.94 8.98-5.07 1.73 4.1 1.8 9.5-2.06 16.18-19.8 31.13-47.68 41.32-96.13 53.17z"/>
      <path fill="#DDA37C" d="M369.28 297.1c32.02-5.3 45.36-3.6 63.7-22.95 3.35-5.42 5.64-8.37 7-6.6 1.7-4.03 2.57-7.47 1.67-10.23-1.23-3.78-5.28.83-9.32 6.76-13.73 20.16-35.25 19.03-66.55 18.6-17.73-.84-12.7 10.37-13.64 22.35-.32 4.08 1.77 14.92 1.78 17.98.48-.3 4.23-.64 4.66-.87 1.13-.6-3.14-7.7-2.92-7.86 10.64-7.47 4.9-15.74 13.62-17.18z" opacity=".3"/>
    </g>
    <g>
      <defs>
        <path id="i" d="M426.25 303.92c1.8-13.9-10.74-31.4-13.26-33.75 7.02-3.54 12.4-7.18 16.8-10.8l-5.27-175.2-279.87 8.45 13.4 444.8 279.88-8.44-6.83-226.6-4.85 1.54z"/>
      </defs>
      <clipPath id="j">
        <use xlink:href="#i" overflow="visible"/>
      </clipPath>
      <g clip-path="url(#j)">
        <path fill="#FBD099" d="M305.25 272.05c-.35-1.75-2.05-2.8-3.77-2.32 0 0-5.9 1.64-7.36 6.22-1.64 5.2 3.02 9.64 3.02 9.64 1.3 1.22 1.64 3.5.77 5.07 0 0-.4.76-1.08 2.87-1.48 4.72 2.16 9.5 2.16 9.5 1.08 1.4 1.46 3.6.84 4.83l-.5 1.56c-1.46 4.65 2.23 9.25 2.23 9.25 1.12 1.4 1.78 3.34 1.46 4.33l-.37 1.2c-1.48 4.7 1.16 9.7 5.9 11.15.33.1 6.67 1.46 6.67 1.46 1.75.38 2.9-.75 2.54-2.5l-12.5-62.25z"/>
        <path fill="none" stroke="#FBD099" stroke-width="17.97" stroke-miterlimit="10" d="M312.9 326.98s15.6 4.86 30.76 1.82" stroke-linecap="round"/>
        <path fill="#DDA37C" d="M310.04 325.2c-2.1-.66 15.5 5.95 32.44 2.75 5.67-1.44 8.53-3.13 8.53-3.13-1.64-2.07-5.07-3.23-8.85-2.76-13 1.65-26.23-1.35-26.36-1.38-2.65-.62-5.52-.3-7.88.73 0 0-1.22 2.74 2.12 3.8z" opacity=".5"/>
        <path fill="none" stroke="#FBD099" stroke-width="19.63" stroke-miterlimit="10" d="M309.56 312.5s17.06 5.3 33.6 1.98" stroke-linecap="round"/>
        <path fill="#DDA37C" d="M306.6 311.35c3.66 1.16 15.47 4.6 35.44 3 6.2-.53 9.32-3.42 9.32-3.42-1.8-2.26-5.56-3.53-9.68-3-14.2 1.8-28.65-1.5-28.8-1.52-2.88-.66-6.02-.3-8.6.8 0 0-1.33 3 2.33 4.15z" opacity=".5"/>
        <path fill="none" stroke="#FBD099" stroke-width="20.37" stroke-miterlimit="10" d="M307.38 296.6s17.7 5.5 34.87 2.05" stroke-linecap="round"/>
        <path fill="#DDA37C" d="M304.15 294.57c3.8 1.2 16.04 4.77 36.77 3.12 6.43-.56 9.66-3.56 9.66-3.56-1.87-2.34-5.76-3.67-10.03-3.12-14.73 1.86-29.73-1.54-29.9-1.57-2.97-.7-6.23-.32-8.9.83 0 0-1.4 3.1 2.4 4.3z" opacity=".5"/>
        <path fill="none" stroke="#FBD099" stroke-width="20.37" stroke-miterlimit="10" d="M304.66 278.86s17.84 8.38 34.86 2.05" stroke-linecap="round"/>
        <path fill="#DDA37C" d="M301.98 275.9c3.68 1.83 15.8 8 35.75 3.23 5.85-1.17 9.4-3.5 9.4-3.5-1.84-2.36-5.8-4.52-9.78-3.17-14.86 5.05-28.9-1.64-29.05-1.67-2.9-.72-6.08-.35-8.68.78 0 0-1.13 2.56 2.36 4.3z" opacity=".5"/>
      </g>
    </g>
    <g>
      <defs>
        <path id="k" d="M426.25 303.92c1.8-13.9-10.74-31.4-13.26-33.75 7.02-3.54 12.4-7.18 16.8-10.8l-5.27-175.2-279.87 8.45 13.4 444.8 279.88-8.44-6.83-226.6-4.85 1.54z"/>
      </defs>
      <clipPath id="l">
        <use xlink:href="#k" overflow="visible"/>
      </clipPath>
      <g clip-path="url(#l)">
        <path fill="#DDA37C" d="M356.68 273.94l-22.37 6.4c-5.6 2.02-8.92 8.36-6.9 13.95l.53 1.44c2.02 5.6 8.63 8.34 14.23 6.3l22.2-8c3.4-13.23-7.68-20.1-7.68-20.1z" opacity=".5"/>
        <path fill="#FBD099" d="M356.5 272.32l-22.37 6.4c-5.6 2.02-8.93 8.35-6.9 13.95l.52 1.45c2.02 5.6 8.63 8.34 14.22 6.3l22.2-8c3.4-13.23-7.67-20.1-7.67-20.1z"/>
        <path fill="#DDA37C" d="M336.54 285.4l22.2-8.02s3.3 2.63 5.77 6.93c-1.36-8.6-8-11.98-8-11.98l-22.37 6.4c-5.6 2.02-8.93 8.36-6.9 13.95l.52 1.45c.35.97.98 1.6 1.56 2.4-.3-4.68 2.62-9.44 7.24-11.12z" opacity=".5"/>
        <path fill="#FFF" d="M334.93 281.35c-4.24 1.53-6.68 6.32-5.14 10.6l.38 1.1c1.54 4.26 8.04 5.82 10.58 4.9 3.63-10.64-5.83-16.6-5.83-16.6z"/>
      </g>
    </g>
  </g>
  <path fill="none" stroke="#DBA142" stroke-width="2" stroke-miterlimit="10" d="M413.96 272.12c30.84-15.4 34.76-39.8 56.63-42.9M585.9 274.6c-22.6-36.62-19.85-45.27-60.03-53.27"/>
</svg>
