<?xml version="1.0" encoding="utf-8"?>
<!-- Generator: Adobe Illustrator 16.0.0, SVG Export Plug-In . SVG Version: 6.00 Build 0)  -->
<!DOCTYPE svg PUBLIC "-//W3C//DTD SVG 1.1//EN" "http://www.w3.org/Graphics/SVG/1.1/DTD/svg11.dtd">
<svg version="1.1" id="Layer_1" xmlns="http://www.w3.org/2000/svg" xmlns:xlink="http://www.w3.org/1999/xlink" x="0px" y="0px"
	 width="1014.981px" height="569px" viewBox="-15.881 0 1014.981 569" enable-background="new -15.881 0 1014.981 569"
	 xml:space="preserve">
<path fill="#71DB00" d="M492.47,128.36V0"/>
<path fill="#FF4949" d="M451.97,0h13.5v128h-13.5V0z"/>
<path fill="#FE9B44" d="M465.47,0h13.5v128h-13.5V0z"/>
<path fill="#FFE825" d="M478.97,0h13.5v128h-13.5V0z"/>
<path fill="#71DB00" d="M492.47,0h13.5v128h-13.5V0z"/>
<path fill="#4A99F2" d="M505.97,0h13.5v128h-13.5V0z"/>
<path fill="#A74BF5" d="M519.47,0h13.5v128h-13.5V0z"/>
<g>
	<path fill="#FF4949" d="M470.87,253h-10.8c-20.12,66.72-314.992,197.6-475.722,268.18l-0.34,47.82H89.6
		C89.6,569,452.4,345.8,470.87,253z"/>
	<path fill="#FE9B44" d="M481.67,253h-10.8C452.4,345.8,89.6,569,89.6,569h201.44C291.04,569,472.2,347.13,481.67,253z"/>
	<path fill="#FFE825" d="M492.47,253h-10.8c-9.46,94.13-190.63,316-190.63,316h201.44V253H492.47z"/>
	<path fill="#71DB00" d="M503.27,253h-10.8v316h201.44c0,0-181.16-221.87-190.63-316H503.27z"/>
	<path fill="#4A99F2" d="M514.08,253h-10.8c9.45,94.13,190.63,316,190.63,316h201.45C895.36,569,533,347.13,514.08,253z"/>
	<path fill="#A74BF5" d="M524.88,253h-10.8c18.9,94.13,381.27,316,381.27,316H999.1l-0.1-41.53
		C841.13,458.65,545.6,321.75,524.88,253z"/>
</g>
<g>
	<path fill="#FF4949" d="M465.47,125h-13.5c0,174-249.17,302-249.17,302h96.56c0,0,166.1-128,166.1-302H465.47z"/>
	<path fill="#FE9B44" d="M478.97,125h-13.5c0,174-166.1,302-166.1,302h96.55C395.92,427,478.97,299,478.97,125L478.97,125z"/>
	<path fill="#FFE825" d="M492.47,125h-13.5c0,174-83.05,302-83.05,302h96.561V125H492.47z"/>
	<path fill="#71DB00" d="M505.97,125h-13.5v302h96.57C589.04,427,505.97,299,505.97,125L505.97,125z"/>
	<path fill="#4A99F2" d="M519.47,125h-13.5c0,174,83.07,302,83.07,302h96.56C685.6,427,519.47,299,519.47,125z"/>
	<path fill="#A74BF5" d="M532.97,125h-13.5c0,174,166.13,302,166.13,302h96.561c0,0-249.2-128-249.2-302H532.97z"/>
</g>
</svg>
