<svg style="display:none;" xmlns="http://www.w3.org/2000/svg" xmlns:xlink="http://www.w3.org/1999/xlink">
<defs>
    <symbol id="aladwaa_logo" viewBox="0 0 195 95">
        <path fill="#EA4A24" d="M169.15 82.09c.456-3.288.71-6.643.71-10.058 0-39.935-32.373-72.308-72.31-72.308-39.934 0-72.308 32.374-72.308 72.308 0 3.415.254 6.77.712 10.058H169.15z"/>
        <path fill="#F6A61C" d="M153.005 82.09c.58-3.267.897-6.623.897-10.058 0-31.672-25.676-57.348-57.35-57.348-31.67 0-57.348 25.676-57.348 57.348 0 3.435.318 6.79.897 10.058h112.906z"/>
        <path fill="#30A449" d="M138.73 82.09c.784-3.226 1.21-6.59 1.21-10.058 0-23.41-18.978-42.387-42.39-42.387-23.41 0-42.387 18.978-42.387 42.387 0 3.468.425 6.832 1.21 10.058h82.356z"/>
        <path fill="#63C8DF" d="M123.068 82.09c1.23-3.114 1.91-6.506 1.91-10.058 0-15.147-12.278-27.427-27.427-27.427-15.145 0-27.426 12.28-27.426 27.427 0 3.552.682 6.943 1.91 10.058h51.035z"/>
        <path d="M-.484 74.41c1.067-2.514 3.384-3.287 5.996-3.054.4.035.81.008 1.213-.002.082-.002.16-.064.106-.04.388-1.596.64-3.14 1.14-4.602 1.104-3.24 5.55-6.63 9.63-6.703 4.655-.086 8.087 1.966 11.027 5.24 1.144 1.275 1.535 2.867.854 4.387-.63 1.41-1.765 2.52-3.59 2.338-.16-.016-3.742-1.11-4.79-.81 4.332.724 5.46 2.306 6.125 2.868 1.643 1.39 2.278 3.55 1.573 5.474-.686 1.87-2.46 3.053-4.616 3.05-6.027-.005-12.056.034-18.08-.085-.977-.02-2.65-.235-3.392-.894-4.578-4.308-3.266-6.995-3.192-7.17zm8.48-2.264c-1.4 0-2.605-.035-3.81.006C2.14 72.224.6 73.74.6 75.628c-.002 1.8 1.52 3.378 3.52 3.39 6.027.038 12.056.018 18.084-.04 1.934-.02 3.47-1.646 3.457-3.45-.012-1.813-1.565-3.328-3.507-3.387-1.034-.03-2.07.006-3.104-.02-1.62-.03-2.744-1.044-2.663-2.374.084-1.382 1.406-2.29 3.068-2.024 1.194.194 2.38.46 3.55.77 1.226.322 2.114-.17 2.837-1.066.743-.924.795-2.05.057-2.863-.937-1.032-2.038-2.03-3.26-2.672-4.498-2.366-10.038-.9-12.917 3.25-1.416 2.05-1.86 4.35-1.724 7.01zm186.296 6.196c0 1.46-.67 2.68-.97 3.05-2.014 2.484-5.12 2.413-7.578.38-2.425-1.997-3.074-4.272-2.972-7.27.168-4.925-.065-9.863-.103-14.795-.02-2.238.065-4.477.04-6.715-.024-2.02 1.092-3.31 2.726-4.138 1.627-.825 3.387-.79 4.81.435 1.444 1.24 4.044 3.312 4.044 6.045.002 8.998.002 14.007.002 23.006zm-3.53-13.932h.016c0-3.78.004-7.56-.006-11.34-.003-.44-.02-.907-.15-1.324-.562-1.81-2.11-2.773-3.932-2.49-1.887.296-3.102 1.667-3.107 3.633-.022 7.646-.02 15.296-.024 22.945-.005 2.287 1.55 3.978 3.646 3.968 2.058-.012 3.553-1.65 3.556-3.92.004-3.826 0-7.65 0-11.474zm-73.634 6.094c-.014-5.077 2.34-8.248 6.318-10.27 1.036-.524 2.317-.737 3.498-.78 2.91-.106 5.828-.034 9.09-.034-1.027-.95-1.784-1.72-2.61-2.4-2.535-2.086-2.85-4.606-.856-7.192 1.4-1.814 5.136-1.922 7.114-.184.644.562 1.24 1.178 1.856 1.766 2.258 2.146 2.23 4.987-.07 7.07-.195.177-.4.344-.568.84 1.172 0 2.353.1 3.513-.02 3.516-.353 5.2 2.122 6.95 4.452.335.444.364 1.192.368 1.802.03 4.095-.113 8.193.055 12.28.102 2.472-2.476 4.808-4.874 4.806-9.04-.01-18.08.072-27.12.09-13.84.022-27.68.028-41.52.016-1.15-.002-2.3-.225-3.56-.355-.48 1.16-.93 2.473-1.55 3.697-2.006 3.95-4.95 6.818-9.42 7.794-6.23 1.36-11.73.1-16.592-4.237-1.784-1.594-2.9-3.208-2.15-5.446.46-1.378 1.622-2.52 2.55-3.89-1.21-.763-1.05-2.314-1.037-3.85.03-3.238-.03-6.478.037-9.715.013-.663.24-1.464.658-1.953 2.656-3.12 5.806-5.177 10.167-5.138 3.286.03 6.543-.035 9.25 2.102 2.978 2.352 6.092 4.63 7.467 8.45.14.39.835.828 1.273.828 12.147.043 24.293.04 36.438.002.624-.002 1.43-.23 1.83-.654 1.107-1.17 2.135-1.442 3.5.126zm-45.397 1.2c-.79-2.017-1.244-3.84-2.163-5.38-4.012-6.726-13.41-8.333-19.485-3.397-1.27 1.034-2.774 2.04-2.817 3.915-.078 3.328-.07 6.658-.015 9.986.028 1.634 1.03 2.5 2.556 2.485 3.463-.027 10.388-.02 10.388-.02 1.94.062 3.144-.75 4.01-2.347.12-.216.314-.39.475-.584-1.228 4.408-6.108 7.414-10.79 6.38-1.125-.248-2.19-.77-3.275-1.194-1.493-.585-3.433.04-4.252 1.395-1.017 1.677-.867 3.495.444 4.512 6.468 5.018 19.426 5.732 23.642-5.776.603-1.648.987-3.377 1.586-5.46.66 2.97 2.64 3.057 4.862 3.047 11.966-.06 23.932-.045 35.898-.008 1.393.003 2.562-.144 3.175-1.73-.206 1.536.647 1.72 1.73 1.72 8.86-.014 17.725-.004 26.586-.02 2.563-.004 4.08-1.56 4.09-4.136.012-3.78.007-7.558.014-11.337.002-2.44-1.288-3.725-3.756-3.725-5.714.002-11.426.004-17.14.012-4.024.004-6.904 1.95-8.51 5.522-.78 1.735-.96 3.74-1.493 5.955-.737-.387-1.656-.866-2.667-1.395-.833 1.523-2.365 1.597-3.996 1.595-11.785-.024-23.572-.015-35.358-.015-1.347-.002-2.69-.002-3.738-.002zm68.136-19.018c.05-1.807-1.67-3.46-3.706-3.567-2.017-.107-4.043 1.64-4.062 3.503-.02 1.833 1.86 3.598 3.837 3.607 1.95.006 3.88-1.735 3.93-3.544zm30.968 18.59v-4.784c0-4.585-.013-9.17.01-13.754.007-1.668 1.286-3.435 2.932-4.013 1.86-.653 3.63-.497 5.152.906.493.457.938.97 1.463 1.387 1.28 1.02 1.898 2.26 1.893 3.952-.016 4.94.12 9.88.142 14.823.013 2.962-.068 5.927-.134 8.892-.04 1.744-2.253 3.822-4.1 3.83-6.16.03-12.32.033-18.48.047-1.314.003-2.46-.39-3.383-1.378-.426-.456-.902-.87-1.394-1.26-1.71-1.345-2.377-3.59-1.624-5.55.75-1.96 2.385-2.942 4.692-2.83.128.007.26-.034.557-.077.035-.5.104-1.017.104-1.53.008-5.083.004-10.163.004-15.244 0-3.346.05-3.466 2.438-5.865.078-.11.184-.72-.687-1.02-.136-.047-.75-.262-.87-.34-1.527-1.01-1.268-2.595-.154-3.928.336-.4 1.186-.52 1.146-1.01-1.995-2.433.416-3.86 2.26-4.59.875-.344 1.763-.658 2.65-.967 1.54-.536 2.522-.228 3.546 1.08.16.208.32.434.53.582 2.122 1.502 2.153 2.995.022 4.58.702 2.77-.42 4.914-3.813 5.61 1.247.666 1.553 1.287 2.078 1.883 1.322 1.495 2.298 2.71 2.282 4.75-.04 5.067.082 10.136.145 15.202.004.21.066.42.1.63l.494-.01zm-11.37 1.04c-.73 0-1.27.013-1.806-.005-2.068-.062-3.63 1.24-3.785 3.173-.142 1.737 1.545 3.493 3.54 3.507 6.03.038 12.06.03 18.09-.003 1.728-.01 3.394-1.68 3.4-3.376.024-7.602.032-15.204.003-22.81-.006-1.44-.682-2.613-2.04-3.235-2.476-1.133-5.037.543-5.05 3.33-.023 5.892-.006 11.786-.004 17.68v1.642h-5.064v-1.404c-.006-5.76-.005-11.52-.022-17.277-.005-1.438-.343-2.784-1.582-3.67-1.163-.834-2.45-.844-3.7-.19-1.436.746-1.96 2.064-1.97 3.585-.025 5.265-.01 10.53-.012 15.794.002 1.024.002 2.05.002 3.262zm1.803-28.787c-.223.04-.392.074-.562.087-1.013.082-1.5.677-1.313 1.62.18.903.835 1.217 1.74.877 1.01-.376 2.02-.737 3.03-1.102 2.468-.887 2.885-2.248 1.356-4.496l1.042-.614c.64-.377 1.57-.637 1.107-1.656-.445-.977-1.31-.958-2.194-.608-1.126.444-2.26.866-3.37 1.345-1.208.52-1.69 1.782-1.178 3.014.15.367.354.715.6 1.166.05.09-.14.34-.258.363zM43.205 67.513V79.39c0 3.626-3.865 6.076-7.063 4.298-1.525-.85-2.793-2.21-4.05-3.466-.366-.364-.4-1.167-.403-1.77-.025-8.412-.02-16.825-.018-25.24 0-2.34 1.268-4.18 3.245-4.733 2.31-.648 4.943.392 6.08 2.396 0 0 2.225 2.782 2.225 5.57-.068 3.688-.018 7.38-.018 11.067zm-10.734-2.37h-.08c0 4.268-.004 8.535.013 12.8 0 .343.08.725.25 1.015.703 1.21 2.923 2.06 4.25 1.675 1.99-.582 2.93-1.743 2.93-3.63.006-8.042.01-16.084.01-24.125 0-2.367-1.446-3.913-3.665-3.92-2.177-.008-3.693 1.583-3.7 3.92-.014 4.09-.006 8.176-.006 12.265z"/>
        <path fill="#fff" d="M7.996 72.146c-.137-2.66.307-4.96 1.725-7.005 2.88-4.15 8.42-5.616 12.92-3.25 1.222.642 2.322 1.637 3.26 2.672.736.814.685 1.94-.058 2.862-.723.9-1.61 1.39-2.837 1.067-1.17-.31-2.355-.574-3.55-.77-1.662-.267-2.982.645-3.067 2.026-.08 1.328 1.044 2.343 2.662 2.376 1.034.022 2.07-.013 3.104.02 1.942.06 3.496 1.573 3.51 3.387.014 1.805-1.524 3.43-3.458 3.447-6.028.06-12.056.08-18.085.043-2-.014-3.52-1.592-3.52-3.392 0-1.888 1.54-3.403 3.587-3.474 1.205-.042 2.41-.006 3.81-.006zm182.767-7.736c0 3.824.004 7.647-.002 11.472 0 2.27-1.496 3.91-3.554 3.92-2.1.013-3.65-1.678-3.648-3.967.006-7.647.002-15.297.023-22.945.008-1.968 1.224-3.338 3.11-3.633 1.82-.284 3.37.678 3.932 2.49.13.417.147.88.15 1.325.01 3.78.006 7.558.006 11.337h-.013zM71.73 71.703h3.735c11.785 0 23.572-.01 35.358.016 1.63.002 3.163-.07 3.996-1.595 1.01.527 1.93 1.01 2.667 1.396.532-2.216.713-4.22 1.494-5.956 1.605-3.572 4.485-5.517 8.51-5.522 5.714-.008 11.426-.008 17.14-.01 2.468 0 3.758 1.283 3.755 3.725-.007 3.78-.002 7.556-.015 11.335-.007 2.58-1.523 4.134-4.088 4.138-8.86.017-17.724.007-26.586.02-1.083 0-1.937-.185-1.73-1.72-.61 1.588-1.78 1.734-3.173 1.73-11.966-.04-23.932-.05-35.898.008-2.222.01-4.202-.078-4.862-3.05-.6 2.086-.983 3.813-1.587 5.46-4.215 11.51-17.172 10.793-23.642 5.775-1.31-1.017-1.46-2.835-.444-4.512.82-1.352 2.76-1.977 4.252-1.39 1.083.422 2.15.943 3.275 1.193 4.68 1.032 9.56-1.974 10.788-6.38-.16.192-.356.368-.474.584-.865 1.596-2.067 2.406-4.01 2.344-3.46-.112-6.923-.003-10.387.024-1.525.014-2.527-.854-2.556-2.485-.058-3.33-.063-6.66.015-9.987.044-1.877 1.548-2.883 2.82-3.915 6.074-4.937 15.472-3.33 19.484 3.394.922 1.544 1.373 3.368 2.167 5.383zm70.562-4.634c-3.524 0-6.894-.014-10.26.002-2.937.012-5.014 1.477-6.43 3.948-.682 1.188-.486 1.462.885 1.466 4.854.01 9.71.016 14.565.018.392 0 .78-.05 1.24-.078V67.07zM63.906 71.81c.012-2.85-2.863-5.347-5.82-5.152-2.94.193-5.474 2.686-5.154 5.153h10.974zM139.9 52.674c-.05 1.812-1.98 3.553-3.93 3.545-1.976-.01-3.854-1.776-3.837-3.607.02-1.863 2.046-3.612 4.062-3.506 2.036.106 3.754 1.76 3.705 3.566zm19.564 19.64V69.05c0-5.264-.015-10.53.012-15.793.01-1.52.534-2.84 1.97-3.586 1.25-.65 2.537-.64 3.7.193 1.24.886 1.577 2.232 1.582 3.67.018 5.757.017 11.517.02 17.277.002.436.002.873.002 1.403h5.065v-1.64c-.002-5.896-.02-11.788.004-17.683.01-2.785 2.57-4.462 5.05-3.33 1.355.623 2.03 1.794 2.037 3.236.03 7.605.02 15.208-.004 22.812-.006 1.696-1.672 3.366-3.4 3.376-6.03.033-12.06.04-18.088.002-1.996-.014-3.682-1.768-3.54-3.507.153-1.937 1.716-3.237 3.784-3.173.534.02 1.07.007 1.803.007zm1.432-30.224c-.516-1.232.002-2.585 1.21-3.105 1.11-.478 2.244-.9 3.37-1.346.885-.35 1.75-.37 2.194.606.464 1.02-.47 1.28-1.107 1.656-.347.205-.693.41-1.043.614 1.528 2.248 1.11 3.61-1.355 4.496-1.01.364-2.02.726-3.03 1.102-.905.34-1.562.025-1.74-.876-.187-.944.3-1.54 1.313-1.622.26-.02.88-.564.188-1.528zM32.47 65.145c0-4.09-.007-8.176.004-12.265.006-2.338 1.524-3.927 3.7-3.92 2.22.007 3.666 1.552 3.666 3.92-.002 8.04-.006 16.083-.01 24.124 0 1.888-.94 3.05-2.932 3.63-1.326.39-3.546-.465-4.25-1.676-.17-.29-.247-.674-.25-1.016-.016-4.264-.01-8.53-.01-12.798h.083z"/>
        <path d="M142.292 67.07v5.43h-1.24c-4.854 0-9.71-.006-14.564-.018-1.37-.002-1.565-.276-.886-1.463 1.417-2.47 3.494-3.937 6.43-3.95 3.367-.013 6.736 0 10.26 0zm-.81 3.646v1.334h-9.59c-1.19 0-2.385-.002-3.576-.006-.337 0-.385-.065-.217-.356.346-.607.854-.968 1.575-.972.827-.002 10.94 0 11.807 0zm-77.576 1.097H52.93c-.318-2.468 2.216-4.96 5.156-5.152 2.958-.193 5.832 2.304 5.82 5.154zm-5.732-.647h4.57c-1.276-1.4-3.1-1.375-4.57 0z"/>
    </symbol>
    <symbol id="comp_levels" viewBox="0 0 32 32">
        <path fill="#434854" d="M16.004 32V1c0-.553-.447-1-1-1h-2c-.553 0-1 .447-1 1v31h4z"/>
        <path fill="#EACA44" d="M27 13.5s-.487.5-1 .5H1c-.553 0-1-.447-1-1V3c0-.553.447-1 1-1h25c.437 0 1 .5 1 .5L31.5 7c.688.688.672 1.328 0 2L27 13.5z"/>
        <path opacity=".3" d="M12.003 14h4v1h-4z"/>
        <g fill="#3AAD73">
            <path d="M11.504 32h-1.5s-1-3-3-3c3 0 4.5 2 4.5 3zM9.004 27c3 0 4 4 4 5h-1.47s-.53-4-2.53-5zM21.004 29c-2.005 0-3.008 3-3.008 3h-1.504c0-1 1.504-3 4.512-3zM15.002 31.77C15.126 30.495 16.187 27 19 27c-2.007 1-2.54 5-2.54 5h-3.456s0-5 1-7c.872 1.744.983 5.766.998 6.77z"/>
        </g>
        <path opacity=".3" d="M13.22 28.348c.016-.144.033-.287.053-.43l.022-.165c.018-.123.035-.245.055-.367l.038-.226c.02-.104.036-.205.056-.306.018-.09.035-.178.055-.267.017-.084.034-.17.054-.252.024-.1.05-.195.076-.29.018-.067.034-.136.055-.2.03-.107.066-.21.102-.31.017-.046.03-.096.048-.14.054-.142.11-.275.17-.396.873 1.743.984 5.765 1 6.768.015-.16.045-.354.092-.57 0-.004 0-.007.002-.01.044-.216.107-.457.187-.71h.002c.16-.51.396-1.07.716-1.588v-1.627c-.105.105-.205.215-.3.328-.165-1.147-.42-2.262-.806-3.038l-.895-1.79-.895 1.79c-.39.782-.643 1.91-.807 3.057-.095-.114-.195-.225-.3-.33v1.64c.715 1.175 1 2.55 1 3.08 0 0 .003-1.73.206-3.562.002-.03.006-.06.01-.09z"/>
        <g opacity=".1">
            <path d="M13.498 6.99H4.493c-.276 0-.5-.225-.5-.5s.224-.5.5-.5h9.005c.277 0 .5.223.5.5s-.223.5-.5.5zM4.493 8.99H17.5c.277 0 .5.223.5.5s-.223.5-.5.5H4.494c-.276 0-.5-.225-.5-.5s.224-.5.5-.5z"/>
        </g>
    </symbol>
    <symbol id="user_icon" viewBox="0 0 24 24">
        <path fill="#fff" d="M17.813 23.897c2.373-.112 3.943-.225 4.71-.337.072 0 .145-.02.218-.056.476-.263.66-.675.55-1.237-.512-2.25-1.807-4.05-3.89-5.398l-1.75-.79c-1.534-.6-2.41-1.18-2.63-1.742-.145-.564.11-1.33.768-2.306 2.19-3.45 2.555-6.466 1.095-9.053-.037-.037-.074-.093-.11-.17C15.568.94 13.853 0 11.625 0 10.6 0 9.598.263 8.612.787l-.548.338c-1.936 1.462-2.738 3.468-2.41 6.017.22 1.612.857 3.26 1.917 4.948.623.9.86 1.65.714 2.25-.183.524-1.077 1.104-2.683 1.742-1.094.487-1.68.75-1.75.787C1.84 18.142.56 19.94.014 22.265c-.037.3 0 .58.11.843.035.074.11.15.218.224.11.112.62.225 1.533.337 2.482.226 5.732.338 9.75.338 1.714 0 3.777-.038 6.187-.113z"/>
    </symbol>
    <symbol id="sport_icon" viewBox="0 0 340 255">
        <g opacity=".5" fill="none" stroke="#000" stroke-width=".469" stroke-miterlimit="10">
            <path d="M39.507 115.02l.014-8.555 7.418-4.268 7.404 4.29-.013 8.557-7.42 4.266zM54.33 115.02l.012-8.555 7.418-4.268 7.402 4.29-.012 8.557-7.418 4.266zM69.15 115.02l.013-8.555 7.417-4.268 7.404 4.29-.012 8.557-7.418 4.266zM83.972 115.02l.013-8.555 7.417-4.268 7.405 4.29-.015 8.557-7.416 4.266zM98.793 115.02l.014-8.555 7.416-4.268 7.404 4.29-.012 8.557-7.418 4.266zM113.615 115.02l.014-8.555 7.416-4.268 7.403 4.29-.014 8.557-7.416 4.266z"/>
            <path d="M32.27 102.096l.012-8.558L39.7 89.27l7.403 4.29-.014 8.558-7.417 4.268zM47.09 102.096l.014-8.558 7.417-4.267 7.405 4.29-.014 8.558-7.415 4.268zM61.913 102.096l.013-8.558 7.416-4.267 7.404 4.29-.014 8.558-7.417 4.268zM76.734 102.096l.012-8.558 7.418-4.267 7.403 4.29-.013 8.558-7.415 4.268zM91.556 102.096l.012-8.558 7.417-4.267 7.403 4.29-.012 8.558-7.417 4.268zM106.376 102.096l.014-8.558 7.417-4.267 7.404 4.29-.013 8.558-7.416 4.268z"/>
            <path d="M39.507 89.17l.014-8.558 7.418-4.267 7.404 4.29-.013 8.557-7.42 4.267zM54.33 89.17l.012-8.558 7.418-4.267 7.402 4.29-.012 8.557-7.418 4.267zM69.15 89.17l.013-8.558 7.417-4.267 7.404 4.29-.012 8.557-7.418 4.267zM83.972 89.17l.013-8.558 7.417-4.267 7.405 4.29-.015 8.557-7.416 4.267zM98.793 89.17l.014-8.558 7.416-4.267 7.404 4.29-.012 8.557-7.418 4.267zM113.615 89.17l.014-8.558 7.416-4.267 7.403 4.29-.014 8.557-7.416 4.267z"/>
            <path d="M32.27 76.244l.012-8.556 7.417-4.27 7.403 4.29-.014 8.56-7.417 4.266zM47.09 76.244l.014-8.556 7.417-4.27 7.405 4.29-.014 8.56-7.415 4.266zM61.913 76.244l.013-8.556 7.416-4.27 7.404 4.29-.014 8.56-7.417 4.266zM76.734 76.244l.012-8.556 7.418-4.27 7.403 4.29-.013 8.56-7.415 4.266zM91.556 76.244l.012-8.556 7.417-4.27 7.403 4.29-.012 8.56-7.417 4.266zM106.376 76.244l.014-8.556 7.417-4.27 7.404 4.29-.013 8.56-7.416 4.266z"/>
            <path d="M39.507 63.49l.014-8.556 7.418-4.267 7.404 4.288-.013 8.558-7.42 4.267zM54.33 63.49l.012-8.556 7.418-4.267 7.402 4.288-.012 8.558-7.418 4.267zM69.15 63.49l.013-8.556 7.417-4.267 7.404 4.288-.012 8.558-7.418 4.267zM83.972 63.49l.013-8.556 7.417-4.267 7.405 4.288-.015 8.558-7.416 4.267zM98.793 63.49l.014-8.556 7.416-4.267 7.404 4.288-.012 8.558-7.418 4.267zM113.615 63.49l.014-8.556 7.416-4.267 7.403 4.288-.014 8.558-7.416 4.267z"/>
            <path d="M32.27 50.566l.012-8.558L39.7 37.74l7.403 4.29-.014 8.557-7.417 4.268zM47.09 50.566l.014-8.558 7.417-4.267 7.405 4.29-.014 8.557-7.415 4.268zM61.913 50.566l.013-8.558 7.416-4.267 7.404 4.29-.014 8.557-7.417 4.268zM76.734 50.566l.012-8.558 7.418-4.267 7.403 4.29-.013 8.557-7.415 4.268zM91.556 50.566l.012-8.558 7.417-4.267 7.403 4.29-.012 8.557-7.417 4.268zM106.376 50.566l.014-8.558 7.417-4.267 7.404 4.29-.013 8.557-7.416 4.268z"/>
            <path d="M39.507 37.64l.014-8.558 7.418-4.268 7.404 4.29-.013 8.557-7.42 4.27zM54.33 37.64l.012-8.558 7.418-4.268 7.402 4.29-.012 8.557-7.418 4.27zM69.15 37.64l.013-8.558 7.417-4.268 7.404 4.29-.012 8.557-7.418 4.27zM83.972 37.64l.013-8.558 7.417-4.268 7.405 4.29-.015 8.557-7.416 4.27zM98.793 37.64l.014-8.558 7.416-4.268 7.404 4.29-.012 8.557-7.418 4.27zM113.615 37.64l.014-8.558 7.416-4.268 7.403 4.29-.014 8.557-7.416 4.27z"/>
            <path d="M32.27 24.714l.012-8.558L39.7 11.89l7.403 4.29-.014 8.556-7.417 4.267zM47.09 24.714l.014-8.558 7.417-4.267 7.405 4.29-.014 8.556-7.415 4.267zM61.913 24.714l.013-8.558 7.416-4.267 7.404 4.29-.014 8.556-7.417 4.267zM76.734 24.714l.012-8.558 7.418-4.267 7.403 4.29-.013 8.556-7.415 4.267zM91.556 24.714l.012-8.558 7.417-4.267 7.403 4.29-.012 8.556-7.417 4.267zM106.376 24.714l.014-8.558 7.417-4.267 7.404 4.29-.013 8.556-7.416 4.267zM128.436 115.02l.014-8.555 7.415-4.268 7.405 4.29-.013 8.557-7.417 4.266zM143.258 115.02l.013-8.555 7.418-4.268 7.404 4.29-.013 8.557-7.418 4.266zM158.08 115.02l.013-8.555 7.415-4.268 7.405 4.29-.013 8.557-7.417 4.266zM172.9 115.02l.013-8.555 7.418-4.268 7.407 4.29-.015 8.557-7.416 4.266zM187.722 115.02l.015-8.555 7.414-4.268 7.406 4.29-.013 8.557-7.416 4.266zM202.543 115.02l.016-8.555 7.414-4.268 7.404 4.29-.013 8.557-7.418 4.266z"/>
            <path d="M121.197 102.096l.014-8.558 7.418-4.267 7.403 4.29-.01 8.558-7.417 4.268zM136.02 102.096l.013-8.558 7.417-4.267 7.404 4.29-.013 8.558-7.416 4.268zM150.842 102.096l.012-8.558 7.417-4.267 7.405 4.29-.013 8.558-7.417 4.268zM165.663 102.096l.013-8.558 7.417-4.267 7.403 4.29-.013 8.558-7.417 4.268zM180.483 102.096l.015-8.558 7.416-4.267 7.402 4.29-.01 8.558-7.42 4.268zM195.306 102.096l.013-8.558 7.415-4.267 7.403 4.29-.013 8.558-7.416 4.268z"/>
            <path d="M128.436 89.17l.014-8.558 7.415-4.267 7.405 4.29-.013 8.557-7.417 4.267zM143.258 89.17l.013-8.558 7.418-4.267 7.404 4.29-.013 8.557-7.418 4.267zM158.08 89.17l.013-8.558 7.415-4.267 7.405 4.29-.013 8.557-7.417 4.267zM172.9 89.17l.013-8.558 7.418-4.267 7.407 4.29-.015 8.557-7.416 4.267zM187.722 89.17l.015-8.558 7.414-4.267 7.406 4.29-.013 8.557-7.416 4.267zM202.543 89.17l.016-8.558 7.414-4.267 7.404 4.29-.013 8.557-7.418 4.267z"/>
            <path d="M121.197 76.244l.014-8.556 7.418-4.27 7.403 4.29-.01 8.56-7.417 4.266zM136.02 76.244l.013-8.556 7.417-4.27 7.404 4.29-.013 8.56-7.416 4.266zM150.842 76.244l.012-8.556 7.417-4.27 7.405 4.29-.013 8.56-7.417 4.266zM165.663 76.244l.013-8.556 7.417-4.27 7.403 4.29-.013 8.56-7.417 4.266zM180.483 76.244l.015-8.556 7.416-4.27 7.402 4.29-.01 8.56-7.42 4.266zM195.306 76.244l.013-8.556 7.415-4.27 7.403 4.29-.013 8.56-7.416 4.266z"/>
            <path d="M128.436 63.49l.014-8.556 7.415-4.267 7.405 4.288-.013 8.558-7.417 4.267zM143.258 63.49l.013-8.556 7.418-4.267 7.404 4.288-.013 8.558-7.418 4.267zM158.08 63.49l.013-8.556 7.415-4.267 7.405 4.288-.013 8.558-7.417 4.267zM172.9 63.49l.013-8.556 7.418-4.267 7.407 4.288-.015 8.558-7.416 4.267zM187.722 63.49l.015-8.556 7.414-4.267 7.406 4.288-.013 8.558-7.416 4.267zM202.543 63.49l.016-8.556 7.414-4.267 7.404 4.288-.013 8.558-7.418 4.267z"/>
            <path d="M121.197 50.566l.014-8.558 7.418-4.267 7.403 4.29-.01 8.557-7.417 4.268zM136.02 50.566l.013-8.558 7.417-4.267 7.404 4.29-.013 8.557-7.416 4.268zM150.842 50.566l.012-8.558 7.417-4.267 7.405 4.29-.013 8.557-7.417 4.268zM165.663 50.566l.013-8.558 7.417-4.267 7.403 4.29-.013 8.557-7.417 4.268zM180.483 50.566l.015-8.558 7.416-4.267 7.402 4.29-.01 8.557-7.42 4.268zM195.306 50.566l.013-8.558 7.415-4.267 7.403 4.29-.013 8.557-7.416 4.268z"/>
            <path d="M128.436 37.64l.014-8.558 7.415-4.268 7.405 4.29-.013 8.557-7.417 4.27zM143.258 37.64l.013-8.558 7.418-4.268 7.404 4.29-.013 8.557-7.418 4.27zM158.08 37.64l.013-8.558 7.415-4.268 7.405 4.29-.013 8.557-7.417 4.27zM172.9 37.64l.013-8.558 7.418-4.268 7.407 4.29-.015 8.557-7.416 4.27zM187.722 37.64l.015-8.558 7.414-4.268 7.406 4.29-.013 8.557-7.416 4.27zM202.543 37.64l.016-8.558 7.414-4.268 7.404 4.29-.013 8.557-7.418 4.27z"/>
            <path d="M121.197 24.714l.014-8.558 7.418-4.267 7.403 4.29-.01 8.556-7.417 4.267zM136.02 24.714l.013-8.558 7.417-4.267 7.404 4.29-.013 8.556-7.416 4.267zM150.842 24.714l.012-8.558 7.417-4.267 7.405 4.29-.013 8.556-7.417 4.267zM165.663 24.714l.013-8.558 7.417-4.267 7.403 4.29-.013 8.556-7.417 4.267zM180.483 24.714l.015-8.558 7.416-4.267 7.402 4.29-.01 8.556-7.42 4.267zM195.306 24.714l.013-8.558 7.415-4.267 7.403 4.29-.013 8.556-7.416 4.267zM217.365 115.02l.016-8.555 7.416-4.268 7.403 4.29-.012 8.557-7.417 4.266zM232.188 115.02l.013-8.555 7.417-4.268 7.403 4.29-.01 8.557-7.418 4.266zM247.01 115.02l.013-8.555 7.415-4.268 7.402 4.29-.01 8.557-7.416 4.266zM261.83 115.02l.014-8.555 7.417-4.268 7.402 4.29-.014 8.557-7.413 4.266zM276.652 115.02l.013-8.555 7.418-4.268 7.402 4.29-.014 8.557-7.416 4.266zM291.474 115.02l.012-8.555 7.418-4.268 7.402 4.29-.012 8.557-7.418 4.266z"/>
            <path d="M210.125 102.096l.017-8.558 7.414-4.267 7.405 4.29-.01 8.558-7.42 4.268zM224.95 102.096l.015-8.558 7.413-4.267 7.405 4.29-.012 8.558-7.416 4.268zM239.77 102.096l.013-8.558 7.418-4.267 7.403 4.29-.01 8.558-7.42 4.268zM254.592 102.096l.012-8.558 7.42-4.267 7.402 4.29-.014 8.558-7.418 4.268zM269.413 102.096l.014-8.558 7.42-4.267 7.398 4.29-.01 8.558-7.42 4.268zM284.234 102.096l.012-8.558 7.42-4.267 7.403 4.29-.014 8.558-7.42 4.268z"/>
            <path d="M217.365 89.17l.016-8.558 7.416-4.267 7.403 4.29-.012 8.557-7.417 4.267zM232.188 89.17l.013-8.558 7.417-4.267 7.403 4.29-.01 8.557-7.418 4.267zM247.01 89.17l.013-8.558 7.415-4.267 7.402 4.29-.01 8.557-7.416 4.267zM261.83 89.17l.014-8.558 7.417-4.267 7.402 4.29-.014 8.557-7.413 4.267zM276.652 89.17l.013-8.558 7.418-4.267 7.402 4.29-.014 8.557-7.416 4.267zM291.474 89.17l.012-8.558 7.418-4.267 7.402 4.29-.012 8.557-7.418 4.267zM31.926 127.947l.012-8.558 7.416-4.266 7.405 4.29-.015 8.554-7.417 4.27zM46.746 127.947l.013-8.558 7.415-4.266 7.404 4.29-.013 8.554-7.418 4.27zM61.567 127.947l.013-8.558 7.418-4.266 7.404 4.29-.014 8.554-7.416 4.27zM76.39 127.947l.012-8.558 7.416-4.266 7.405 4.29-.012 8.554-7.418 4.27zM91.21 127.947l.015-8.558 7.415-4.266 7.404 4.29-.014 8.554-7.416 4.27zM106.03 127.947l.015-8.558 7.418-4.266 7.4 4.29-.01 8.554-7.417 4.27zM120.853 127.947l.014-8.558 7.417-4.266 7.404 4.29-.014 8.554-7.417 4.27zM135.676 127.947l.012-8.558 7.417-4.266 7.405 4.29-.014 8.554-7.416 4.27zM150.497 127.947l.013-8.558 7.417-4.266 7.403 4.29-.014 8.554-7.416 4.27zM165.32 127.947l.01-8.558 7.416-4.266 7.407 4.29-.014 8.554-7.416 4.27zM180.14 127.947l.013-8.558 7.417-4.266 7.404 4.29-.013 8.554-7.415 4.27zM194.96 127.947l.014-8.558 7.417-4.266 7.406 4.29-.015 8.554-7.414 4.27zM209.78 127.947l.016-8.558 7.417-4.266 7.4 4.29-.01 8.554-7.415 4.27zM224.604 127.947l.012-8.558 7.418-4.266 7.404 4.29-.014 8.554-7.417 4.27zM239.424 127.947l.016-8.558 7.414-4.266 7.404 4.29-.012 8.554-7.417 4.27zM254.246 127.947l.016-8.558 7.416-4.266 7.403 4.29-.012 8.554-7.416 4.27zM269.068 127.947l.016-8.558 7.415-4.266 7.4 4.29-.01 8.554-7.418 4.27zM283.89 127.947l.013-8.558 7.417-4.266 7.403 4.29-.013 8.554-7.415 4.27z"/>
            <path d="M210.125 76.244l.017-8.556 7.414-4.27 7.405 4.29-.01 8.56-7.42 4.266zM224.95 76.244l.015-8.556 7.413-4.27 7.405 4.29-.012 8.56-7.416 4.266zM239.77 76.244l.013-8.556 7.418-4.27 7.403 4.29-.01 8.56-7.42 4.266zM254.592 76.244l.012-8.556 7.42-4.27 7.402 4.29-.014 8.56-7.418 4.266zM269.413 76.244l.014-8.556 7.42-4.27 7.398 4.29-.01 8.56-7.42 4.266zM284.234 76.244l.012-8.556 7.42-4.27 7.403 4.29-.014 8.56-7.42 4.266z"/>
            <path d="M217.365 63.49l.016-8.556 7.416-4.267 7.403 4.288-.012 8.558-7.417 4.267zM232.188 63.49l.013-8.556 7.417-4.267 7.403 4.288-.01 8.558-7.418 4.267zM247.01 63.49l.013-8.556 7.415-4.267 7.402 4.288-.01 8.558-7.416 4.267zM261.83 63.49l.014-8.556 7.417-4.267 7.402 4.288-.014 8.558-7.413 4.267zM276.652 63.49l.013-8.556 7.418-4.267 7.402 4.288-.014 8.558-7.416 4.267zM291.474 63.49l.012-8.556 7.418-4.267 7.402 4.288-.012 8.558-7.418 4.267z"/>
            <path d="M210.125 50.566l.017-8.558 7.414-4.267 7.405 4.29-.01 8.557-7.42 4.268zM224.95 50.566l.015-8.558 7.413-4.267 7.405 4.29-.012 8.557-7.416 4.268zM239.77 50.566l.013-8.558 7.418-4.267 7.403 4.29-.01 8.557-7.42 4.268zM254.592 50.566l.012-8.558 7.42-4.267 7.402 4.29-.014 8.557-7.418 4.268zM269.413 50.566l.014-8.558 7.42-4.267 7.398 4.29-.01 8.557-7.42 4.268zM284.234 50.566l.012-8.558 7.42-4.267 7.403 4.29-.014 8.557-7.42 4.268z"/>
            <path d="M217.365 37.64l.016-8.558 7.416-4.268 7.403 4.29-.012 8.557-7.417 4.27zM232.188 37.64l.013-8.558 7.417-4.268 7.403 4.29-.01 8.557-7.418 4.27zM247.01 37.64l.013-8.558 7.415-4.268 7.402 4.29-.01 8.557-7.416 4.27zM261.83 37.64l.014-8.558 7.417-4.268 7.402 4.29-.014 8.557-7.413 4.27zM276.652 37.64l.013-8.558 7.418-4.268 7.402 4.29-.014 8.557-7.416 4.27zM291.474 37.64l.012-8.558 7.418-4.268 7.402 4.29-.012 8.557-7.418 4.27z"/>
            <path d="M210.125 24.714l.017-8.558 7.414-4.267 7.405 4.29-.01 8.556-7.42 4.267zM224.95 24.714l.015-8.558 7.413-4.267 7.405 4.29-.012 8.556-7.416 4.267zM239.77 24.714l.013-8.558 7.418-4.267 7.403 4.29-.01 8.556-7.42 4.267zM254.592 24.714l.012-8.558 7.42-4.267 7.402 4.29-.014 8.556-7.418 4.267zM269.413 24.714l.014-8.558 7.42-4.267 7.398 4.29-.01 8.556-7.42 4.267zM284.234 24.714l.012-8.558 7.42-4.267 7.403 4.29-.014 8.556-7.42 4.267z"/>
        </g>
        <path fill="#EAEAEA" d="M35.79 133.652c3.255 0 5.5-2.64 5.5-5.894V16.878h257v110.88c0 3.255 1.245 5.894 4.5 5.894 3.25 0 4.5-2.64 4.5-5.894V12.742c0-3.256-3.912-8.863-7.17-8.863H38.02c-3.257 0-7.73 5.605-7.73 8.862v115.016c0 3.256 2.243 5.894 5.5 5.894z"/>
        <g fill="#D8D8D8">
            <path d="M36.29 16.88h5v110.878c0 2.68-2 4.943-5 5.658V16.88zM303.29 15.746c0-3.256-3.777-5.866-7.033-5.866H34.66c-.573 0-2.01.1-2.535.1 0-3.542 5.294-6.1 8.552-6.1H300.12c4.345 0 7.17 5.172 7.17 8.863V127.76c0 2.68-4 4.942-4 5.657V15.747z"/>
        </g>
        <path fill="#00BF30" d="M327.665 159.562c39.338 42.15-21.41 95.61-157.885 95.61s-197.306-53.46-158.033-95.61c26.222-28.148 93.813-44.917 157.923-44.917s131.727 16.768 157.995 44.917z"/>
        <path fill="#FFF" d="M169.748 220.62c-77.85 0-123.364-28.113-106.8-54.24 12.637-19.938 59.406-32.98 106.73-32.98 47.33 0 94.116 13.043 106.786 32.98 16.604 26.127-28.867 54.24-106.716 54.24zm-.065-84.458c-43.365 0-85.53 12.095-95.843 30.217-13.145 23.097 28.224 47.155 95.9 47.154 67.68 0 109.01-24.058 95.83-47.155-10.34-18.123-52.522-30.218-95.887-30.218zM334.514 168.88H4.35l3.136-4h323.9"/>
        <path opacity=".3" d="M177.93 162.77c38.598.326 92.692 13.26 52.73 26.11-39.36 10.905-82.668.853-94.91-8.155-6.21-4.565-4.103-9.29 2.61-12.35 6.963-3.173 21.586-5.757 39.57-5.606z"/>
        <g>
            <path fill="#EFEFEF" d="M218.016 128.305c0 27.408-22.22 49.626-49.623 49.626-27.41 0-49.627-22.217-49.627-49.625 0-27.406 22.216-49.624 49.627-49.624 27.404 0 49.623 22.22 49.623 49.625"/>
            <path fill="#D3D3D3" d="M178.54 79.687c11.193 9.1 18.35 22.974 18.35 38.523 0 27.408-22.215 49.625-49.624 49.625-3.477 0-6.87-.36-10.147-1.042 8.534 6.938 19.415 11.102 31.273 11.102 27.404 0 49.623-22.22 49.623-49.626 0-23.93-16.938-43.9-39.476-48.583"/>
            <defs>
                <path id="a" d="M218.016 128.305c0 27.408-22.22 49.626-49.623 49.626-27.41 0-49.627-22.217-49.627-49.625 0-27.406 22.216-49.624 49.627-49.624 27.404 0 49.623 22.22 49.623 49.625"/>
            </defs>
            <clipPath id="b">
                <use xlink:href="#a" overflow="visible"/>
            </clipPath>
            <path clip-path="url(#b)" fill="#171717" d="M169.396 112.79l-16.774 12.582 6.407 20.507h20.733l6.408-20.31-16.774-12.78M168.393 78.68c-4 0-7.886.474-11.61 1.366l-2.458 7.574 15.072 10.976 15.07-10.967-1.133-3.495c-1.482-1.568-3.066-3.04-4.74-4.404-3.293-.688-6.704-1.05-10.2-1.05"/>
            <path clip-path="url(#b)" fill="#151515" d="M178.594 79.73c1.674 1.365 3.258 2.836 4.74 4.404l-1.14-3.51c-1.18-.34-2.382-.64-3.6-.894"/>
            <path clip-path="url(#b)" fill="#171717" d="M208.058 158.094c-5.546 7.365-13.093 13.134-21.835 16.502l.03.023c8.733-3.37 16.273-9.14 21.813-16.5l-.008-.026"/>
            <path clip-path="url(#b)" fill="#151515" d="M206.723 154.04l-18.66.014-5.68 17.764 3.84 2.778c8.742-3.368 16.29-9.137 21.835-16.502l-1.335-4.053"/>
            <path clip-path="url(#b)" fill="#171717" d="M148.38 154.04l-18.66.014-1.21 3.79c5.532 7.457 13.107 13.31 21.898 16.728l.036-.026c-4.86-1.888-9.348-4.52-13.326-7.753 3.276.682 6.67 1.042 10.147 1.042 1.88 0 3.73-.104 5.556-.308l-4.44-13.486"/>
            <path clip-path="url(#b)" fill="#151515" d="M137.118 166.793c3.98 3.234 8.467 5.865 13.326 7.753l3.778-2.763-1.4-4.255c-1.825.204-3.678.308-5.557.308-3.476 0-6.87-.36-10.147-1.043M208.57 99.175l-4.174.124-5.295 17.892 15.416 10.498 3.396-2.613c-.62-9.644-3.99-18.535-9.342-25.902"/>
            <path clip-path="url(#b)" fill="#171717" d="M133.54 100.756l-6.562.195c-4.71 7.118-7.635 15.517-8.136 24.565l6.146 4.185 14.816-11.402-6.263-17.542"/>
        </g>
    </symbol>
    <symbol id="list_icon" viewBox="0 0 32 32">
        <path fill="#434854" d="M29 0c1.657 0 3 1.343 3 3v10h-6V3c0-1.657 1.343-3 3-3z"/>
        <path fill="#EAEAEA" d="M6 29V3c0-1.657 1.343-3 3-3h20c-1.657 0-3 1.343-3 3v26c0 1.657-1.343 3-3 3H3c1.657 0 3-1.343 3-3zM3 26h20c-1.657 0-3 1.343-3 3s1.343 3 3 3H3c-1.657 0-3-1.343-3-3s1.343-3 3-3z"/>
        <path opacity=".1" d="M3 26h20c-1.657 0-3 1.343-3 3s1.343 3 3 3H3c-1.657 0-3-1.343-3-3s1.343-3 3-3z"/>
        <path opacity=".3" d="M28.252.105C27.484.835 27 1.858 27 3v10h-1V3c0-1.397.96-2.56 2.252-2.895z"/>
        <g opacity=".1">
            <path d="M11 8h10c.553 0 1-.447 1-1s-.447-1-1-1H11c-.553 0-1 .447-1 1s.447 1 1 1zM21 10H11c-.553 0-1 .447-1 1s.447 1 1 1h10c.553 0 1-.447 1-1s-.447-1-1-1zM21 14H11c-.553 0-1 .447-1 1s.447 1 1 1h10c.553 0 1-.447 1-1s-.447-1-1-1zM21 18H11c-.553 0-1 .447-1 1s.447 1 1 1h10c.553 0 1-.447 1-1s-.447-1-1-1z"/>
        </g>
    </symbol>
    <symbol id="meda_icon" viewBox="0 0 32 32">
        <circle fill="#EACA44" cx="16" cy="23" r="9"/>
        <path fill="#434854" d="M16 14c2.833 0 5.356 1.312 7.007 3.357l8.546-8.546c-.16.11-.344.19-.553.19H20l-4 4-4-4H1c-.21 0-.393-.08-.553-.188l8.546 8.546C10.643 15.312 13.167 14 16 14z"/>
        <path fill="#469FCC" d="M32 3V1c0-.553-.447-1-1-1H1C.447 0 0 .447 0 1v2h32z"/>
        <path fill="#EAEAEA" d="M0 3h32v3H0z"/>
        <g opacity=".3">
            <path d="M12 9H1c-.21 0-.393-.08-.553-.188L1.637 10H13l-1-1zM20 9l-1 1h11.364l1.188-1.188c-.16.11-.343.188-.552.188H20z"/>
        </g>
        <path fill="#EF4D4D" d="M0 6v2c0 .553.447 1 1 1h30c.553 0 1-.447 1-1V6H0z"/>
        <path opacity=".1" d="M16 14.02c-4.97 0-9 4.03-9 9s4.03 9 9 9 9-4.03 9-9-4.03-9-9-9zm0 16c-3.866 0-7-3.134-7-7s3.134-7 7-7 7 3.134 7 7-3.134 7-7 7z"/>
    </symbol>
    <symbol id="cup_icon" viewBox="0 0 158 195">
        <path fill="#FDCB6A" d="M65.045 119.367l.06 32.84 26.89.233-.06-32.84"/>
        <path opacity=".2" fill="#7F200A" d="M65.132 118.397l-.092 10.408L92 132.927l.124-14.295M65.325 150.308l-.064-7.495 26.958-4.122.1 11.382"/>
        <path fill="#FFB533" d="M115.616 22.16l-.06 6.8 34.975.307c-.316 36.494-21.255 54.508-35.513 61.495l-.07 8.15s42.848-11.286 43.416-76.378c-31.088-.27-42.747-.373-42.747-.373z"/>
        <g opacity=".2">
            <path fill="#7F200A" d="M129.928 80.353c-5.057 4.77-10.33 8.163-14.91 10.41l-.07 8.148s5.83-1.538 13.216-6.742c1.095-3.755 1.714-7.715 1.764-11.815zM115.616 22.16l-.06 6.8c2.954.028 8.27.074 14.822.13l.06-6.8c-10.463-.09-14.822-.13-14.822-.13z"/>
        </g>
        <path fill="#FFB533" d="M42.753 21.526l-.062 6.8c-5.64-.048-19.86-.173-34.973-.304C7.4 64.516 28.02 82.892 42.154 90.128l-.072 8.15S-.564 86.245.005 21.152c31.09.27 42.748.373 42.748.373z"/>
        <g opacity=".2">
            <path fill="#7F200A" d="M27.43 79.46c4.97 4.857 10.182 8.342 14.725 10.667l-.072 8.15s-5.803-1.642-13.1-6.974c-1.027-3.774-1.576-7.744-1.554-11.843zM42.753 21.526l-.062 6.8c-2.95-.025-8.266-.07-14.82-.128l.06-6.8 14.823.128z"/>
        </g>
        <path fill="#FFB533" d="M34.824 10.77l-.598 68.585c-.212 24.362 19.365 44.283 43.726 44.496l.686.007c24.36.212 44.283-19.365 44.494-43.727l.6-68.586-88.908-.775z"/>
        <path opacity=".3" fill="#FFE18D" d="M51.714 79.51l.6-68.588-17.49-.153-.597 68.585c-.212 24.362 19.365 44.283 43.726 44.496l.686.007c2.874.026 5.682-.235 8.408-.734-20.31-4.102-35.522-22.125-35.334-43.613z"/>
        <path opacity=".1" fill="#7F200A" d="M119.844 11.51l-.41 47.213c-.214 24.36-20.135 43.938-44.496 43.726l-.687-.007c-17.907-.156-33.22-10.968-39.996-26.362l-.028 3.276c-.212 24.362 19.365 44.283 43.726 44.496l.686.006c24.36.212 44.283-19.365 44.494-43.727l.6-68.585-3.888-.035z"/>
        <path opacity=".07" fill="#7F200A" d="M35.24 15.63l88.407 5.63.142-16.516-88.45-.77"/>
        <path fill="#FFB533" d="M133.188 12.6l-107.844-.94.1-11.658L133.29.94zM118.42 185.216l-78.696-.685.33-37.89 78.696.684z"/>
        <path opacity=".1" fill="#7F200A" d="M118.417 185.22l-4.857-.04.326-37.893 4.857.04z"/>
        <path fill="#FFB533" d="M133.934 189.736h-.17c-.637-3.065-3.33-5.382-6.584-5.41l-96.182-.84c-3.257-.03-5.986 2.24-6.68 5.293l-.168-.002-.046 5.335 109.783.958.047-5.334z"/>
        <path opacity=".4" fill="#FFE18D" d="M57.493 184.684l-17.763-.157.333-37.89 17.763.156z"/>
        <path opacity=".1" fill="#7F200A" d="M133.886 195.07l.043-4.858-3.39-.03 3.31.03c-.443-3.3-3.247-5.857-6.67-5.887l-5.83-.052c3.427.03 6.23 2.59 6.672 5.888l.08.002-.044 4.858 5.828.05z"/>
        <path fill="#FFF" d="M106.836 176.37l-56.35-.49.186-21.375 56.35.49z"/>
        <path opacity=".4" fill="#FFE18D" d="M47.462 189.458l.05-5.828-16.515-.145c-3.425-.03-6.272 2.482-6.774 5.77h-.077l-.043 4.858 23.318.203.042-4.858z"/>
        <path fill="none" stroke="#FFF3E1" stroke-width="2.915" stroke-linecap="round" stroke-miterlimit="10" d="M42.908 38.976l.494 44.318s-.49 12.244 6.857 15.916M42.485 31.227l-.073-4.833"/>
    </symbol>
    <symbol id="computer_icon" viewBox="0 0 129 82">
        <path fill="#434854" d="M121.938 67.394v-60.3c0-3.917-3.178-7.094-7.094-7.094H29.716c-3.917 0-7.094 3.177-7.094 7.094v60.3h99.316z"/>
        <path opacity=".1" fill="#FFF" d="M29.716 7.094h85.13v53.202h-85.13z"/>
        <path fill="#E6E6E6" d="M15.528 67.394v7.094c0 1.96 1.585 3.548 3.546 3.548h106.412c1.96 0 3.546-1.587 3.546-3.548v-7.094H15.528z"/>
        <path opacity=".1" d="M68.732 70.94h7.096c1.96 0 3.546-1.587 3.546-3.547H65.187c0 1.96 1.584 3.548 3.545 3.548z"/>
        <path opacity=".1" fill="#FFF" d="M114.845 0H72.28l31.923 67.394h17.735v-60.3c0-3.917-3.177-7.094-7.093-7.094z"/>
        <g>
            <path fill="#434854" d="M49.37 30.004H3.292C1.474 30.004 0 31.478 0 33.296v46.078c0 1.818 1.474 3.292 3.292 3.292H49.37c1.818 0 3.292-1.474 3.292-3.292V33.296c0-1.818-1.474-3.292-3.292-3.292zm0 49.37H3.292V39.878H49.37v39.496z"/>
            <circle fill="#EF4D4D" cx="4.938" cy="34.94" r="1.646"/>
            <circle fill="#EACA44" cx="9.875" cy="34.94" r="1.645"/>
            <circle fill="#84BF56" cx="14.812" cy="34.94" r="1.646"/>
            <path fill="#EAEAEA" d="M3.292 39.878H49.37v39.496H3.292z"/>
            <g opacity=".1">
                <path d="M9.874 61.272H23.04c.91 0 1.645-.735 1.645-1.646V46.46c0-.91-.736-1.645-1.646-1.645H9.873c-.91 0-1.645.736-1.645 1.646v13.167c0 .91.735 1.645 1.644 1.645zM29.623 48.107h13.165c.91 0 1.645-.737 1.645-1.646 0-.91-.735-1.645-1.645-1.645H29.623c-.91 0-1.646.736-1.646 1.646 0 .91.736 1.647 1.646 1.647zM42.788 51.398H29.623c-.91 0-1.646.734-1.646 1.645s.736 1.646 1.646 1.646h13.165c.91 0 1.645-.737 1.645-1.647s-.736-1.645-1.645-1.645zM42.788 57.98H29.623c-.91 0-1.646.736-1.646 1.646s.736 1.646 1.646 1.646h13.165c.91 0 1.645-.735 1.645-1.646s-.736-1.646-1.645-1.646zM42.788 64.563H9.874c-.91 0-1.645.735-1.645 1.646 0 .908.734 1.645 1.644 1.645h32.914c.91 0 1.645-.736 1.645-1.646 0-.91-.736-1.647-1.645-1.647zM42.788 71.146H9.874c-.91 0-1.645.736-1.645 1.646s.734 1.645 1.644 1.645h32.914c.91 0 1.645-.735 1.645-1.645s-.736-1.646-1.645-1.646z"/>
            </g>
        </g>
    </symbol>
    <symbol id="video_icon" viewBox="0 0 117 89">
        <path opacity=".2" fill="#020202" d="M117 62.08c0-5.567-4.513-10.08-10.08-10.08H10.08C4.512 52 0 56.513 0 62.08v16.84C0 84.488 4.513 89 10.08 89h96.84c5.567 0 10.08-4.513 10.08-10.08V62.08z"/>
        <path fill="#565656" d="M117 60.08c0-5.567-4.513-13.08-10.08-13.08H10.08C4.512 47 0 54.513 0 60.08v16.84C0 82.487 4.513 87 10.08 87h96.84c5.567 0 10.08-4.513 10.08-10.08V60.08z"/>
        <path fill="#D61E1E" d="M117 10.08C117 4.514 112.487 0 106.92 0H10.08C4.512 0 0 4.514 0 10.08v46.84C0 62.486 4.513 67 10.08 67h96.84c5.567 0 10.08-4.514 10.08-10.08V10.08z"/>
        <path fill="#9E9E9E" d="M0 59h117v8H0z"/>
        <ellipse opacity=".3" cx="24.136" cy="64.221" rx="11.415" ry="11.397"/>
        <circle fill="#D1D1D1" stroke="#FFF" stroke-width="5.265" stroke-miterlimit="10" cx="24.11" cy="62.104" r="8.48"/>
        <path opacity=".2" fill-rule="evenodd" clip-rule="evenodd" fill="#FFF" d="M65.468 35.583c-.723.53-2.473 1.647-5.243 3.352-2.232 1.353-4.642 2.557-7.233 3.616-.24.117-.422.176-.542.176-.302 0-.603-.087-.905-.266-.36-.232-.632-1.057-.813-2.467v-.53c-.06-.353-.09-.586-.09-.704v-.706c0-.353-.016-.604-.045-.75-.03-.147-.046-.397-.046-.75v-.838s-.014-.47-.044-.795c-.032-.32-.045-.587-.045-.79v-.662-.708c0-1.29.09-3.7.272-7.23.06-.47.09-.91.09-1.32 0-.177.06-.353.183-.53.42-.823 1.084-1.06 1.987-.706 2.532 1 4.943 2.206 7.233 3.616 2.65 1.646 4.398 2.763 5.243 3.352.904.646 1.596 1.204 2.078 1.675.3.235.482.617.543 1.145 0 .414-.182.796-.544 1.147-.422.41-1.115.967-2.078 1.673z"/>
    </symbol>
    <symbol id="IQ_icon" viewBox="0 0 165 165">
        <circle fill="#E5E5E5" cx="83.5" cy="83.5" r="79"/>
        <path fill="#00AC83" d="M123.078 79.762c1.787-13.53-3.702-29.744-19.914-37.02C90.346 36.99 67.72 37 55.784 47.878c-10.407 9.49-12.753 22.96-12.753 22.96s-1.073 5.003-1.073 6.664c0 1.588 1.788 2.213 1.583 3.03-.204.815-2.207 3.15-3.738 5.702-1.53 2.55-5.442 8.222-5.442 9.752 0 1.53.916 2.097 2.752 2.71 1.837.61 3.266 1.12 3.572 1.835.305.715-.875 2.755-.938 4.21-.054 1.24.4 1.38 1.33 1.74 1.153.45 2.923.506 2.923.506s-3.944.746-3.552 2.36c.406 1.675 2.78 2.015 2.992 3.326.104.662-2.008 4.054-1.73 7.354.363 4.308 4.443 6.236 10.914 5.197 6.167-.99 9.066-1.91 9.86 1.49.5 2.143.446 5.754 1.364 9.837l.113.51h47.328c-2.024-3.688-4.685-9.61-4.685-17.144 0-5.17.514-12.842 4.22-16.923 4.648-5.114 10.82-12.36 12.255-23.23z"/>
        <path fill="#E8C946" d="M84 50.687c-12.65 0-22.903 10.254-22.903 22.903 0 8.328 6.247 16.656 12.493 24.985h20.82c6.246-8.33 12.493-16.657 12.493-24.985 0-12.65-10.254-22.903-22.903-22.903z"/>
        <path opacity=".4" fill="#FFF" d="M84 54.852c-1.15 0-2.082.932-2.082 2.08 0 1.152.932 2.084 2.082 2.084 8.05 0 14.575 6.525 14.575 14.574 0 1.15.93 2.082 2.08 2.082 1.152 0 2.083-.932 2.083-2.082 0-10.35-8.388-18.738-18.738-18.738z"/>
        <path opacity=".2" d="M94.406 77.754c-.002-2.298-1.867-4.16-4.165-4.16-1.247 0-2.354.56-3.116 1.432-.766-.873-1.873-1.436-3.124-1.436-1.253 0-2.36.563-3.125 1.437-.763-.872-1.87-1.433-3.12-1.433-2.3 0-4.163 1.862-4.165 4.16v.005c.002 2.297 1.866 4.158 4.164 4.158.763 0 1.47-.22 2.082-.578v17.235h2.082v-20.82c0-1.15.932-2.083 2.082-2.083 1.147 0 2.072.926 2.08 2.07l-.002.017h.004v20.815h2.082V81.34c.614.357 1.32.578 2.082.578 2.3 0 4.164-1.865 4.164-4.164h-.004zm-16.652 2.078c-1.15 0-2.08-.93-2.082-2.08.002-1.148.932-2.08 2.082-2.08s2.08.932 2.082 2.08c-.002 1.15-.932 2.08-2.082 2.08zm12.492 0c-1.15 0-2.082-.93-2.082-2.083l-.002-.01c.01-1.146.936-2.068 2.08-2.068 1.15 0 2.082.932 2.082 2.082h.005c-.006 1.148-.934 2.078-2.084 2.078z"/>
        <path fill="#E6E6E6" d="M94.41 102.738c0 1.15-.932 2.083-2.08 2.083H75.67c-1.15 0-2.082-.93-2.082-2.082 0-1.15.932-2.082 2.082-2.082H92.33c1.15 0 2.08.933 2.08 2.082zM94.41 106.903c0 1.15-.932 2.08-2.08 2.08H75.67c-1.15 0-2.082-.93-2.082-2.08s.932-2.082 2.082-2.082H92.33c1.15 0 2.08.932 2.08 2.083z"/>
        <path fill="#E6E6E6" d="M94.41 111.067c0 1.15-.932 2.082-2.08 2.082H75.67c-1.15 0-2.082-.933-2.082-2.083 0-1.15.932-2.083 2.082-2.083H92.33c1.15 0 2.08.933 2.08 2.083z"/>
        <g opacity=".1">
            <path d="M75.672 104.82H92.33c1.148 0 2.08-.93 2.08-2.082H73.59c0 1.152.93 2.083 2.082 2.083zM75.672 108.984H92.33c1.148 0 2.08-.93 2.08-2.08H73.59c0 1.15.93 2.08 2.082 2.08zM75.672 113.15H92.33c1.148 0 2.08-.933 2.08-2.083H73.59c0 1.15.93 2.082 2.082 2.082z"/>
        </g>
        <path opacity=".1" d="M84 94.41c-7.092 0-13.52-2.75-18.348-7.213 2.255 3.792 5.092 7.583 7.938 11.378h20.82c2.846-3.795 5.683-7.586 7.938-11.378C97.52 91.66 91.092 94.41 84 94.41z"/>
        <path fill="#E6E6E6" d="M78.135 113.15c.864 2.418 3.152 4.163 5.865 4.163s5.003-1.745 5.865-4.164h-11.73z"/>
        <path fill="none" stroke="#00AC83" stroke-width="4" stroke-linecap="round" stroke-miterlimit="10" d="M83.834 17.5v11M109.396 22.133l-5.124 9.734M130.006 37.417l-8.344 7.166M55.882 22.133l5.123 9.734M35.27 37.417l8.345 7.166"/>
    </symbol>
    <symbol id="bonus_ribbon" viewBox="0 0 440 176">
        <path fill="#991C87" d="M0 140.424c12.618-.132 24.953.515 36.954 1.946-1.09 11.533-1.393 22.91-1.006 34.003 16.346-16.35 34.776-30.484 54.76-41.94L65.43 90.325c-23.917 13.702-45.974 30.633-65.43 50.1z"/>
        <path fill="#66145E" d="M55.848 135.274c11.828-1.177 23.445-1.51 34.743-1.04L65.55 90.53c-4.57 15.026-7.78 30.013-9.7 44.744z"/>
        <path fill="#991C87" d="M440.023 140.424c-12.618-.128-24.954.517-36.95 1.946 1.086 11.534 1.39 22.91 1 34.003-16.343-16.35-34.778-30.484-54.758-41.94l25.28-44.107c23.914 13.7 45.968 30.632 65.428 50.098z"/>
        <path fill="#66145E" d="M384.178 135.274c-11.828-1.176-23.447-1.51-34.746-1.04l25.043-43.705c4.572 15.02 7.783 30.01 9.703 44.74z"/>
        <path fill="#CC44B2" d="M317.82 14.775C289.04 5.848 259.05.937 228.958.122l.008-.015c-.688-.02-1.378-.02-2.066-.035-1.178-.024-2.358-.05-3.535-.06C222.247 0 221.13 0 220.01 0c-1.115 0-2.234 0-3.35.012-1.178.01-2.356.036-3.533.06-.688.016-1.38.017-2.07.036.002 0 .008.01.012.015-30.1.815-60.09 5.727-88.87 14.653-34.49 10.68-73.23 32.138-102.36 53.462l36 67.036c24.63-18.023 52.25-31.912 81.41-40.94 24.92-7.732 50.95-11.906 77.05-12.44.94-.018 1.89-.036 2.83-.047.96-.01 1.91-.01 2.87-.01.96 0 1.91 0 2.87.01.94.01 1.88.03 2.82.047 26.1.534 52.13 4.708 77.05 12.442 29.15 9.026 56.77 22.915 81.41 40.938l35-67.036c-29.13-21.324-66.86-42.783-101.35-53.463z"/>
        <g fill="#66145E">
            <path d="M113.28 53.985c-.198-.572-.397-1.145-.597-1.715-.09-.266.014-.45.317-.558.533-.185 1.066-.367 1.6-.55.306-.103.504-.02.595.245l4.808 14.205c.27.8.625 1.298 1.06 1.492.435.195 1.013.173 1.735-.066.736-.243 1.473-.484 2.21-.722.578-.186 1.038-.244 1.38-.174.34.07.582.333.726.79.17.536.133.895-.11 1.075-.243.18-.667.366-1.27.56-.775.25-1.55.503-2.323.76-.51.17-1.04.296-1.59.376-.54.08-1.06.07-1.54-.032-.48-.1-.93-.33-1.34-.69-.41-.36-.75-.9-.99-1.62-.35.66-.87 1.27-1.54 1.82s-1.64 1.06-2.9 1.52c-2.14.79-4.06.87-5.77.22-1.71-.64-3.05-2.14-3.98-4.49-.56-1.41-.84-2.69-.83-3.83.01-1.14.26-2.16.75-3.06.49-.9 1.19-1.68 2.09-2.33.9-.65 1.96-1.2 3.16-1.64 1.46-.53 2.92-1.05 4.39-1.56zm-.44 14.42c1.843-.673 2.98-1.507 3.404-2.522.427-1.016.412-2.188-.05-3.52l-2.137-6.143c-1.604.56-3.207 1.13-4.806 1.715-1.61.59-2.73 1.48-3.35 2.65-.62 1.172-.53 2.797.28 4.87.65 1.683 1.53 2.737 2.64 3.174 1.11.43 2.45.35 4.04-.23zm-10.216-15.93c-.304.116-.507.044-.608-.22l-.906-2.366c-.1-.27.003-.46.31-.58.802-.31 1.603-.61 2.404-.91.31-.12.513-.04.61.22l.88 2.37c.1.26-.007.45-.312.56-.794.29-1.586.59-2.378.89zm5.864-2.17c-.307.11-.507.032-.603-.232l-.86-2.384c-.096-.27.01-.46.32-.57.805-.29 1.61-.58 2.416-.86.31-.11.52-.03.61.23l.84 2.39c.1.26-.01.45-.32.56-.8.27-1.59.56-2.39.84z"/>
            <path d="M132.132 60.82c.3 1.027.91 1.676 1.83 1.954.917.28 2.015.237 3.3-.117.088-.024.175-.05.263-.072.585-.16 1.042-.205 1.377-.135.33.072.557.324.673.76.117.436.068.775-.146 1.023-.22.247-.64.457-1.28.633-1.22.333-2.3.5-3.24.49-.94-.008-1.75-.408-2.43-1.208-.16.752-.47 1.407-.93 1.972s-1.24 1.012-2.33 1.35c-1.17.358-2.33.726-3.5 1.1-.55.177-.97.23-1.26.163-.3-.067-.51-.314-.65-.743-.15-.454-.14-.8.04-1.036.18-.237.55-.448 1.13-.636 1.08-.35 2.17-.69 3.26-1.028.55-.17.96-.37 1.24-.604.27-.23.44-.51.5-.837.06-.33.05-.72-.04-1.16-.09-.45-.22-.95-.39-1.52l-3.07-10.23c-.08-.27.03-.45.33-.55l1.6-.48c.3-.09.49 0 .57.27 1.03 3.54 2.07 7.08 3.1 10.62zm-2.13 13.662c-.28.09-.463-.002-.547-.27l-.762-2.42c-.085-.268.014-.445.3-.536.737-.23 1.478-.46 2.218-.686.29-.087.47.005.55.275l.74 2.425c.08.27-.02.448-.3.533-.73.224-1.46.45-2.19.68zm5.407-1.638c-.29.084-.47-.01-.55-.28l-.72-2.43c-.08-.272.02-.45.31-.533.74-.21 1.48-.43 2.22-.64.28-.08.47.02.54.29.23.82.46 1.63.68 2.44.08.27-.03.45-.31.53-.74.21-1.47.42-2.2.64z"/>
            <path d="M138.15 64.866c-.61.167-1.072.216-1.39.144-.315-.07-.55-.378-.703-.92-.107-.38-.036-.687.215-.917.25-.23.667-.428 1.25-.588 2.046-.563 4.095-1.103 6.148-1.62-.69-.64-1.308-1.427-1.848-2.363-.542-.937-.988-2.087-1.34-3.45-.756-2.917-.59-5.288.535-7.11 1.122-1.82 2.92-3.028 5.365-3.593 5.466-1.25 8.804 1.17 9.976 7.04.62 3.06.4 5.4-.632 7.01-1.035 1.61-2.813 2.69-5.354 3.27-4.09.94-8.164 1.97-12.222 3.08zm8.765-18.11c-1.814.417-3.045 1.315-3.682 2.674-.635 1.358-.712 2.98-.24 4.867.557 2.24 1.38 3.77 2.458 4.593 1.08.823 2.54 1.013 4.4.585s3.1-1.2 3.74-2.348c.64-1.146.74-2.806.28-4.982-.43-2.038-1.2-3.56-2.33-4.556s-2.67-1.28-4.6-.84zm-2.274-5.37c-.31.072-.5-.028-.56-.302l-.58-2.47c-.06-.272.06-.447.38-.52.63-.148 1.27-.294 1.9-.438.32-.072.51.03.57.306.19.824.38 1.647.56 2.472.06.275-.06.447-.37.52-.62.14-1.25.284-1.87.43zM159.1 31.1c-.05-.276.086-.445.408-.503.565-.102 1.13-.202 1.694-.3.32-.057.51.055.556.332 1.348 7.78 2.693 15.56 4.04 23.35.144.83.437 1.37.88 1.63.44.25 1.03.31 1.774.19l2.23-.36c1.19-.19 1.844.11 1.962.89.085.56-.005.91-.27 1.06-.264.15-.705.28-1.326.37l-1.728.27c-1.856.3-3.243.18-4.166-.39-.925-.57-1.536-1.65-1.828-3.26l-4.236-23.3zM171 57.787c-.59.093-.99.058-1.2-.11-.21-.164-.347-.455-.415-.873-.09-.556-.062-.895.088-1.02.148-.123.534-.235 1.16-.335 1.5-.24 3.006-.47 4.51-.68.597-.09 1.054-.09 1.37 0 .312.08.5.34.557.75.07.53-.02.9-.28 1.12-.256.22-.695.37-1.315.46-1.495.21-2.987.44-4.478.67z"/>
            <path d="M175.34 57.135c-.592.084-.99.043-1.195-.126-.207-.17-.342-.47-.403-.88-.082-.56-.048-.9.102-1.02s.536-.23 1.162-.32c1.506-.22 3.01-.42 4.52-.61.596-.08 1.053-.07 1.366.02.313.09.496.34.546.76.065.53-.033.9-.292 1.12-.26.21-.7.36-1.322.44-1.497.19-2.99.39-4.484.6z"/>
            <path d="M186.297 40.787c1.51-.943 3.224-1.783 5.14-2.508 1.914-.73 3.92-1.16 6-1.29 2.364-.15 4.282.05 5.74.59 1.46.54 2.603 1.28 3.434 2.21.83.93 1.4 1.98 1.69 3.15.3 1.17.46 2.32.5 3.45.06 1.83-.08 3.28-.39 4.34s-.82 1.87-1.52 2.42c-.7.54-1.61.9-2.76 1.08-1.14.18-2.51.31-4.12.4-3.9.23-7.79.53-11.68.92-.44.04-.92.05-1.43.02-.51-.04-.91-.12-1.2-.26-.39.27-.87.46-1.44.58-.57.12-1.15.21-1.74.28-.92.11-1.83.22-2.75.34-.59.07-1.04.05-1.36-.08s-.51-.4-.57-.82c-.06-.48.04-.82.3-1.02.26-.21.71-.35 1.33-.43 1.11-.14 2.21-.28 3.32-.41 1.08-.13 1.71-.48 1.88-1.06.18-.59.2-1.51.07-2.77L183.6 39.5c-.03-.28.11-.437.423-.47.545-.06 1.094-.115 1.64-.17.31-.034.48.092.51.37l.15 1.515zm14.733 11.436c.96-.053 1.768-.142 2.424-.27s1.185-.394 1.59-.79c.405-.398.686-.966.84-1.705.153-.738.206-1.742.158-3.008-.043-1.153-.206-2.19-.49-3.11-.283-.918-.74-1.688-1.375-2.31-.635-.62-1.477-1.083-2.525-1.382-1.05-.3-2.343-.403-3.876-.307-1.03.07-2.066.23-3.1.49-1.032.26-2.037.57-3.01.94s-1.894.77-2.76 1.22c-.867.45-1.652.88-2.36 1.29l.78 7.78c.086.87.07 1.62-.048 2.26 4.578-.46 9.162-.82 13.752-1.07zM196.6 33.66c-.317.02-.485-.11-.505-.39l-.17-2.53c-.02-.28.132-.433.454-.453.64-.044 1.28-.084 1.93-.122.32-.02.49.112.5.394l.15 2.53c.01.28-.14.43-.45.45-.64.03-1.28.07-1.91.12zm17.157 30.21c-.235-.364-.438-.755-.603-1.174-.166-.42-.254-.953-.265-1.6-.01-.37.05-.777.17-1.23.12-.452.34-.885.66-1.297.31-.42.75-.77 1.31-1.05.55-.29 1.26-.44 2.12-.44.68 0 1.33.13 1.97.4.63.27 1.1.64 1.42 1.13.06.11.07.2.04.27-.03.07-.08.13-.14.19l-.66.54c-.15.14-.31.12-.48-.05-.27-.29-.6-.51-.99-.68-.4-.17-.85-.26-1.35-.26-.77 0-1.36.26-1.78.77-.42.51-.62 1.13-.62 1.86 0 .53.15 1.03.43 1.49.28.46.57.82.89 1.07 1.51-.01 3.03-.01 4.54.01.17 0 .26.1.25.3l-.01 1.01c0 .19-.09.29-.26.29-2.77-.03-5.54-.01-8.3.04-.18 0-.26-.1-.27-.29l-.02-1.02c-.01-.2.08-.3.25-.31l1.64-.02zm3.71-10.165c0 .282-.147.422-.445.422-.522.002-1.044.005-1.565.01-.298 0-.447-.138-.45-.42-.084-9.292-.17-18.586-.253-27.88-.002-.28.158-.423.485-.426h1.71c.32 0 .49.14.49.43l.02 27.88zm30.25-15.947l.17-1.808c.028-.28.2-.405.516-.375.554.054 1.108.108 1.662.164.317.03.462.18.433.46-.513 4.97-1.023 9.94-1.535 14.91-.087.84.027 1.44.337 1.8.31.36.838.57 1.586.66.763.08 1.523.17 2.286.26.598.07 1.034.21 1.313.41.278.2.387.54.328 1.02-.07.56-.25.87-.545.93-.293.06-.75.05-1.373-.02-.8-.1-1.602-.19-2.402-.28-.533-.06-1.063-.17-1.586-.32-.525-.16-.982-.38-1.374-.67-.39-.29-.698-.69-.922-1.2-.22-.51-.29-1.14-.22-1.89-.59.45-1.3.79-2.13 1.01s-1.91.28-3.22.18c-2.24-.18-3.99-.9-5.25-2.2-1.27-1.3-1.85-3.22-1.71-5.75.08-1.52.36-2.8.84-3.83.48-1.03 1.12-1.86 1.93-2.47.81-.62 1.75-1.04 2.82-1.26 1.08-.22 2.25-.29 3.51-.19 1.53.12 3.06.25 4.58.39zm-6.33 12.936c1.928.15 3.29-.136 4.09-.884.8-.748 1.27-1.818 1.403-3.22l.614-6.477c-1.67-.158-3.342-.303-5.015-.435-1.69-.133-3.06.21-4.1 1.017-1.04.808-1.62 2.325-1.76 4.545-.11 1.8.24 3.126 1.05 3.982.81.858 2.04 1.343 3.7 1.472zM238.79 31.96c-.318-.02-.47-.17-.453-.452l.16-2.53c.02-.28.19-.41.514-.39.85.056 1.69.113 2.53.175.33.024.48.177.46.457l-.19 2.528c-.02.28-.19.41-.51.385-.83-.062-1.66-.118-2.49-.172zm6.144.46c-.32-.026-.468-.18-.443-.46l.21-2.527c.03-.28.2-.407.52-.38.84.07 1.68.146 2.52.223.33.03.47.186.45.465l-.23 2.53c-.02.28-.2.41-.52.38-.83-.07-1.66-.15-2.49-.22zm7.916 23.767c-.593-.07-.967-.21-1.123-.428-.155-.22-.21-.54-.163-.96.063-.56.183-.88.358-.96.175-.08.577-.09 1.204-.01 1.51.18 3.017.36 4.523.56.59.08 1.03.2 1.31.37.28.16.39.46.33.87-.08.53-.27.86-.57 1.01-.31.14-.77.17-1.39.09-1.49-.2-2.99-.39-4.49-.57zm13.254-3.747c-.17 1.058.1 1.906.807 2.55.71.645 1.71 1.075 3.02 1.304.09.017.18.03.27.048.59.104 1.03.26 1.3.466.27.206.36.532.28.975-.08.443-.27.73-.56.863s-.77.14-1.41.026c-1.24-.218-2.27-.53-3.12-.94s-1.39-1.116-1.66-2.13c-.46.613-1.02 1.072-1.67 1.386-.65.313-1.54.386-2.66.224-1.14-.164-2.28-.322-3.42-.475-.56-.073-.99-.207-1.28-.4-.29-.192-.41-.514-.35-.96.06-.476.25-.778.57-.907.32-.13.78-.156 1.38-.077 1.06.142 2.12.287 3.18.44.57.08 1.02.076 1.37-.015.35-.09.62-.27.82-.54.19-.27.34-.625.46-1.064.115-.438.217-.95.307-1.534l3.36-22.135c.04-.278.23-.394.55-.344l1.7.27c.328.05.468.22.42.5l-3.6 22.48z"/>
            <path d="M269.694 58.655c-.59-.103-.955-.266-1.1-.49-.143-.225-.18-.546-.108-.962.095-.555.23-.867.413-.937.17-.068.58-.05 1.2.06 1.5.263 2.99.538 4.49.824.59.113 1.02.262 1.3.444.27.183.36.48.28.895-.11.52-.32.85-.63.97-.32.12-.78.12-1.4.01-1.49-.29-2.97-.56-4.46-.82z"/>
            <path d="M274.064 59.456c-1.175-.224-1.698-.69-1.565-1.41.1-.583.31-.91.61-.982.3-.07.77-.05 1.39.07 4.47.853 8.93 1.81 13.37 2.868.88.21 1.6.313 2.14.302.55-.01 1-.15 1.37-.422.36-.272.65-.67.86-1.198s.42-1.2.62-2.02c.32-1.284.5-2.466.53-3.547.03-1.08-.14-2.045-.51-2.89-.37-.848-.96-1.57-1.75-2.166-.8-.59-1.86-1.05-3.18-1.35-1.08-.24-2.15-.3-3.21-.17-1.06.13-2.08.54-3.05 1.23-.24.21-.46.19-.66-.05L280 46.48c-.247-.19-.256-.39-.02-.6.98-.75 2.167-1.3 3.553-1.66 1.382-.35 3.06-.31 5.01.14 2.04.47 3.63 1.18 4.755 2.108 1.124.93 1.91 1.976 2.36 3.14.45 1.16.637 2.4.565 3.72s-.277 2.62-.61 3.9c-.32 1.23-.686 2.246-1.086 3.06-.4.81-.89 1.427-1.466 1.846-.57.42-1.26.654-2.07.713-.8.06-1.77-.053-2.91-.326-4.66-1.13-9.35-2.14-14.05-3.04zm31.396 1.99c-.31 1.025-.15 1.9.472 2.634.62.734 1.564 1.297 2.84 1.698l.217.068c.58.183.99.396 1.23.637.24.24.3.55.18.924-.2.616-.45.934-.76.953-.31.02-.77-.067-1.37-.258-.95-.3-1.76-.626-2.44-.982-.68-.355-1.21-.896-1.59-1.628l-.97 3.237c-.58 1.91-1.52 3.23-2.8 3.97-1.29.73-2.98.8-5.1.22l-.72-.2c-.28-.08-.39-.25-.31-.52l.39-1.47c.07-.28.25-.37.53-.3l.98.27c1.16.32 2.13.29 2.9-.11.77-.4 1.33-1.17 1.67-2.33 1.76-6.06 3.52-12.12 5.27-18.18.08-.27.27-.36.57-.28.53.15 1.07.31 1.6.47.3.09.41.27.33.54l-3.18 10.6z"/>
            <path d="M320.692 72.645c-1.25-.456-2.332-1.038-3.252-1.75-.92-.71-1.56-1.57-1.92-2.587-.817.702-1.604 1.044-2.363 1.028s-1.538-.156-2.343-.418c-.845-.276-1.69-.548-2.54-.815-.574-.182-.984-.383-1.23-.607s-.3-.564-.157-1.023c.167-.537.405-.824.72-.86.313-.034.773.044 1.382.235.79.252 1.59.508 2.38.767.32.104.65.153 1 .15.35-.002.7-.1 1.06-.294.35-.19.69-.48 1.02-.88.32-.39.6-.94.84-1.63.08-.33.17-.68.27-1.04s.22-.73.35-1.1c1.97-5.95 5.65-8.07 10.97-6.13 2.62.96 4.32 2.42 5.11 4.32.78 1.91.6 4.26-.51 7.07-1.15 2.91-2.64 4.78-4.43 5.66-1.8.87-3.92.84-6.38-.06zm5.394-14.76c-1.883-.687-3.45-.604-4.678.233-1.232.84-2.185 2.26-2.873 4.257-.727 2.103-.857 3.81-.407 5.113.45 1.307 1.573 2.277 3.376 2.935 1.802.66 3.295.646 4.5-.057 1.2-.7 2.21-2.085 3.01-4.16.752-1.942.93-3.642.518-5.096-.413-1.45-1.564-2.536-3.446-3.224z"/>
        </g>
        <g fill="#FFF">
            <path d="M113.28 51.774c-.198-.57-.397-1.144-.597-1.715-.09-.27.014-.45.317-.56l1.6-.55c.306-.11.504-.02.595.24l4.808 14.2c.27.8.625 1.3 1.06 1.49.435.19 1.013.17 1.735-.07.736-.25 1.473-.49 2.21-.72.578-.19 1.038-.25 1.38-.18.34.07.582.33.726.79.17.53.133.89-.11 1.07-.243.18-.667.36-1.27.56-.775.25-1.55.5-2.323.76-.51.17-1.04.29-1.59.37s-1.06.07-1.54-.04c-.48-.1-.93-.34-1.34-.7-.41-.36-.75-.9-.99-1.62-.35.66-.87 1.26-1.54 1.82s-1.64 1.06-2.9 1.52c-2.14.78-4.06.86-5.77.21s-3.05-2.14-3.98-4.5c-.56-1.42-.84-2.69-.83-3.83s.26-2.16.75-3.06c.49-.9 1.19-1.68 2.09-2.34.9-.65 1.96-1.2 3.16-1.64 1.46-.53 2.92-1.05 4.39-1.56zm-.44 14.422c1.843-.674 2.98-1.51 3.404-2.523.427-1.016.412-2.188-.05-3.52l-2.137-6.143c-1.604.558-3.207 1.13-4.806 1.715-1.61.59-2.73 1.48-3.35 2.65-.62 1.172-.53 2.797.28 4.87.65 1.683 1.53 2.737 2.64 3.174 1.11.43 2.45.35 4.04-.23zm-10.216-15.932c-.304.117-.507.045-.608-.22-.303-.788-.604-1.577-.906-2.365-.1-.27.003-.46.31-.58.802-.31 1.603-.61 2.404-.91.31-.12.513-.04.61.22l.88 2.37c.1.26-.007.45-.312.56-.794.29-1.586.59-2.378.89zm5.864-2.17c-.307.11-.507.033-.603-.232l-.86-2.384c-.096-.264.01-.453.32-.564.805-.29 1.61-.575 2.416-.857.31-.108.52-.028.61.236l.84 2.394c.1.266-.01.452-.32.56-.8.277-1.59.56-2.39.847z"/>
            <path d="M132.132 58.61c.3 1.027.91 1.676 1.83 1.954.917.28 2.015.237 3.3-.117.088-.024.175-.05.263-.072.585-.16 1.042-.205 1.377-.136.33.07.557.32.673.76.117.43.068.77-.146 1.02-.22.24-.64.45-1.28.63-1.22.33-2.3.5-3.24.49-.94-.01-1.75-.41-2.43-1.21-.16.75-.47 1.4-.93 1.97s-1.24 1.01-2.33 1.35c-1.17.35-2.33.72-3.5 1.1-.55.17-.97.23-1.26.16-.3-.07-.51-.32-.65-.75-.15-.46-.14-.8.04-1.04s.55-.45 1.13-.64c1.08-.35 2.17-.69 3.26-1.03.55-.17.96-.37 1.24-.61.27-.23.44-.51.5-.84.06-.33.05-.72-.04-1.16-.09-.45-.22-.95-.39-1.52l-3.08-10.23c-.08-.27.03-.45.33-.54l1.6-.48c.31-.09.5 0 .58.27l3.09 10.62zm-2.13 13.662c-.28.088-.463-.002-.547-.27l-.762-2.418c-.085-.27.014-.446.3-.537.737-.23 1.478-.46 2.218-.686.29-.08.47.01.55.28l.74 2.43c.08.27-.02.45-.3.54-.73.22-1.46.45-2.19.68zm5.407-1.638c-.29.083-.47-.01-.55-.28l-.72-2.432c-.08-.27.02-.448.31-.53.74-.22 1.48-.432 2.22-.644.28-.08.47.014.54.286.23.813.46 1.625.68 2.438.08.27-.03.447-.31.527l-2.2.63z"/>
            <path d="M138.15 62.656c-.61.167-1.072.216-1.39.144-.315-.07-.55-.378-.703-.92-.107-.38-.036-.687.215-.917.25-.23.667-.428 1.25-.588 2.046-.563 4.095-1.103 6.148-1.62-.69-.64-1.308-1.427-1.848-2.363-.542-.937-.988-2.087-1.34-3.45-.756-2.917-.59-5.288.535-7.11 1.122-1.82 2.92-3.028 5.365-3.593 5.466-1.25 8.804 1.17 9.976 7.04.62 3.06.4 5.4-.632 7.01-1.035 1.61-2.813 2.69-5.354 3.27-4.09.94-8.164 1.97-12.222 3.08zm8.765-18.11c-1.814.417-3.045 1.315-3.682 2.674-.635 1.358-.712 2.98-.24 4.867.557 2.24 1.38 3.77 2.458 4.593 1.08.823 2.54 1.012 4.4.585 1.86-.428 3.1-1.2 3.74-2.348.64-1.146.74-2.806.28-4.982-.43-2.038-1.2-3.56-2.33-4.556s-2.67-1.28-4.6-.84zm-2.274-5.37c-.31.072-.5-.028-.56-.303l-.58-2.468c-.06-.274.06-.448.38-.522.63-.147 1.27-.293 1.9-.437.32-.072.51.03.57.306.19.824.38 1.647.56 2.472.06.275-.06.447-.37.52-.62.14-1.25.283-1.87.43zM159.1 28.89c-.05-.276.086-.445.408-.503.565-.102 1.13-.202 1.694-.3.32-.057.51.055.556.332 1.348 7.78 2.693 15.56 4.04 23.35.144.83.437 1.37.88 1.62.44.25 1.03.31 1.774.19.74-.13 1.484-.24 2.23-.36 1.19-.19 1.844.11 1.962.89.085.56-.005.91-.27 1.06-.264.15-.705.28-1.326.37l-1.728.27c-1.856.3-3.243.18-4.166-.39-.925-.57-1.536-1.65-1.828-3.26l-4.23-23.32zM171 55.576c-.59.094-.99.06-1.2-.108-.21-.165-.347-.457-.415-.874-.09-.556-.062-.895.088-1.02.148-.123.534-.235 1.16-.335 1.5-.24 3.006-.47 4.51-.68.597-.09 1.054-.09 1.37 0 .312.08.5.34.557.75.07.53-.02.9-.28 1.12-.256.22-.695.37-1.315.46-1.495.21-2.987.44-4.478.67z"/>
            <path d="M175.34 54.925c-.592.084-.99.043-1.195-.126-.207-.17-.342-.47-.403-.88-.082-.56-.048-.9.102-1.02s.536-.23 1.162-.32c1.506-.22 3.01-.42 4.52-.61.596-.08 1.053-.07 1.366.02s.496.34.546.76c.065.53-.033.9-.292 1.12-.26.21-.7.36-1.322.44-1.497.19-2.99.39-4.484.6z"/>
            <path d="M186.297 38.577c1.51-.943 3.224-1.783 5.14-2.51 1.914-.722 3.92-1.153 6-1.287 2.364-.15 4.282.056 5.74.595 1.46.54 2.603 1.278 3.434 2.208.83.93 1.4 1.98 1.69 3.155.3 1.174.46 2.326.5 3.45.06 1.83-.08 3.278-.39 4.344-.31 1.067-.82 1.872-1.52 2.42-.7.545-1.61.903-2.76 1.083-1.14.178-2.51.31-4.12.405-3.9.23-7.79.538-11.68.92-.44.045-.92.05-1.43.02-.51-.034-.91-.118-1.2-.257-.39.268-.87.463-1.44.583s-1.15.216-1.74.286c-.92.108-1.83.222-2.75.34-.59.075-1.04.05-1.36-.08s-.51-.4-.57-.82c-.06-.473.04-.814.3-1.02.26-.203.71-.348 1.33-.428 1.11-.14 2.21-.275 3.32-.405 1.08-.13 1.71-.48 1.88-1.07.18-.59.2-1.51.07-2.77l-1.13-10.42c-.03-.28.11-.44.43-.47l1.64-.18c.31-.04.48.09.51.37l.15 1.51zm14.733 11.436c.96-.053 1.768-.142 2.424-.272.656-.12 1.185-.39 1.59-.79.405-.39.686-.96.84-1.7.153-.74.206-1.74.158-3.01-.043-1.15-.206-2.19-.49-3.11-.283-.91-.74-1.68-1.375-2.31-.635-.62-1.477-1.08-2.525-1.38-1.05-.3-2.343-.4-3.876-.3-1.03.07-2.066.23-3.1.49-1.032.26-2.037.57-3.01.94-.973.36-1.894.77-2.76 1.22-.867.45-1.652.88-2.36 1.29l.78 7.78c.086.87.07 1.62-.048 2.26 4.578-.46 9.162-.82 13.752-1.07zM196.6 31.45c-.317.02-.485-.11-.505-.39l-.17-2.53c-.02-.28.132-.434.454-.454.64-.043 1.28-.083 1.93-.12.32-.02.49.11.5.393l.15 2.53c.01.28-.14.43-.45.45-.64.03-1.28.07-1.91.12zm17.157 30.21c-.235-.364-.438-.755-.603-1.175-.166-.42-.254-.952-.265-1.6-.01-.368.05-.776.17-1.23.12-.45.34-.884.66-1.296.31-.42.75-.77 1.31-1.06.55-.29 1.26-.44 2.12-.44.68 0 1.33.13 1.97.4.63.27 1.1.64 1.42 1.13.06.11.07.2.04.27-.03.07-.08.13-.14.19l-.66.54c-.15.14-.31.12-.48-.05-.27-.28-.6-.51-.99-.68-.4-.17-.85-.25-1.35-.25-.77 0-1.36.26-1.78.77-.42.51-.62 1.13-.62 1.86 0 .53.15 1.03.43 1.49s.57.82.89 1.07c1.51-.01 3.03-.01 4.54 0 .17 0 .26.1.25.3l-.01 1.02c0 .19-.09.29-.26.29-2.77-.03-5.54-.01-8.3.04-.18 0-.26-.1-.27-.3l-.02-1.01c-.01-.2.08-.3.25-.3l1.64-.02zm3.71-10.165c0 .282-.147.422-.445.422-.522 0-1.044.005-1.565.01-.298 0-.447-.138-.45-.42-.084-9.292-.17-18.586-.253-27.88-.002-.28.158-.423.485-.426h1.71c.32 0 .49.14.49.43l.02 27.88zm30.25-15.947l.17-1.808c.028-.28.2-.405.516-.375.554.053 1.108.108 1.662.164.317.03.462.18.433.46-.513 4.97-1.023 9.94-1.535 14.91-.087.84.027 1.44.337 1.8.31.36.838.57 1.586.66.763.08 1.523.17 2.286.26.598.07 1.034.21 1.313.41.278.2.387.54.328 1.02-.07.56-.25.87-.545.93-.293.06-.75.05-1.373-.02-.8-.1-1.602-.19-2.402-.28-.533-.06-1.063-.17-1.586-.32-.525-.16-.982-.38-1.374-.67-.39-.29-.698-.69-.922-1.2-.22-.51-.29-1.14-.22-1.89-.59.45-1.3.79-2.13 1.01s-1.91.28-3.22.18c-2.24-.18-3.99-.9-5.25-2.2-1.27-1.3-1.85-3.22-1.71-5.75.08-1.52.36-2.8.84-3.83.48-1.03 1.12-1.86 1.93-2.47.81-.62 1.75-1.04 2.82-1.26 1.08-.22 2.25-.28 3.51-.18 1.53.12 3.06.25 4.58.4zm-6.33 12.936c1.928.15 3.29-.136 4.09-.884.8-.748 1.27-1.818 1.403-3.22l.614-6.477c-1.67-.158-3.342-.303-5.015-.435-1.69-.133-3.06.21-4.1 1.017-1.04.807-1.62 2.325-1.76 4.545-.11 1.8.24 3.125 1.05 3.982.81.858 2.04 1.343 3.7 1.472zM238.79 29.75c-.318-.02-.47-.17-.453-.452l.16-2.53c.02-.28.19-.41.514-.39.85.055 1.69.113 2.53.175.33.023.48.177.46.457l-.19 2.528c-.02.28-.19.408-.51.385-.83-.062-1.66-.118-2.49-.173zm6.144.46c-.32-.027-.468-.18-.443-.46l.21-2.527c.03-.28.2-.407.52-.38.84.07 1.68.145 2.52.223.33.03.47.186.45.465l-.23 2.53c-.02.28-.2.41-.52.38-.83-.07-1.66-.15-2.49-.22zm7.916 23.767c-.593-.07-.967-.21-1.123-.428-.155-.22-.21-.54-.163-.96.063-.56.183-.88.358-.96.175-.08.577-.09 1.204-.01 1.51.18 3.017.36 4.523.56.59.08 1.03.2 1.31.37.28.16.39.46.33.87-.08.53-.27.86-.57 1.01-.31.14-.77.17-1.39.08-1.49-.2-2.99-.39-4.49-.56zm13.254-3.747c-.17 1.058.1 1.906.807 2.55.71.645 1.71 1.075 3.02 1.304.09.017.18.03.27.048.59.104 1.03.26 1.3.466.27.206.36.532.28.975-.08.443-.27.73-.56.863s-.77.14-1.41.026c-1.24-.22-2.27-.53-3.12-.94s-1.39-1.117-1.66-2.13c-.46.612-1.02 1.072-1.67 1.386-.65.313-1.54.386-2.66.223-1.14-.16-2.28-.32-3.42-.47-.56-.07-.99-.2-1.28-.4-.29-.19-.41-.51-.35-.96.06-.47.25-.78.57-.91.32-.13.78-.15 1.38-.07 1.06.14 2.12.29 3.18.44.57.08 1.02.08 1.37-.01.35-.09.62-.27.82-.54.19-.27.34-.62.46-1.06.115-.44.217-.95.307-1.53l3.36-22.13c.04-.28.23-.39.55-.34l1.7.27c.328.06.468.22.42.5l-3.6 22.48z"/>
            <path d="M269.694 56.445c-.59-.103-.955-.266-1.1-.49-.143-.226-.18-.546-.108-.962.095-.555.23-.867.413-.937.17-.068.58-.05 1.2.06 1.5.263 2.99.538 4.49.823.59.11 1.02.26 1.3.44.27.18.36.48.28.89-.11.52-.32.85-.63.97-.32.12-.78.12-1.4.01-1.49-.29-2.97-.56-4.46-.82z"/>
            <path d="M274.064 57.246c-1.175-.224-1.698-.69-1.565-1.41.1-.583.31-.91.61-.982.3-.07.77-.05 1.39.07 4.47.853 8.93 1.81 13.37 2.868.88.21 1.6.313 2.14.302.55-.01 1-.15 1.37-.423.36-.27.65-.67.86-1.19.21-.53.42-1.2.62-2.02.32-1.28.5-2.46.53-3.54.03-1.08-.14-2.04-.51-2.89-.37-.84-.96-1.56-1.75-2.16-.8-.59-1.86-1.05-3.18-1.35-1.08-.24-2.15-.3-3.21-.17-1.06.13-2.08.54-3.05 1.23-.24.21-.46.19-.66-.05-.35-.41-.69-.83-1.04-1.24-.25-.19-.26-.39-.02-.61.98-.75 2.16-1.3 3.55-1.66 1.38-.35 3.06-.31 5.01.14 2.04.47 3.63 1.18 4.75 2.11 1.12.93 1.91 1.98 2.36 3.14.45 1.16.63 2.4.56 3.73s-.28 2.62-.61 3.9c-.32 1.23-.69 2.25-1.09 3.06s-.89 1.43-1.47 1.85c-.573.42-1.263.66-2.07.72-.804.06-1.77-.053-2.91-.33-4.66-1.13-9.35-2.14-14.05-3.04zm31.396 1.99c-.31 1.025-.15 1.9.472 2.634.62.734 1.564 1.296 2.84 1.697l.217.07c.58.182.99.395 1.23.636.24.24.3.55.18.924-.2.616-.45.934-.76.953-.31.02-.77-.067-1.37-.258-.95-.3-1.76-.626-2.44-.982s-1.21-.896-1.59-1.628l-.97 3.237c-.58 1.91-1.52 3.23-2.8 3.97-1.29.73-2.98.8-5.1.22l-.72-.2c-.28-.08-.39-.25-.31-.52l.39-1.47c.07-.28.25-.37.53-.3l.98.27c1.16.32 2.13.29 2.9-.11.77-.4 1.33-1.17 1.67-2.33 1.76-6.06 3.52-12.12 5.27-18.18.08-.27.27-.36.57-.28.53.15 1.07.31 1.6.47.3.09.41.27.33.54l-3.18 10.6z"/>
            <path d="M320.692 70.435c-1.25-.457-2.332-1.038-3.252-1.75-.92-.71-1.56-1.57-1.92-2.587-.817.702-1.604 1.044-2.363 1.028s-1.538-.156-2.343-.418c-.845-.276-1.69-.548-2.54-.815-.574-.182-.984-.384-1.23-.607-.246-.225-.3-.564-.157-1.023.167-.537.405-.824.72-.86.313-.034.773.043 1.382.235.79.252 1.59.508 2.38.767.32.104.65.153 1 .15.35-.002.7-.1 1.06-.294.35-.19.69-.48 1.02-.88.32-.39.6-.94.84-1.63.08-.33.17-.68.27-1.04s.22-.73.35-1.1c1.97-5.95 5.65-8.07 10.97-6.13 2.62.96 4.32 2.42 5.11 4.32.78 1.91.6 4.26-.51 7.06-1.15 2.91-2.64 4.79-4.43 5.66-1.8.88-3.92.85-6.38-.05zm5.394-14.76c-1.883-.687-3.45-.604-4.678.233-1.232.838-2.185 2.26-2.873 4.257-.727 2.103-.857 3.81-.407 5.113.45 1.307 1.573 2.277 3.376 2.935 1.802.66 3.295.646 4.5-.057 1.2-.7 2.21-2.085 3.01-4.16.752-1.942.93-3.642.518-5.096-.413-1.45-1.564-2.536-3.446-3.224z"/>
        </g>
    </symbol>
    <symbol id="dice_icon" viewBox="0 0 143 152">
        <path d="M143.37 67.27h-.28c-.2-9-.4-17.2-.5-25.83-.1-3.94-.3-7.8-2.1-11.44-3.2-6.52-8.6-10.66-15.2-13.2-12.3-4.7-24.7-9.35-37.1-13.84C77.2-1.02 66-.98 55 3.02c-10.1 3.65-20.1 7.4-30.1 11.2-3.9 1.47-7.85 2.87-11.47 4.84-5.9 3.2-10.32 7.9-11.9 14.63-.6 2.6-.7 5.5-.77 8.3C.53 51.5.4 61.1.26 70.6.16 77.2 0 83.8-.02 90.4c0 3.32-.1 6.74.5 10 1.86 9.86 6.73 17.9 15.5 23.16 8.9 5.35 17.87 10.63 26.83 15.9 5.1 3 10.2 5.86 15.3 8.73 6.6 3.6 13.5 4.9 20.8 2.7 3.3-1 6.2-2.7 9.2-4.5 13.1-7.7 26.3-15.2 39.37-23 2.57-1.56 5.03-3.5 7-5.76 6.1-6.83 9.2-14.9 9-24.23-.2-8.75-.1-17.32-.1-26.32zM64.62 22.1c3.7-3.54 11.35-3.47 14.95.13 2.26 2.25 2.18 5.32-.2 7.48-1.8 1.7-4.38 2.6-7.4 2.6-2.63 0-5.05-.6-7.1-2.3-2.65-2.2-2.74-5.4-.25-7.8zM19.2 108.24c-2.1 2.66-5.2 2.83-7.58.44-3.42-3.43-3.77-10.45-.72-14.2 2.2-2.68 5.42-2.8 7.77-.25 1.92 2.08 2.56 4.64 2.66 7.36-.07 2.4-.6 4.7-2.13 6.6zm1.75-44.55c-.28.5-.62 1-1.02 1.5-2.2 2.7-5.57 2.7-7.85.1-3.1-3.6-3.25-10.2-.3-13.9 2.32-2.9 5.74-2.9 8.08-.1.42.5.76 1 1.05 1.53.9 1.63 1.2 3.43 1.3 5.34 0 1.3-.1 2.5-.5 3.6-.2.6-.4 1.16-.7 1.7zM37.7 97.3c-2.3 2.9-5.7 2.95-8.07.12-3-3.57-2.98-10.3.05-13.86 2.28-2.66 5.4-2.7 7.77-.1 1.52 1.64 2.38 4.2 2.38 7.1 0 2.46-.57 4.75-2.13 6.7zm18.28 33.9c-.27.54-.6 1.06-1 1.56-2.3 2.9-5.75 2.9-8.08.06-2.98-3.65-2.97-10.15.03-13.76 2.3-2.8 5.72-2.75 8 .06.4.5.74 1.02 1.02 1.55.85 1.6 1.17 3.4 1.2 5.3 0 1.87-.34 3.65-1.17 5.26zm.45-43.52c-2.04 2-4.66 2-6.76.08-3.9-3.58-3.83-11.7.1-15.2 2.04-1.8 4.7-1.78 6.7.2 2.06 2 2.72 4.6 2.8 7.4-.06 2.85-.73 5.5-2.84 7.54zm38.92 42.85c-2.5 3.36-6.33 3.34-8.78-.08-1.43-2-1.92-4.28-1.94-5.88.02-3.2.58-5.4 2-7.36 2.36-3.3 6.17-3.3 8.62-.1 2.75 3.6 2.8 9.8.1 13.4zm17.53-32.46c-2.2 2.43-5.27 2.5-7.57.1-1.6-1.7-2.6-4.45-2.6-6.97.1-3 .7-5.4 2.3-7.46 2.3-2.84 5.7-2.88 8.1-.15 3.3 3.7 3.2 10.7-.1 14.4zM131 64.5c-2.18 2.55-5.27 2.65-7.63.25-3.6-3.65-3.55-11.34.06-14.95 2.16-2.15 5.07-2.14 7.24.02 1.73 1.72 2.72 4.44 2.73 7.46 0 2.7-.64 5.16-2.4 7.24zm-.4-28.33c-2.5 1.2-5 2.5-7.24 4.12-6.57 4.8-13.65 8.7-20.7 12.8-4.87 2.8-9.6 5.8-14.46 8.7-7.73 4.5-11.45 11.6-13.15 20.1-1.06 5.2-1.24 10.6-1.24 16 0 9.1 0 18.3.2 27.4.1 4.2.7 8.4 1.1 12.6.1.5.3 1.1.5 1.6 1.3 3.6 3.3 4.8 7 4l.6-.1c-4.7 5.2-17.7 6.5-22.8 1.43 1.3-.3 2.8-.5 4.1-1 3-1.13 4.4-3.44 4.5-6.6.3-10.3.7-20.7.9-31 .2-7.15.4-14.3-.5-21.44-1.2-9.2-5.7-16.5-13.1-21.8-6.6-4.66-13.56-8.77-20.36-13.1-7.6-4.9-15.22-9.8-22.8-14.85 1.38.65 2.75 1.3 4.1 2 12.45 6.15 24.9 12.3 37.3 18.6 3.7 1.84 7.4 3.4 11.48 4 7.9 1.2 15.37-.2 22.46-3.74 12.17-6.02 23.65-13.2 35-20.6 2.4-1.52 4.74-3.12 7.1-4.7 2.1-1.36 2.9-3.3 2.48-5.92 3.27 2.8 6.55 5.4 6.58 10.3-3.2-1.2-6.07-.3-8.8 1.1z" clip-rule="evenodd"/>
    </symbol>
    <symbol id="sand_icon" viewBox="0 0 52 6">
        <polyline fill="none"  points="0.483,3.99 5.652,1.136 13.675,5.338 21.696,1.136 29.719,5.338 38.123,1.136 46.527,5.338 52.167,2.26 "/>
    </symbol>
    <symbol id="starFish" viewBox="0 0 52 34">
        <path fill="#771515" d="M23.5 3.88c1.53-1.42 4-1.42 5.53 0l2.8 2.63c1.5 1.5 4.46 2.7 6.54 2.8l11.8.4c2.1.1 2.38 1.1.64 2.2l-5.9 3.9c-1.7 1.2-2.2 3.6-1.1 5.37l7 11.2c1.1 1.77.4 2.6-1.5 1.84l-19.5-7.7c-1.92-.74-5.1-.74-7.04 0l-19.4 7.57C1.4 34.82.72 34 1.82 32.22l7-11.2c1.1-1.77.57-4.16-1.17-5.3l-5.9-3.9C0 10.65.28 9.66 2.35 9.6l11.8-.38c2.1-.06 5.05-1.28 6.57-2.7l2.78-2.64z" opacity=".2"/>
        <path fill="#F97878" d="M23.45 1.1c1.55-1.47 4.1-1.47 5.65 0l2.85 2.68c1.55 1.46 4.57 2.72 6.7 2.78l12.1.4c2.12.06 2.4 1.08.63 2.25l-6.04 4c-1.78 1.2-2.32 3.7-1.2 5.5l7.16 11.4c1.13 1.8.43 2.7-1.56 1.9L29.9 24.3c-2-.78-5.25-.78-7.24 0L2.8 31.98c-1.98.77-2.68-.07-1.55-1.88L8.4 18.63c1.12-1.8.6-4.25-1.2-5.43l-6.03-4C-.6 8.05-.33 7.03 1.8 6.96l12.1-.4c2.13-.06 5.14-1.3 6.7-2.77l2.85-2.7z"/>
        <path fill="#C93636" d="M26.47 14.12c-3.65 0-25.6 17.64-25.23 17.93.35.3 17.58-9.5 24.7-9.5S50.56 32.5 51 31.92c.47-.6-20.88-17.8-24.53-17.8zm25.68-6.28c-1.35.5-7.67 2.3-24.46 4.45 1.3.3 9.3 1.5 14.5 2.1.9-1.9 9.9-6.1 9.9-6.6zm-51.6 0c1.35.5 7.67 2.3 24.46 4.45-1.3.3-9.3 1.5-14.5 2.1C9.6 12.5.6 8.3.6 7.8zm25.95 4.18s5.97-4.33 5.6-5.34c-.4-1.02-6.36-7.13-6.1-5.6" opacity=".3"/>
    </symbol>
    <symbol id="castle_icon" viewBox="0 0 114 58">
        <g>
            <path fill="#FFE8CC" d="M41.2 8.86h33v21h-33z"/>
            <path fill="#723C0F" d="M41.2 9.86v3.6c0-.02 14.06.04 14.06.04 19.07 0 18.93 18.67 18.93 18.67V9.87h-33z" opacity=".13"/>
            <path fill="#FFE8CC" d="M73.35 1.86c-.44 1-1.98 2.95-3.8 2.95-1.84 0-3.38-1.9-3.82-2.9H61.3c-.45 1-2 3-3.82 3-1.83 0-3.38-1.9-3.8-2.9h-4.3c-.42 1-1.96 2.96-3.8 2.96-1.83 0-3.37-1.94-3.8-2.94h-4.53v10H76.2V2h-2.85z"/>
            <path fill="#723C0F" d="M73.35 1.86c-.44 1-2.36 3.18-4.2 3.18-.2 0-.96.22-.96.2v6.62h8v-10h-2.9z" opacity=".13"/>
            <path fill="#FFE8CC" d="M88.2 20.86h21v38h-21z"/>
            <path fill="#723C0F" d="M88.2 20.86v1.25l9.34.1c9.04 0 11.65 17.9 11.65 17.9V20.9h-21z" opacity=".13"/>
            <path fill="#FFE8CC" d="M108.82 15.86c-.2 1-.93 1.4-1.8 1.4s-4.38-.4-4.6-1.4h-2.1c-.2 1-.93 1.4-1.8 1.4s-1.6-.4-1.8-1.4H91.9c-.2 1-.94 1.4-1.8 1.4-.87 0-1.6-.4-1.8-1.4h-2.16v5h26.05v-5h-3.4z"/>
            <path fill="#723C0F" d="M108.82 15.86c-.2 1-.7 1.16-1.58 1.16-.1 0-.05-.24-.05-.25v4.1h5v-5h-3.4z" opacity=".13"/>
            <path fill="#FFE8CC" d="M82.66 17.86L98.66 0l16 17.86"/>
            <path fill="#723C0F" d="M98.2.87V17.5l14.88-.04" opacity=".13"/>
            <path fill="#FFE8CC" d="M81.58 23.86c-.32 1-1.45 2.18-2.8 2.18-1.35 0-2.5-1.18-2.8-2.18h-5.02c-.32 1-1.45 2.18-2.8 2.18-1.36 0-2.5-1.18-2.8-2.18h-4.9c-.32 1-1.45 2.18-2.8 2.18-1.36 0-2.5-1.18-2.8-2.18h-5.08c-.32 1-1.45 2.18-2.8 2.18-1.36 0-2.5-1.18-2.8-2.18H39.1c-.32 1-1.45 2.18-2.8 2.18-1.36 0-2.5-1.18-2.8-2.18h-7.3v31h62v-31h-6.62z"/>
            <path fill="#723C0F" d="M24.2 23.86h4v31h-4z" opacity=".13"/>
            <path fill="#FFE8CC" d="M4.2 20.86h22v38h-22z"/>
            <path fill="#723C0F" d="M4.2 20.86v1.25l9.84.1C23.08 22.2 26.2 40 26.2 40V20.85h-22z" opacity=".13"/>
            <path fill="#FFE8CC" d="M26.17 15.86c-.2 1-.94 1.4-1.8 1.4-.88 0-4.4-.4-4.6-1.4h-2.1c-.2 1-.94 1.4-1.8 1.4-.88 0-1.6-.4-1.82-1.4h-4.8c-.22 1-.95 1.4-1.82 1.4-.86 0-1.6-.4-1.8-1.4H3.48v5h23.7v-5h-1z"/>
            <path fill="#723C0F" d="M26.17 15.86c-.2 1-.9 1.16-1.76 1.16l-.2-.25v4.1h3v-5h-1z" opacity=".13"/>
            <path fill="#FFE8CC" d="M0 17.86L16 0l16 17.86"/>
            <path fill="#723C0F" d="M16.2.87V17.5l14.87-.04" opacity=".13"/>
            <g opacity=".7">
                <path fill="#DBB583" d="M61.2 54.86V48c0-3.06-1.8-6.14-4.85-6.14h-.37c-3.05 0-5.8 3.08-5.8 6.14v6.86h11z"/>
                <path d="M56.35 41.86h-.37c-.24 0-.6.32-.83.35 2.73.4 4.05 3 4.05 5.8v6.9h2V48c0-3.06-1.8-6.14-4.85-6.14z" opacity=".1"/>
                <path fill="#DBB583" d="M103.2 32.86V28.1c0-1.62-2.4-3.24-4.03-3.24h-.2c-1.63 0-2.77 1.62-2.77 3.25v4.8h7z"/>
                <path d="M99.17 24.86h-.2c-.12 0-.82.16-.95.17 1.46.2 1.18 1.58 1.18 3.08v4.8h4v-4.8c0-1.6-2.4-3.2-4.03-3.2z" opacity=".1"/>
                <path fill="#DBB583" d="M19.2 32.86V28.1c0-1.62-1.06-3.24-2.7-3.24h-.2c-1.62 0-2.1 1.62-2.1 3.25v4.8h5z"/>
                <path d="M16.5 24.86h-.18c-.13 0 0 .16-.13.17 1.4.2 2 1.58 2 3.08v4.8h1v-4.8c0-1.6-1.1-3.2-2.7-3.2z" opacity=".1"/>
                <path fill="#DBB583" d="M37.2 36.86v-3.72c0-1.07.2-2.28-.86-2.28h-.12c-1.06 0-1.03 1.2-1.03 2.28v3.72h2z"/>
                <path d="M36.34 30.86h-.12c-.1 0-.12.18-.2.2.94.1 1.17 1.1 1.17 2.08v3.72-3.72c0-1.07.2-2.28-.9-2.28z" opacity=".1"/>
                <path fill="#DBB583" d="M49.2 36.86v-3.72c0-1.07-.04-2.28-1.1-2.28h-.13c-1.06 0-1.78 1.2-1.78 2.28v3.72h3z"/>
                <path d="M48.1 30.86h-.13c-.08 0 0 .18-.08.2.9.1 1.3 1.1 1.3 2.08v4.18-4.18c0-1.07-.1-2.28-1.1-2.28z" opacity=".1"/>
                <path fill="#DBB583" d="M61.2 36.86v-3.72c0-1.07-.28-2.28-1.35-2.28h-.12c-1.06 0-1.54 1.2-1.54 2.28v3.72h3z"/>
                <path d="M59.85 30.86h-.12c-.08 0-.38.18-.46.2.95.1.93 1.1.93 2.08v3.72h1v-3.72c0-1.07-.28-2.28-1.35-2.28z" opacity=".1"/>
                <path fill="#DBB583" d="M73.2 36.86v-3.72c0-1.07-.53-2.28-1.6-2.28h-.12c-1.06 0-1.3 1.2-1.3 2.28v3.72h3z"/>
                <path d="M71.6 30.86h-.12c-.08 0-.26.18-.33.2.94.1 1.04 1.1 1.04 2.08v3.72h1v-3.72c0-1.07-.6-2.28-1.6-2.28z" opacity=".1"/>
                <path fill="#DBB583" d="M85.2 36.86v-3.72c0-1.07-.77-2.28-1.84-2.28h-.12c-1.07 0-2.05 1.2-2.05 2.28v3.72h4z"/>
                <path d="M83.36 30.86h-.12c-.1 0-.14.18-.22.2.95.1 1.17 1.1 1.17 2.08v3.72h1v-3.72c0-1.07-.8-2.28-1.9-2.28z" opacity=".1"/>
                <path fill="#DBB583" d="M48.2 21.86V17.6c0-.9-.37-1.74-1.25-1.74h-.1c-.9 0-.65.85-.65 1.73v4.2h2z"/>
                <path d="M46.95 15.86h-.1c-.08 0-.34.07-.4.08.78.1.75.83.75 1.65v4.2h1v-4.2c0-.9-.37-1.8-1.25-1.8z" opacity=".1"/>
                <path fill="#DBB583" d="M58.2 21.86V17.6c0-.9-.57-1.74-1.46-1.74h-.1c-.9 0-1.44.85-1.44 1.73v4.2h3z"/>
                <path d="M56.74 15.86h-.1c-.07 0-.23.07-.3.08.8.1.85.83.85 1.65v4.2h1v-4.2c0-.9-.6-1.8-1.5-1.8z" opacity=".1"/>
                <path fill="#DBB583" d="M68.2 21.86V17.6c0-.9-.78-1.74-1.66-1.74h-.1c-.9 0-1.24.85-1.24 1.73v4.2h3z"/>
                <path d="M66.54 15.86h-.1c-.07 0-.13.07-.2.08.8.1.96.83.96 1.65v4.2h1v-4.2c0-.9-.78-1.8-1.66-1.8z" opacity=".1"/>
            </g>
        </g>
    </symbol>
    <symbol id="beachBall" viewBox="0 0 107 112">
        <ellipse cx="58.45" cy="105.31" opacity=".13" rx="48.46" ry="6.23"/>
        <circle cx="53.28" cy="53.23" r="52.83" fill="#FFF"/>
        <path fill="#FFC627" d="M70.26 21.4S24.7 14.04 2.6 67.68c9.82 33.65 39.62 37.85 42.77 37.85 31.23-38.5 33.3-77.47 33.3-77.47l-8.4-6.66z"/>
        <path fill="#4A5CFF" d="M80.25 21.16c0-.1 1.34-11.15-8.02-17.4-.58-.08-29.88-14.7-58.86 14.28 33.44-12.04 55.3-.47 55.3-.47s8.13 4.6 11.58 3.6z"/>
        <path fill="#EF3CA2" d="M79.8 22.5s13.6.3 21.18 7.87c14.38 33.03-6.02 55.66-9.14 59C105.22 43.9 79.8 22.5 79.8 22.5z"/>
        <ellipse cx="77.05" cy="22.15" fill="#FFF" transform="matrix(-.83 -.557 .557 -.83 128.657 83.486)" rx="9.01" ry="4.11"/>
        <path d="M61.3 79.76c-29.18 0-52.83-23.66-52.83-52.83v-1.08C3.13 34.1 0 43.98 0 54.57c0 29.18 23.65 52.83 52.83 52.83 28.82 0 52.25-23.07 52.82-51.75-9.42 14.5-25.76 24.1-44.35 24.1z" opacity=".07"/>
    </symbol>
    <symbol id="nationalGeographic" viewBox="0 0 131 109">
        <path fill="#FFD800" d="M47.68 0h36.04v51.63H47.68V0zm5.2 46.44H78.5V5.2H52.9v41.24z"/>
        <path d="M28.47 83.17h-2.23c-2.93-4.14-5.83-8.25-8.73-12.9v12.9H15V65.2h2.23c2.93 4.1 5.83 8.18 8.7 12.8H26V65.2h2.47v17.97zm5.86-7.12c.7-2.36 1.43-4.54 2.07-7.32h.06c.7 2.78 1.36 4.96 2.02 7.32h-4.15zM35.5 65.2l-6.2 17.97h2.66l1.57-4.9h5.42l1.4 4.9h3.45L38.07 65.2H35.5zm11.2 17.97V67.6h-4.72v-2.4H54.5v2.4h-4.72v15.57H46.7m8.8-17.97h3.06v17.97H55.5V65.2m12.56 15.7c-3.2 0-4.34-3.54-4.34-6.98 0-3.3 1.28-6.47 4.34-6.47 3.06 0 4.34 3.16 4.34 6.47 0 3.44-1.13 6.98-4.34 6.98zm0 2.57c4.7 0 7.63-4.18 7.63-9.55-.1-5.03-3.3-9.04-7.7-9.04s-7.7 4-7.7 9.04c0 5.37 2.9 9.55 7.6 9.55zm22.94-.3h-2.2c-2.93-4.14-5.83-8.25-8.73-12.9h-.02v12.9h-2.47V65.2h2.24c2.92 4.1 5.82 8.18 8.7 12.8h.05V65.2H91v17.97zm5.87-7.12c.72-2.36 1.43-4.54 2.08-7.32H99c.72 2.78 1.36 4.96 2.03 7.32h-4.16zm1.18-10.86l-6.2 17.9h2.66l1.6-4.9h5.4l1.4 4.9h3.5l-5.7-18h-2.6zm9.2 0h3.05v15.5h6.08v2.4h-9.14V65.2m-93.5 35v7.42c-1.65.64-3.37 1.1-5.1 1.1-5.3 0-8.64-4.1-8.64-9.4 0-4.9 3.34-9.2 8.73-9.2 1.66 0 3.33.63 4.36 1.4l-1 2.13c-.9-.5-2.2-.95-3.3-.95-3.3 0-5.6 2.6-5.6 6.68 0 4.26 2.5 6.77 5.2 6.77.8 0 1.5-.1 2.1-.43v-5.52h3.06zm11-7.34H19.6v4.92h5.04v2.42H19.6v5.8h6.07v2.42h-9.14V90.44h8.22v2.42m9.5 13.3c-3.2 0-4.34-3.55-4.34-7 0-3.3 1.3-6.46 4.4-6.46 3.1 0 4.4 3.16 4.4 6.47 0 3.44-1.1 6.98-4.3 6.98zm0 2.56c4.7 0 7.62-4.18 7.62-9.55 0-5.03-3.23-9.04-7.62-9.04-4.4 0-7.62 4-7.62 9.04 0 5.37 2.92 9.55 7.62 9.55zm22.4-8.52v7.42c-1.64.64-3.35 1.1-5.1 1.1-5.3 0-8.63-4.1-8.63-9.4 0-4.9 3.34-9.2 8.74-9.2 1.67 0 3.33.63 4.36 1.4l-1 2.13c-.83-.5-2.1-.94-3.3-.94-3.28 0-5.5 2.6-5.5 6.7 0 4.3 2.56 6.8 5.2 6.8.83 0 1.52-.1 2.16-.4v-5.5h3.08zm5.92-7.34h1.36c1.82 0 2.85 1.05 2.85 2.9 0 2.4-1.46 3.5-2.93 3.56-.3.03-1.03.06-1.28.08v-6.54zm7.8 15.56l-3.62-7.45c1.98-1.05 3.1-3.2 3.1-5.34 0-3.5-2.12-5.2-5.56-5.2h-4.9v18h3.1v-6.8h1.3l2.9 6.8h3.52zm5.1-7.12c.7-2.36 1.42-4.54 2.07-7.3h.05c.7 2.76 1.3 4.94 2 7.3h-4.2zm1.17-10.86l-6.22 17.98h2.67l1.5-4.9H80l1.4 4.9h3.45l-5.7-17.98H76.6zm14.06 0h-4.8v17.98H89v-6.78h1.37c3.67 0 5.9-2.98 5.9-6 0-3.5-2.12-5.2-5.56-5.2zm-.43 8.88L89 99.4v-6.54h1.37c1.8 0 2.83 1.05 2.83 2.9 0 2.4-1.46 3.5-2.93 3.56zm20.3 9.1h-3.1v-8.65h-6.4v8.65h-3.04V90.44h3.04v6.9h6.4V90.5h3.1v17.92m2.93-17.98h3.06v17.98h-3.06V90.44m16.93 3.26c-.75-.46-1.98-1-3.16-1-3.14 0-5.42 2.6-5.42 6.68 0 4.26 2.52 6.77 5.5 6.77 1.18 0 2.28-.38 3.08-.9l.84 2.24c-.93.6-2.56 1.2-4.05 1.2-5.3 0-8.63-4.1-8.63-9.4 0-4.9 3.3-9.2 8.6-9.2 1.6 0 3 .7 4.1 1.4l-1 2.2z"/>
    </symbol>
    <symbol id="facbook_icon" viewBox="0 0 14 29">
        <path d="M12.58 14.098H8.633v14.077h-5.85V14.098H0V9.125h2.782v-3.22C2.782 3.6 3.876 0 8.686 0l4.333.017v4.83H9.872C9.36 4.847 8.63 5.1 8.63 6.2v2.925h4.46l-.51 4.974z"/>
    </symbol>
    <symbol id="twitter_icon" viewBox="0 0 24 20">
        <path d="M23.938 2.303c-.88.39-1.827.655-2.82.773 1.013-.608 1.792-1.57 2.158-2.717-.95.56-2 .97-3.118 1.19C19.262.596 17.985 0 16.573 0c-2.712 0-4.91 2.198-4.91 4.91 0 .385.04.76.126 1.12C7.705 5.824 4.086 3.87 1.664.9 1.243 1.623 1 2.467 1 3.366c0 1.704.868 3.207 2.186 4.087-.804-.025-1.562-.246-2.224-.614v.06c0 2.38 1.693 4.364 3.94 4.816-.413.113-.847.172-1.294.172-.317 0-.625-.032-.924-.09.625 1.953 2.44 3.372 4.588 3.41-1.68 1.318-3.8 2.104-6.1 2.104-.396 0-.787-.023-1.17-.07 2.172 1.395 4.754 2.208 7.527 2.208 9.032 0 13.97-7.483 13.97-13.972 0-.213-.004-.424-.013-.636.96-.692 1.792-1.556 2.45-2.54z"/>
    </symbol>
    <symbol id="google_icon" viewBox="0 0 24 23">
        <path d="M19.52.31h-1.536v3.074H14.91v1.538h3.074v3.072h1.537V4.922h3.077V3.384H19.52zM14.375 0H7.71C4.328 0 1.508 2.495 1.508 5.24c0 2.8 1.853 5.037 5.034 5.037.22 0 .436-.014.646-.028-.207.393-.354.834-.354 1.3 0 .776.428 1.22.958 1.734-.4 0-.787.01-1.21.01C2.71 13.296 0 15.964 0 18.52c0 2.52 3.268 4.093 7.14 4.093 4.415 0 7.13-2.504 7.13-5.024 0-2.02-.437-3.036-2.59-4.65-.617-.464-1.96-1.413-1.96-2.05 0-.75.21-1.116 1.338-1.997 1.152-.9 1.968-2.087 1.968-3.56 0-1.607-.655-3.062-1.89-3.77h1.75L14.376 0zm-2.26 17.156c.055.23.085.472.085.717 0 2.037-1.31 3.627-5.075 3.627-2.676 0-4.61-1.695-4.61-3.73 0-1.995 2.268-3.714 4.945-3.684.624.006 1.206.105 1.733.276 1.456 1.01 2.627 1.642 2.922 2.794zM7.83 9.258c-1.797-.055-3.504-1.703-3.814-4.063-.312-2.357.895-4.163 2.69-4.11 1.796.055 3.333 1.99 3.643 4.347.307 2.36-.726 3.88-2.52 3.826z"/>
    </symbol>
    <symbol id="rainbow_end" viewBox="0 0 999 569">
        <path fill="#71DB00" d="M492.47 128.36V0"/>
        <path fill="#FF4949" d="M451.97 0h13.5v128h-13.5z"/>
        <path fill="#FE9B44" d="M465.47 0h13.5v128h-13.5z"/>
        <path fill="#FFE825" d="M478.97 0h13.5v128h-13.5z"/>
        <path fill="#71DB00" d="M492.47 0h13.5v128h-13.5z"/>
        <path fill="#4A99F2" d="M505.97 0h13.5v128h-13.5z"/>
        <path fill="#A74BF5" d="M519.47 0h13.5v128h-13.5z"/>
        <g>
            <path fill="#FF4949" d="M470.87 253h-10.8c-20.12 66.72-299 197.6-459.73 268.18L0 569h89.6s362.8-223.2 381.27-316z"/>
            <path fill="#FE9B44" d="M481.67 253h-10.8C452.4 345.8 89.6 569 89.6 569h201.44S472.2 347.13 481.67 253z"/>
            <path fill="#FFE825" d="M492.47 253h-10.8c-9.46 94.13-190.63 316-190.63 316h201.44V253z"/>
            <path fill="#71DB00" d="M503.27 253h-10.8v316h201.44S512.75 347.13 503.28 253z"/>
            <path fill="#4A99F2" d="M514.08 253h-10.8c9.45 94.13 190.63 316 190.63 316h201.45S533 347.13 514.08 253z"/>
            <path fill="#A74BF5" d="M524.88 253h-10.8c18.9 94.13 381.27 316 381.27 316H999.1l-.1-41.53C841.13 458.65 545.6 321.75 524.88 253z"/>
        </g>
        <g>
            <path fill="#FF4949" d="M465.47 125h-13.5c0 174-249.17 302-249.17 302h96.56s166.1-128 166.1-302z"/>
            <path fill="#FE9B44" d="M478.97 125h-13.5c0 174-166.1 302-166.1 302h96.55s83.05-128 83.05-302z"/>
            <path fill="#FFE825" d="M492.47 125h-13.5c0 174-83.05 302-83.05 302h96.56V125z"/>
            <path fill="#71DB00" d="M505.97 125h-13.5v302h96.57s-83.07-128-83.07-302z"/>
            <path fill="#4A99F2" d="M519.47 125h-13.5c0 174 83.07 302 83.07 302h96.56S519.47 299 519.47 125z"/>
            <path fill="#A74BF5" d="M532.97 125h-13.5c0 174 166.13 302 166.13 302h96.56s-249.2-128-249.2-302z"/>
        </g>
    </symbol>
</defs>
</svg>